<?xml version="1.0" encoding="UTF-8" standalone="no"?>
<!-- Created with Inkscape (http://www.inkscape.org/) -->

<svg
   width="137.79811mm"
   height="15.875mm"
   viewBox="0 0 137.79811 15.875"
   version="1.1"
   id="svg1050"
   sodipodi:docname="vircam-dark.svg"
   inkscape:version="1.1.1 (3bf5ae0d25, 2021-09-20)"
   xmlns:inkscape="http://www.inkscape.org/namespaces/inkscape"
   xmlns:sodipodi="http://sodipodi.sourceforge.net/DTD/sodipodi-0.dtd"
   xmlns="http://www.w3.org/2000/svg"
   xmlns:svg="http://www.w3.org/2000/svg">
  <sodipodi:namedview
     id="namedview20"
     pagecolor="#ffffff"
     bordercolor="#666666"
     borderopacity="1.0"
     inkscape:pageshadow="2"
     inkscape:pageopacity="0.0"
     inkscape:pagecheckerboard="0"
     inkscape:document-units="mm"
     showgrid="false"
     fit-margin-top="0"
     fit-margin-left="0"
     fit-margin-right="0"
     fit-margin-bottom="0"
     inkscape:zoom="0.80830208"
     inkscape:cx="353.82811"
     inkscape:cy="-24.124644"
     inkscape:window-width="1366"
     inkscape:window-height="705"
     inkscape:window-x="-8"
     inkscape:window-y="-8"
     inkscape:window-maximized="1"
     inkscape:current-layer="svg1050" />
  <defs
     id="defs1047" />
  <g
     id="layer1"
     transform="matrix(0.75000001,0,0,0.75000001,-54.430045,-108.27561)">
    <g
       id="g848"
       transform="matrix(0.34113759,0,0,-0.34113759,64.997204,300.05207)">
      <g
         id="g850">
        <path
           d="m 36.7376,433.8964 4.6547,-17.9459 10.7904,17.9459 H 61.196 L 42.5347,404.3523 h -6.4318 l -8.3786,29.5441 z m 33.3025,-9.4431 -3.4276,-20.101 H 58.911 l 3.4277,20.101 z m -1.8195,11.7159 c 0.5357,-0.0524 1.0224,-0.1633 1.4598,-0.3331 0.4371,-0.1698 0.8252,-0.4116 1.1636,-0.7251 0.3385,-0.3132 0.5925,-0.6726 0.7617,-1.0774 0.1692,-0.4048 0.254,-0.8425 0.254,-1.3127 0,-0.0261 0,-0.0522 0,-0.0783 0,-0.0261 0,-0.0521 0,-0.0785 0,-0.0261 0,-0.0522 0,-0.0782 0,-0.0261 0,-0.0522 0,-0.0783 0,-0.0263 0,-0.0459 0,-0.0589 0,-0.0131 0,-0.0196 0,-0.0196 -0.0284,-0.0261 -0.0425,-0.0456 -0.0425,-0.0587 0,-0.013 0,-0.0195 0,-0.0195 0,-0.0264 0,-0.0525 0,-0.0786 0,-0.026 0,-0.0521 0,-0.0782 -0.0845,-0.5485 -0.275,-1.0579 -0.5712,-1.5281 -0.2962,-0.4703 -0.684,-0.9012 -1.1636,-1.2932 -0.5077,-0.3918 -1.0299,-0.6857 -1.5656,-0.8816 -0.536,-0.1959 -1.1004,-0.2939 -1.6929,-0.2939 -0.536,0 -1.0295,0.0785 -1.4811,0.2352 -0.4512,0.1568 -0.8461,0.4048 -1.1846,0.7444 -0.3387,0.3396 -0.5924,0.7118 -0.7616,1.1169 -0.1695,0.4048 -0.254,0.8555 -0.254,1.3518 0,0.0522 0,0.0978 0,0.1369 0,0.0394 0,0.072 0,0.0981 0,0.0522 0,0.1046 0,0.1568 0,0.0521 0.0142,0.1043 0.0422,0.1567 0.0848,0.5485 0.2753,1.0579 0.5712,1.5282 0.2962,0.47 0.6985,0.9011 1.2061,1.2928 0.4797,0.3921 0.9944,0.6858 1.5446,0.8816 0.55,0.1962 1.1214,0.294 1.7139,0.294 z m 14.5987,-11.7159 -0.5499,-3.2913 h 0.0844 c 0.4796,0.5746 1.0015,1.084 1.5659,1.5282 0.5641,0.4439 1.1707,0.8095 1.8195,1.097 0.6489,0.2874 1.3258,0.5028 2.0311,0.6466 0.7052,0.1437 1.4388,0.2154 2.2005,0.2154 l 1.4811,0.0785 -1.1426,-6.8573 c -0.254,0.1046 -0.5077,0.2027 -0.7617,0.294 -0.254,0.0915 -0.5077,0.1502 -0.7617,0.1763 -0.254,0.0524 -0.5148,0.085 -0.7829,0.0981 -0.2679,0.013 -0.557,0.0195 -0.8674,0.0195 -1.0721,0 -1.9888,-0.1437 -2.7505,-0.4311 -0.7616,-0.2872 -1.3682,-0.7314 -1.8195,-1.332 -0.4516,-0.5749 -0.8252,-1.2215 -1.1214,-1.9398 -0.2962,-0.7183 -0.5148,-1.5086 -0.6559,-2.3706 l -1.3964,-8.0325 h -7.7014 l 3.4273,20.101 z m 27.0399,-0.5094 -1.0156,-6.0341 c -0.254,0.1568 -0.5219,0.3135 -0.8039,0.47 -0.2821,0.1568 -0.5786,0.3005 -0.8887,0.4312 -0.3104,0.1306 -0.6347,0.235 -0.9734,0.3135 -0.3385,0.0782 -0.6911,0.1173 -1.0579,0.1173 -0.7333,0 -1.4386,-0.1173 -2.1158,-0.3526 -0.6769,-0.235 -1.3116,-0.5876 -1.904,-1.0579 -0.5924,-0.4703 -1.065,-0.9992 -1.4176,-1.5868 -0.3526,-0.5879 -0.5854,-1.2212 -0.6982,-1.9004 -0.0283,-0.0785 -0.0496,-0.1567 -0.0635,-0.2352 -0.0141,-0.0783 -0.0212,-0.1565 -0.0212,-0.235 0,-0.0783 0,-0.1568 0,-0.235 0,-0.0786 0,-0.1438 0,-0.1959 0,-0.601 0.1057,-1.1495 0.3175,-1.6458 0.2114,-0.4963 0.5289,-0.9275 0.9518,-1.2932 0.4232,-0.3656 0.917,-0.6397 1.4811,-0.8226 0.5644,-0.1831 1.1991,-0.2744 1.9043,-0.2744 0.1129,0 0.2257,0 0.3385,0 0.1128,0 0.2256,0.0131 0.3385,0.0391 0.0564,0 0.1128,0 0.1695,0 0.0564,0 0.1267,0.0131 0.2114,0.0392 0.0564,0 0.1129,0.007 0.1693,0.0195 0.0564,0.0133 0.1128,0.0329 0.1692,0.059 0.2256,0.0521 0.4584,0.1176 0.6982,0.1959 0.2398,0.0782 0.4725,0.1697 0.6981,0.2743 0.226,0.1044 0.4445,0.2155 0.656,0.3331 0.2117,0.1174 0.4161,0.2546 0.6137,0.4113 l -1.0157,-5.9558 c -0.282,-0.1568 -0.557,-0.281 -0.8251,-0.3722 -0.2679,-0.0916 -0.5432,-0.1633 -0.8252,-0.2155 -0.1409,-0.0524 -0.2821,-0.0915 -0.4232,-0.1176 -0.1409,-0.0261 -0.2821,-0.0522 -0.423,-0.0785 -0.1695,-0.0522 -0.3245,-0.0913 -0.4654,-0.1174 -0.1412,-0.0261 -0.2823,-0.0521 -0.4232,-0.0785 -0.1976,-0.0261 -0.3881,-0.0456 -0.5715,-0.0587 -0.1834,-0.013 -0.3736,-0.0326 -0.5712,-0.0587 -0.0844,0 -0.1763,0 -0.2749,0 -0.099,0 -0.1905,-0.013 -0.2753,-0.0394 -0.1128,0 -0.2114,0 -0.2959,0 -0.0848,0 -0.1695,0 -0.254,0 -1.4669,0 -2.8,0.1962 -3.9988,0.5879 -1.1991,0.3918 -2.2921,0.9927 -3.2794,1.8023 -0.9593,0.8099 -1.6787,1.7439 -2.1583,2.8018 -0.4796,1.0579 -0.7195,2.2399 -0.7195,3.5461 0,0.1304 0,0.2676 0,0.4113 0,0.1437 0.0142,0.2809 0.0426,0.4113 0.028,0.1307 0.0493,0.2679 0.0635,0.4116 0.0139,0.1437 0.0351,0.294 0.0635,0.4505 0.282,1.6197 0.8251,3.0823 1.629,4.3885 0.8039,1.3063 1.8831,2.4687 3.2372,3.4875 1.3258,1.0188 2.7504,1.7827 4.2738,2.2921 1.5233,0.5094 3.1456,0.7639 4.8662,0.7639 0.4516,0 0.8887,-0.026 1.3119,-0.0782 0.4232,-0.0521 0.8464,-0.1307 1.2696,-0.235 0.3949,-0.1046 0.7827,-0.2222 1.1637,-0.3526 0.3807,-0.1307 0.7545,-0.3005 1.1213,-0.5094 z m 28.6053,0.5094 -3.4274,-20.101 h -7.7014 l 0.3807,2.2334 h -0.0845 c -0.3387,-0.4439 -0.7194,-0.8226 -1.1426,-1.1361 -0.4233,-0.3135 -0.8745,-0.5749 -1.3542,-0.7838 -0.4796,-0.2089 -0.9663,-0.3852 -1.4598,-0.5289 -0.4938,-0.1438 -0.9944,-0.2546 -1.5024,-0.3331 -0.1408,-0.0261 -0.282,-0.0457 -0.4229,-0.0587 -0.1411,-0.013 -0.2823,-0.0196 -0.4232,-0.0196 -0.0564,0 -0.1199,0 -0.1905,0 -0.0706,0 -0.1341,-0.013 -0.1905,-0.0394 -0.0564,0 -0.1199,0 -0.1902,0 -0.0706,0 -0.1341,0 -0.1905,0 -1.4388,0 -2.7224,0.2092 -3.8508,0.6271 -1.1285,0.4181 -2.1016,1.0579 -2.9197,1.9199 -0.8464,0.862 -1.474,1.8156 -1.8831,2.8604 -0.409,1.0449 -0.6137,2.1813 -0.6137,3.409 0,0.1306 0,0.2744 0,0.4311 0,0.1565 0.0142,0.3132 0.0425,0.47 0,0.1567 0.0139,0.3135 0.0423,0.4703 0.028,0.1567 0.0564,0.3135 0.0845,0.4702 0.2259,1.4366 0.6984,2.7819 1.4176,4.0357 0.7194,1.2541 1.6716,2.4035 2.8564,3.4484 1.1849,1.0709 2.4823,1.8742 3.8931,2.4097 1.4106,0.5355 2.9197,0.803 4.5278,0.803 0.6205,0 1.2271,-0.0586 1.8196,-0.1763 0.5924,-0.1173 1.1707,-0.2806 1.7348,-0.4895 0.5644,-0.2092 1.072,-0.4768 1.5233,-0.8034 0.4516,-0.3265 0.8464,-0.7117 1.1849,-1.1559 l 0.3385,2.0375 z m -13.3294,-5.5247 c -0.79,-0.0524 -1.502,-0.1959 -2.137,-0.4312 -0.6347,-0.2349 -1.2058,-0.5745 -1.7135,-1.0187 -0.508,-0.4439 -0.917,-0.9338 -1.2274,-1.4692 -0.3101,-0.5358 -0.5219,-1.1038 -0.6347,-1.7045 -0.0281,-0.0785 -0.0493,-0.1567 -0.0635,-0.2353 -0.0142,-0.0782 -0.021,-0.1567 -0.021,-0.235 0,-0.0785 0,-0.1567 0,-0.2352 0,-0.0783 0,-0.1435 0,-0.1959 0,-0.5224 0.0845,-0.9992 0.2537,-1.4301 0.1692,-0.4311 0.4374,-0.8164 0.8042,-1.156 0.3665,-0.3395 0.811,-0.5941 1.3329,-0.7639 0.5218,-0.1698 1.1355,-0.2548 1.8408,-0.2548 0.7897,0 1.5091,0.1111 2.158,0.333 0.6488,0.222 1.2271,0.542 1.7348,0.9601 0.508,0.4439 0.917,0.9272 1.2274,1.4497 0.3101,0.5224 0.5219,1.1103 0.6347,1.7634 0,0.0261 0,0.0522 0,0.0782 0,0.0261 0.0141,0.0652 0.0422,0.1177 0,0.0261 0,0.0587 0,0.0978 0,0.0394 0,0.072 0,0.0981 0,0.0521 0,0.0912 0,0.1176 0,0.0261 0.0142,0.0652 0.0422,0.1173 0,0.0261 0,0.059 0,0.0981 0,0.0391 0,0.0717 0,0.0978 0,0.5224 -0.0915,1.0058 -0.2749,1.4499 -0.1834,0.4439 -0.4584,0.836 -0.8252,1.1756 -0.3668,0.3656 -0.811,0.64 -1.3328,0.8229 -0.5219,0.1828 -1.1356,0.2741 -1.8409,0.2741 z m 26.1511,5.5247 -0.423,-2.5078 h 0.0845 c 0.5644,0.5224 1.1285,0.9797 1.6926,1.3714 0.5644,0.392 1.1568,0.7186 1.7773,0.9797 0.6208,0.235 1.2555,0.4181 1.9043,0.5485 0.6489,0.1306 1.3258,0.1958 2.031,0.1958 0.7901,0 1.5305,-0.0782 2.2218,-0.2349 0.6911,-0.1568 1.3329,-0.3918 1.9253,-0.7053 0.5925,-0.3135 1.1002,-0.7053 1.5234,-1.1755 0.4232,-0.4703 0.7758,-1.0449 1.0579,-1.7241 0.4232,0.5485 0.8886,1.0384 1.3963,1.4695 0.508,0.4309 1.0721,0.8031 1.6926,1.1166 0.6208,0.3135 1.2484,0.568 1.883,0.7642 0.635,0.1959 1.2906,0.3331 1.9678,0.4113 0.0564,0 0.1058,0 0.148,0 0.0425,0 0.0777,0.013 0.106,0.0391 0.0564,0 0.1058,0 0.148,0 0.0422,0 0.0777,0 0.1057,0 0.0564,0 0.106,0 0.1483,0 0.0422,0 0.0915,0.0131 0.1479,0.0391 0.0284,0 0.0706,0 0.127,0 0.0564,0 0.1129,0 0.1693,0 1.1568,0 2.137,-0.1369 2.9409,-0.4113 0.8042,-0.2744 1.4318,-0.6726 1.8831,-1.195 0.4796,-0.5225 0.8393,-1.1299 1.0791,-1.8222 0.2398,-0.6922 0.3597,-1.4692 0.3597,-2.3312 0,-0.1828 -0.007,-0.3591 -0.0212,-0.5289 -0.0142,-0.1698 -0.0352,-0.3461 -0.0635,-0.529 0,-0.1046 -0.007,-0.2026 -0.021,-0.2939 -0.0142,-0.0916 -0.0213,-0.1763 -0.0213,-0.2548 -0.028,-0.1044 -0.0493,-0.2024 -0.0635,-0.2937 -0.0141,-0.0916 -0.0212,-0.1897 -0.0212,-0.294 l -2.2003,-12.7346 h -7.7014 l 1.6503,9.6001 c 0,0 0,0.0195 0,0.0587 0,0.0391 0,0.0717 0,0.0978 0,0.0524 0.007,0.098 0.021,0.1371 0.0142,0.0392 0.0354,0.0851 0.0635,0.1372 0,0.1046 0.007,0.2155 0.0212,0.3331 0.0142,0.1177 0.0352,0.2285 0.0635,0.3331 0,0.1307 0.007,0.2545 0.021,0.3722 0.0142,0.1176 0.0355,0.2284 0.0635,0.333 0,0.0261 0,0.0522 0,0.0786 0,0.026 0.0142,0.0652 0.0425,0.1173 0,0.0261 0,0.059 0,0.0981 0,0.0391 0,0.0717 0,0.0978 0,0.0524 0,0.1111 0,0.1763 0,0.0655 0,0.1372 0,0.2157 0,0.3657 -0.0425,0.7183 -0.127,1.0579 -0.0847,0.3396 -0.2117,0.6401 -0.3809,0.9011 -0.1693,0.2875 -0.423,0.5029 -0.7617,0.6466 -0.3385,0.1437 -0.7617,0.2155 -1.2694,0.2155 -0.7052,0 -1.3189,-0.1044 -1.8408,-0.3135 -0.5218,-0.209 -0.938,-0.5355 -1.2484,-0.9794 -0.3101,-0.4181 -0.5711,-0.862 -0.7826,-1.3323 -0.2117,-0.4703 -0.3739,-0.9666 -0.4867,-1.489 -0.0284,-0.1046 -0.0564,-0.2155 -0.0848,-0.3331 -0.028,-0.1176 -0.0564,-0.2415 -0.0844,-0.3722 -0.0284,-0.1046 -0.0494,-0.2154 -0.0635,-0.3331 -0.0142,-0.1176 -0.0213,-0.2284 -0.0213,-0.333 l -1.6503,-9.5216 h -7.7015 l 1.6504,9.6001 c 0,0 0,0.0195 0,0.0587 0,0.0391 0,0.0717 0,0.0978 0,0.0524 0.007,0.098 0.0212,0.1371 0.0142,0.0392 0.0352,0.072 0.0635,0.0981 0,0.1307 0.007,0.2611 0.021,0.3918 0.0142,0.1307 0.0354,0.2613 0.0635,0.3917 0.0283,0.1307 0.0493,0.2679 0.0635,0.4116 0.0142,0.1437 0.0354,0.2806 0.0635,0.4113 0,0.0261 0,0.0525 0,0.0785 0,0.0261 0,0.0522 0,0.0783 0,0 0,0.013 0,0.0391 0,0.0264 0,0.0524 0,0.0785 0,0.0261 0,0.0522 0,0.0782 0,0.0261 0,0.0525 0,0.0786 0,0 0,0.013 0,0.0391 0,0.0261 0,0.0521 0,0.0782 0,0.3921 -0.0493,0.7642 -0.148,1.1169 -0.0989,0.3526 -0.2327,0.6857 -0.4019,0.9992 -0.1976,0.2874 -0.4729,0.5094 -0.8255,0.6661 -0.3526,0.1568 -0.811,0.235 -1.3751,0.235 -0.6208,0 -1.1636,-0.0978 -1.629,-0.2939 -0.4658,-0.1959 -0.8536,-0.4896 -1.164,-0.8816 -0.282,-0.3918 -0.5218,-0.8031 -0.7191,-1.2342 -0.1976,-0.4312 -0.3668,-0.8816 -0.508,-1.3519 -0.028,-0.1828 -0.0635,-0.3526 -0.1057,-0.5093 -0.0422,-0.1568 -0.0777,-0.3136 -0.1057,-0.4703 -0.0284,-0.1568 -0.0564,-0.3135 -0.0848,-0.47 -0.0281,-0.1567 -0.0564,-0.3005 -0.0845,-0.4311 l -1.6503,-9.5216 h -7.7014 l 3.4273,20.101 z m 65.8434,-14.968 h -11.4253 l -3.0889,-5.133 h -8.8016 l 17.3069,29.5441 h 9.0556 l 6.9823,-29.5441 h -8.8441 z m -1.2271,5.8776 -1.7773,9.4039 h -0.0845 l -5.0358,-9.4039 z m 16.9687,9.0904 h 7.7015 l -1.8196,-10.7362 c -0.0283,-0.1828 -0.0496,-0.3461 -0.0635,-0.4898 -0.0141,-0.1437 -0.0354,-0.2807 -0.0635,-0.4113 -0.0283,-0.1307 -0.0425,-0.2549 -0.0425,-0.3722 0,-0.1177 0.0142,-0.2418 0.0425,-0.3725 0,-0.4178 0.0565,-0.7965 0.1693,-1.1361 0.1128,-0.3396 0.282,-0.6401 0.5077,-0.9012 0.2256,-0.2613 0.5502,-0.4507 0.9734,-0.5683 0.4229,-0.1174 0.945,-0.1763 1.5655,-0.1763 0.7901,0 1.4599,0.0981 2.0101,0.2939 0.5502,0.1959 0.9944,0.5029 1.3328,0.9207 0.3104,0.3921 0.5715,0.849 0.783,1.3714 0.2114,0.5225 0.3739,1.1104 0.4867,1.7635 l 1.8195,10.8144 h 7.7015 l -2.0736,-12.1076 c -0.282,-1.698 -0.79,-3.1215 -1.5233,-4.271 -0.7336,-1.1494 -1.7209,-2.0245 -2.9622,-2.6251 -1.2129,-0.5749 -2.5319,-1.0123 -3.9563,-1.3127 -1.4247,-0.3005 -2.9551,-0.4508 -4.5913,-0.4508 -1.4669,0 -2.8071,0.1177 -4.0201,0.3527 -1.2129,0.2352 -2.3133,0.5879 -3.3006,1.0581 -0.9593,0.47 -1.6855,1.1557 -2.1793,2.0571 -0.4938,0.9012 -0.7404,2.0047 -0.7404,3.3109 0,0.1307 0,0.2679 0,0.4113 0,0.1437 0.0139,0.294 0.0422,0.4507 0,0.1307 0.0142,0.2744 0.0422,0.4312 0.0284,0.1567 0.0565,0.3265 0.0848,0.5094 z m 35.4181,-5.8773 -2.412,-14.2237 h -7.7015 l 2.412,14.2237 h -2.4964 l 1.0156,5.8773 h 2.4965 l 1.0579,6.0341 h 7.7014 l -1.0579,-6.0341 h 4.3586 l -1.0157,-5.8773 z m 19.423,6.5435 c 1.5797,-0.0522 3.0467,-0.2744 4.4008,-0.6662 1.3541,-0.3917 2.5815,-0.9796 3.6816,-1.7631 1.1001,-0.7838 1.9324,-1.7241 2.4965,-2.8213 0.5644,-1.0971 0.8464,-2.3641 0.8464,-3.8007 0,-0.0786 0,-0.1503 0,-0.2155 0,-0.0655 0,-0.1372 0,-0.2157 -0.0281,-0.0521 -0.0422,-0.1173 -0.0422,-0.1959 0,-0.0782 0,-0.1567 0,-0.235 0,-0.0785 -0.007,-0.1567 -0.0213,-0.2352 -0.0142,-0.0783 -0.0212,-0.1435 -0.0212,-0.1959 -0.0281,-0.0782 -0.0494,-0.1568 -0.0633,-0.235 -0.0141,-0.0785 -0.0212,-0.1568 -0.0212,-0.235 -0.2821,-1.6979 -0.8674,-3.2065 -1.7561,-4.5258 -0.8886,-1.3192 -2.0664,-2.4358 -3.5334,-3.3503 -1.4669,-0.9402 -3.0044,-1.6324 -4.6125,-2.0766 -1.6078,-0.4439 -3.2865,-0.6662 -5.0355,-0.6662 -1.5797,0 -3.0466,0.1832 -4.4008,0.5488 -1.3541,0.3657 -2.5812,0.9272 -3.6816,1.6849 -1.1001,0.7575 -1.9253,1.6847 -2.4755,2.782 -0.5499,1.097 -0.8252,2.3641 -0.8252,3.8007 0,0.1306 0,0.2678 0,0.4113 0,0.1437 0.0142,0.2939 0.0426,0.4507 0,0.1567 0.0139,0.3135 0.0422,0.4702 0.0281,0.1568 0.0564,0.3136 0.0845,0.4703 0.2823,1.698 0.8606,3.2063 1.7351,4.5255 0.8744,1.3193 2.0452,2.4489 3.5121,3.3894 1.4669,0.9403 3.0044,1.6458 4.6125,2.1158 1.6081,0.4703 3.2865,0.7052 5.0355,0.7052 z m -1.0579,-6.1909 c -0.7897,-0.0524 -1.5021,-0.1959 -2.1368,-0.4312 -0.6349,-0.2349 -1.2061,-0.5745 -1.7138,-1.0187 -0.508,-0.4439 -0.917,-0.9338 -1.2271,-1.4692 -0.3104,-0.5358 -0.5221,-1.1038 -0.635,-1.7045 -0.028,-0.0785 -0.0493,-0.1567 -0.0635,-0.2353 -0.0139,-0.0782 -0.0209,-0.1567 -0.0209,-0.235 0,-0.0785 0,-0.1567 0,-0.2352 0,-0.0783 0,-0.1435 0,-0.1959 0,-0.5224 0.0844,-0.9992 0.2537,-1.4301 0.1695,-0.4311 0.4373,-0.8164 0.8041,-1.156 0.3669,-0.3395 0.811,-0.5941 1.3329,-0.7639 0.5219,-0.1698 1.1356,-0.2548 1.8408,-0.2548 0.7898,0 1.5092,0.1111 2.158,0.333 0.6489,0.222 1.2272,0.542 1.7351,0.9601 0.5077,0.4439 0.9167,0.9272 1.2271,1.4497 0.3104,0.5224 0.5219,1.1103 0.6347,1.7634 0,0.0261 0,0.0522 0,0.0782 0,0.0261 0.0142,0.0652 0.0423,0.1177 0,0.0261 0,0.0587 0,0.0978 0,0.0394 0,0.072 0,0.0981 0,0.0521 0,0.0912 0,0.1176 0,0.0261 0.0141,0.0652 0.0425,0.1173 0,0.0261 0,0.059 0,0.0981 0,0.0391 0,0.0717 0,0.0978 0,0.5224 -0.0919,1.0058 -0.2753,1.4499 -0.1834,0.4439 -0.4583,0.836 -0.8251,1.1756 -0.3668,0.3656 -0.811,0.64 -1.3329,0.8229 -0.5218,0.1828 -1.1355,0.2741 -1.8408,0.2741 z m 34.3182,4.8977 -3.3854,-4.5451 c -0.0845,0.0261 -0.1763,0.0522 -0.275,0.0783 -0.0986,0.026 -0.1905,0.0654 -0.2749,0.1176 -0.1129,0.0261 -0.2189,0.0587 -0.3175,0.0978 -0.0987,0.0394 -0.2044,0.072 -0.3172,0.0981 -0.1976,0.0782 -0.4161,0.1502 -0.656,0.2154 -0.2398,0.0655 -0.4725,0.1242 -0.6981,0.1763 -0.1128,0 -0.2328,0.006 -0.3597,0.0196 -0.127,0.0133 -0.2611,0.0329 -0.402,0.0589 -0.0567,0 -0.1131,0 -0.1695,0 -0.0564,0 -0.1128,0.0131 -0.1692,0.0392 -0.0564,0 -0.1129,0 -0.1693,0 -0.0564,0 -0.1128,0 -0.1692,0 -0.0281,0 -0.0635,0 -0.1057,0 -0.0423,0 -0.0919,0 -0.1483,0 -0.028,-0.0261 -0.0635,-0.0392 -0.1057,-0.0392 -0.0422,0 -0.0916,0 -0.148,0 -0.0847,-0.026 -0.1692,-0.0456 -0.254,-0.0589 -0.0847,-0.0131 -0.1692,-0.0196 -0.2539,-0.0196 -0.1973,-0.0521 -0.3807,-0.1173 -0.55,-0.1958 -0.1692,-0.0783 -0.3387,-0.1698 -0.5079,-0.2742 -0.1693,-0.1046 -0.2963,-0.2222 -0.3807,-0.3529 -0.0848,-0.1304 -0.1412,-0.2741 -0.1693,-0.4308 0,-0.0261 0,-0.0457 0,-0.0587 0,-0.0131 0,-0.0329 0,-0.059 0,-0.0261 0,-0.0456 0,-0.0587 0,-0.013 0,-0.0195 0,-0.0195 0,-0.1828 0.0423,-0.3526 0.1268,-0.5094 0.0847,-0.1568 0.2259,-0.2874 0.4232,-0.3917 0.1975,-0.1046 0.4019,-0.1897 0.6137,-0.2549 0.2114,-0.0652 0.4442,-0.1241 0.6981,-0.1763 0.0848,-0.0261 0.1764,-0.0522 0.275,-0.0782 0.0989,-0.0264 0.2047,-0.0394 0.3175,-0.0394 0.1128,-0.0261 0.2185,-0.0457 0.3175,-0.0587 0.0986,-0.0131 0.1902,-0.0196 0.2749,-0.0196 0,0 0,-0.007 0,-0.0195 0,-0.0131 0.0142,-0.0196 0.0423,-0.0196 0,0 0,0 0,0 0,0 0,0 0,0 0,0 0.007,0 0.0212,0 0.0139,0 0.0352,0 0.0635,0 0.7617,-0.1567 1.4669,-0.3659 2.1158,-0.627 0.6488,-0.2614 1.2271,-0.5746 1.7348,-0.9405 0.508,-0.3657 0.8887,-0.8227 1.1426,-1.3714 0.254,-0.5486 0.3807,-1.1886 0.3807,-1.92 0,-0.1043 0,-0.2023 0,-0.2939 0,-0.0913 0,-0.1763 0,-0.2546 0,-0.0782 -0.007,-0.1632 -0.0209,-0.2548 -0.0142,-0.0913 -0.0355,-0.1893 -0.0635,-0.2937 -0.1976,-1.2016 -0.5996,-2.2399 -1.2062,-3.115 -0.6063,-0.8753 -1.4034,-1.6132 -2.3907,-2.2138 -0.9593,-0.5749 -1.9678,-1.0253 -3.0257,-1.3519 -1.0579,-0.3265 -2.1651,-0.5419 -3.3217,-0.6465 -0.0847,0 -0.1621,0 -0.2327,0 -0.0706,0 -0.1341,-0.0131 -0.1905,-0.0392 -0.0847,0 -0.1621,0 -0.2327,0 -0.0706,0 -0.1341,0 -0.1905,0 -0.0564,0 -0.1199,0 -0.1905,0 -0.0703,0 -0.1338,-0.013 -0.1902,-0.0394 -0.0564,0 -0.1199,0 -0.1905,0 -0.0705,0 -0.134,0 -0.1905,0 -0.7897,0 -1.5514,0.046 -2.285,0.1372 -0.7336,0.0916 -1.4527,0.2418 -2.158,0.4507 -0.7052,0.1829 -1.3824,0.4114 -2.0313,0.6857 -0.6488,0.2742 -1.2693,0.5942 -1.8618,0.9601 l 3.6391,5.0545 c 0.2257,-0.2089 0.4726,-0.3983 0.7404,-0.5681 0.2682,-0.1698 0.5715,-0.333 0.91,-0.4898 0.3104,-0.1567 0.6346,-0.3005 0.9731,-0.4311 0.3387,-0.1304 0.6914,-0.235 1.0579,-0.3133 0.1695,-0.0524 0.3387,-0.098 0.508,-0.1372 0.1692,-0.0394 0.3384,-0.072 0.5076,-0.098 0.0848,-0.0261 0.1693,-0.0457 0.254,-0.0587 0.0845,-0.0131 0.1834,-0.0196 0.2962,-0.0196 0.0845,0 0.1693,0 0.2538,0 0.0847,0 0.1695,0 0.2539,0 0.0564,0 0.1199,0 0.1905,0 0.0706,0 0.148,0 0.2327,0 0.0848,0 0.1693,0.0131 0.254,0.0391 0.0845,0.0261 0.1693,0.0522 0.2537,0.0783 0.1976,0.0524 0.3881,0.1176 0.5715,0.1961 0.1834,0.0783 0.3597,0.1698 0.5289,0.2741 0.1693,0.1307 0.3102,0.2744 0.423,0.4312 0.1131,0.1567 0.1834,0.3265 0.2117,0.5094 0,0.0261 0,0.0456 0,0.0587 0,0.013 0,0.0326 0,0.0586 0,0.0261 0,0.046 0,0.059 0,0.013 0,0.0326 0,0.0587 0,0.235 -0.0706,0.4442 -0.2117,0.627 -0.1409,0.1828 -0.3385,0.3265 -0.5922,0.4309 -0.2823,0.1046 -0.5785,0.2024 -0.8886,0.2939 -0.3104,0.0913 -0.6631,0.1894 -1.0579,0.294 -0.1129,0 -0.226,0.013 -0.3388,0.0391 -0.1128,0.0261 -0.2256,0.0521 -0.3384,0.0782 -0.1129,0.0261 -0.2257,0.0525 -0.3385,0.0785 -0.1128,0.0261 -0.2256,0.0522 -0.3384,0.0783 -0.0284,0 -0.0565,0 -0.0848,0 -0.0281,0 -0.0564,0 -0.0848,0 -0.028,0 -0.0564,0.006 -0.0844,0.0195 -0.0284,0.0131 -0.0564,0.0329 -0.0848,0.059 -0.536,0.1304 -1.0366,0.3002 -1.5021,0.5094 -0.4654,0.2089 -0.9099,0.4569 -1.3328,0.7444 -0.4232,0.2874 -0.7336,0.6791 -0.9312,1.1755 -0.1973,0.4963 -0.282,1.084 -0.2537,1.7631 0,0.0786 0,0.1633 0,0.2549 0,0.0912 0,0.1893 0,0.2936 0,0.0786 0.007,0.1633 0.021,0.2549 0.0142,0.0915 0.0354,0.1893 0.0635,0.2939 0.1975,1.097 0.5782,2.0702 1.1426,2.9191 0.5641,0.849 1.3119,1.5608 2.2428,2.1354 0.9309,0.5748 1.8969,1.0253 2.8984,1.3518 1.0015,0.3266 2.0384,0.542 3.1105,0.6466 0.0564,0 0.1128,0 0.1692,0 0.0564,0 0.127,0.013 0.2115,0.0391 0.0564,0 0.1128,0 0.1692,0 0.0564,0 0.1128,0 0.1692,0 0.0564,0 0.1128,0 0.1693,0 0.0566,0 0.1131,0.0131 0.1695,0.0391 0.0564,0 0.1128,0 0.1692,0 0.0564,0 0.1128,0 0.1692,0 0.6205,0 1.2271,-0.026 1.8196,-0.0782 0.5924,-0.0521 1.1849,-0.1307 1.7773,-0.235 0.5924,-0.1046 1.1636,-0.2353 1.7138,-0.392 0.5499,-0.1568 1.0931,-0.3526 1.6291,-0.5876 z m 12.314,0.627 -0.381,-2.2725 h 0.0848 c 0.3384,0.3657 0.7191,0.7052 1.1423,1.0188 0.4232,0.3135 0.8887,0.5876 1.3964,0.8226 0.4796,0.2352 0.9734,0.4246 1.4811,0.5683 0.5079,0.1437 1.0298,0.2546 1.5658,0.3331 0.0564,0 0.1129,0.006 0.1693,0.0195 0.0564,0.0131 0.127,0.0196 0.2114,0.0196 0.0564,0.0261 0.1128,0.0391 0.1693,0.0391 0.0564,0 0.1128,0 0.1692,0 0.0564,0 0.1199,0 0.1905,0 0.0706,0 0.134,0.0131 0.1905,0.0391 0.0564,0 0.1199,0 0.1904,0 0.0703,0 0.1338,0 0.1903,0 1.4388,0 2.7223,-0.2154 3.8508,-0.6463 1.1285,-0.4311 2.1016,-1.0777 2.9197,-1.9397 0.8181,-0.862 1.4389,-1.8218 1.8621,-2.88 0.4229,-1.0579 0.6347,-2.2005 0.6347,-3.4285 0,-0.0782 0,-0.1568 0,-0.235 0,-0.0782 0,-0.1568 0,-0.235 -0.0284,-0.0785 -0.0423,-0.1567 -0.0423,-0.2353 0,-0.0782 0,-0.1567 0,-0.235 -0.0283,-0.1567 -0.0496,-0.3135 -0.0635,-0.4702 -0.0141,-0.1568 -0.0354,-0.3135 -0.0635,-0.4703 -0.254,-1.4366 -0.7407,-2.7819 -1.4598,-4.0357 -0.7194,-1.254 -1.6716,-2.4032 -2.8565,-3.448 -1.1849,-1.0452 -2.4755,-1.8222 -3.8718,-2.3315 -1.3964,-0.5094 -2.8987,-0.7643 -4.5065,-0.7643 -0.6208,0 -1.2274,0.0525 -1.8196,0.1568 -0.5924,0.1046 -1.171,0.2614 -1.7351,0.4703 -0.5641,0.1567 -1.0721,0.3982 -1.5233,0.7248 -0.4513,0.3265 -0.8465,0.712 -1.1849,1.156 l -2.0736,-11.8724 h -7.7014 l 5.1625,30.1317 z m 3.7661,-5.5247 c -0.79,-0.0524 -1.5024,-0.1959 -2.137,-0.4312 -0.6347,-0.2349 -1.2062,-0.5745 -1.7139,-1.0187 -0.5077,-0.4439 -0.9167,-0.9338 -1.2271,-1.4692 -0.3104,-0.5358 -0.5218,-1.1038 -0.6347,-1.7045 -0.0283,-0.0785 -0.0496,-0.1567 -0.0635,-0.2353 -0.0141,-0.0782 -0.0212,-0.1567 -0.0212,-0.235 0,-0.0785 0,-0.1567 0,-0.2352 0,-0.0783 0,-0.1435 0,-0.1959 0,-0.5224 0.0847,-0.9992 0.254,-1.4301 0.1692,-0.4311 0.4371,-0.8164 0.8039,-1.156 0.3668,-0.3395 0.811,-0.5941 1.3328,-0.7639 0.5222,-0.1698 1.1356,-0.2548 1.8408,-0.2548 0.7901,0 1.5092,0.1111 2.1581,0.333 0.6488,0.222 1.2274,0.542 1.735,0.9601 0.5077,0.4439 0.9168,0.9272 1.2272,1.4497 0.3103,0.5224 0.5218,1.1103 0.6346,1.7634 0,0.0261 0,0.0522 0,0.0782 0,0.0261 0.0142,0.0652 0.0426,0.1177 0,0.0261 0,0.0587 0,0.0978 0,0.0394 0,0.072 0,0.0981 0,0.0521 0,0.0912 0,0.1176 0,0.0261 0.0138,0.0652 0.0422,0.1173 0,0.0261 0,0.059 0,0.0981 0,0.0391 0,0.0717 0,0.0978 0,0.5224 -0.0919,1.0058 -0.275,1.4499 -0.1834,0.4439 -0.4586,0.836 -0.8251,1.1756 -0.3668,0.3656 -0.8113,0.64 -1.3332,0.8229 -0.5218,0.1828 -1.1352,0.2741 -1.8405,0.2741 z"
           style="fill:#ffffff;fill-opacity:1;fill-rule:nonzero;stroke:none"
           id="path852" />
        <path
           d="m 366.2926,425.1195 c 1.5801,-0.0522 3.047,-0.2744 4.4011,-0.6662 1.3541,-0.3917 2.5812,-0.9796 3.6814,-1.7631 1.1001,-0.7838 1.9323,-1.7241 2.4967,-2.8213 0.5641,-1.0971 0.8462,-2.3641 0.8462,-3.8007 0,-0.0786 0,-0.1503 0,-0.2155 0,-0.0655 0,-0.1372 0,-0.2157 -0.0281,-0.0521 -0.0423,-0.1173 -0.0423,-0.1959 0,-0.0782 0,-0.1567 0,-0.235 0,-0.0785 -0.007,-0.1567 -0.0212,-0.2352 -0.0139,-0.0783 -0.021,-0.1435 -0.021,-0.1959 -0.0284,-0.0782 -0.0496,-0.1568 -0.0635,-0.235 -0.0142,-0.0785 -0.0213,-0.1568 -0.0213,-0.235 -0.282,-1.6979 -0.8674,-3.2065 -1.756,-4.5258 -0.8887,-1.3192 -2.0665,-2.4358 -3.5334,-3.3503 -1.467,-0.9402 -3.0045,-1.6324 -4.6126,-2.0766 -1.6078,-0.4439 -3.2864,-0.6662 -5.0354,-0.6662 -1.5798,0 -3.0467,0.1832 -4.4008,0.5488 -1.3541,0.3657 -2.5812,0.9272 -3.6816,1.6849 -1.1002,0.7575 -1.9253,1.6847 -2.4755,2.782 -0.55,1.097 -0.8249,2.3641 -0.8249,3.8007 0,0.1306 0,0.2678 0,0.4113 0,0.1437 0.0139,0.2939 0.0422,0.4507 0,0.1567 0.0142,0.3135 0.0422,0.4702 0.0284,0.1568 0.0565,0.3136 0.0848,0.4703 0.282,1.698 0.8603,3.2063 1.7348,4.5255 0.8745,1.3193 2.0452,2.4489 3.5121,3.3894 1.467,0.9403 3.0045,1.6458 4.6126,2.1158 1.6081,0.4703 3.2865,0.7052 5.0354,0.7052 z m -1.0579,-6.1909 c -0.7897,-0.0524 -1.502,-0.1959 -2.1367,-0.4312 -0.635,-0.2349 -1.2062,-0.5745 -1.7138,-1.0187 -0.5077,-0.4439 -0.9171,-0.9338 -1.2272,-1.4692 -0.3104,-0.5358 -0.5218,-1.1038 -0.6346,-1.7045 -0.0284,-0.0785 -0.0496,-0.1567 -0.0635,-0.2353 -0.0142,-0.0782 -0.0213,-0.1567 -0.0213,-0.235 0,-0.0785 0,-0.1567 0,-0.2352 0,-0.0783 0,-0.1435 0,-0.1959 0,-0.5224 0.0848,-0.9992 0.254,-1.4301 0.1692,-0.4311 0.4371,-0.8164 0.8039,-1.156 0.3668,-0.3395 0.811,-0.5941 1.3328,-0.7639 0.5219,-0.1698 1.1356,-0.2548 1.8409,-0.2548 0.79,0 1.5091,0.1111 2.158,0.333 0.6488,0.222 1.2271,0.542 1.7351,0.9601 0.5077,0.4439 0.9167,0.9272 1.2271,1.4497 0.3104,0.5224 0.5218,1.1103 0.6347,1.7634 0,0.0261 0,0.0522 0,0.0782 0,0.0261 0.0141,0.0652 0.0422,0.1177 0,0.0261 0,0.0587 0,0.0978 0,0.0394 0,0.072 0,0.0981 0,0.0521 0,0.0912 0,0.1176 0,0.0261 0.0142,0.0652 0.0425,0.1173 0,0.0261 0,0.059 0,0.0981 0,0.0391 0,0.0717 0,0.0978 0,0.5224 -0.0918,1.0058 -0.2752,1.4499 -0.1831,0.4439 -0.4584,0.836 -0.8252,1.1756 -0.3665,0.3656 -0.811,0.64 -1.3328,0.8229 -0.5219,0.1828 -1.1356,0.2741 -1.8409,0.2741 z m 25.1779,5.5247 -0.5499,-3.2913 h 0.0845 c 0.4796,0.5746 1.0015,1.084 1.5658,1.5282 0.5641,0.4439 1.1707,0.8095 1.8196,1.097 0.6488,0.2874 1.3258,0.5028 2.031,0.6466 0.7053,0.1437 1.4389,0.2154 2.2006,0.2154 l 1.4811,0.0785 -1.1427,-6.8573 c -0.254,0.1046 -0.5077,0.2027 -0.7617,0.294 -0.2539,0.0915 -0.5076,0.1502 -0.7616,0.1763 -0.254,0.0524 -0.5148,0.085 -0.783,0.0981 -0.2678,0.013 -0.557,0.0195 -0.8674,0.0195 -1.072,0 -1.9887,-0.1437 -2.7504,-0.4311 -0.7617,-0.2872 -1.3683,-0.7314 -1.8196,-1.332 -0.4515,-0.5749 -0.8251,-1.2215 -1.1214,-1.9398 -0.2962,-0.7183 -0.5147,-1.5086 -0.6559,-2.3706 l -1.3963,-8.0325 h -7.7015 l 3.4274,20.101 z m 21.4118,-5.8773 -2.412,-14.2237 h -7.7014 l 2.412,14.2237 h -2.4965 l 1.0156,5.8773 h 2.4965 l 1.0579,6.0341 h 7.7015 l -1.0579,-6.0341 h 4.3585 l -1.0156,-5.8773 z"
           style="fill:#ffffff;fill-opacity:1;fill-rule:nonzero;stroke:none"
           id="path854" />
      </g>
      <path
         d="m 478.4037,437.0037 c 0.1783,-0.913 0.2154,-2.3009 0.1114,-4.1629 1.8587,3.0974 2.7879,4.6462 2.7879,4.6462 -1.0879,1.0333 -2.0171,1.6033 -2.7879,1.7099 -2.4522,0.3075 -6.8445,-0.2438 -10.7793,-1.264 4.0615,-0.6633 5.2943,-1.0845 10.6679,-0.9292"
         style="fill:#ffffff;fill-opacity:1;fill-rule:evenodd;stroke:none"
         id="path856" />
      <path
         d="m 446.233,449.1397 c 18.0953,1.1151 32.5049,-3.3083 55.1605,-15.4999 0.9817,0.559 1.4896,0.8193 1.5239,0.7807 -18.807,10.6257 -30.5155,15.5137 -43.8236,16.7264 -27.3217,2.3329 -60.4749,-3.8316 -117.7546,-13.8271 16.7826,1.8635 31.7495,2.5945 33.3043,2.3045 85.2075,-10.9099 127.9531,-16.4361 128.2368,-16.5781 3.6051,5.2211 10.2833,7.8477 18.5851,6.319 6.2861,-1.2728 10.9199,-5.5103 13.9017,-12.7123 -0.0542,4.034 -0.3425,5.0276 -0.4153,5.6501 -0.0785,1.1778 0.1754,1.6299 1.5301,1.4125 3.9011,-0.5916 11.7811,-3.3548 24.3094,-8.6236 -19.3904,11.1076 -38.4956,17.9963 -52.856,17.7673 -1.6134,-0.0431 -7.3624,-2.2425 -10.11,-3.6425 -60.8599,5.6497 -89.6066,8.1056 -91.2898,8.4747 -3.0319,2.5931 -3.5756,3.9144 -3.5682,5.2038 -0.0323,1.4522 14.4638,4.2772 43.2657,6.2445"
         style="fill:#ffffff;fill-opacity:1;fill-rule:evenodd;stroke:none"
         id="path858" />
      <path
         d="m 351.0405,427.955 c 8.9218,5.5006 15.2158,4.6343 23.4545,-0.0117 -5.5421,7.8058 -18.118,6.7023 -23.4545,0.0117"
         style="fill:#ffffff;fill-opacity:1;fill-rule:evenodd;stroke:none"
         id="path860" />
      <path
         d="m 22.2086,454.3911 v 1.9778 h 375.946 l -36.3889,-1.9778 z"
         style="fill:#ff0000;fill-opacity:1;fill-rule:evenodd;stroke:none"
         id="path862" />
      <path
         d="m 22.2086,450.2648 v 1.9774 h 337.7429 l -32.6911,-1.9774 z"
         style="fill:#ff0000;fill-opacity:1;fill-rule:evenodd;stroke:none"
         id="path864" />
      <g
         id="g866">
        <path
           d="m 34.4293,435.3097 4.6548,-17.9458 10.7904,17.9458 h 9.0133 L 40.2265,405.7656 h -6.4319 l -8.3786,29.5441 z m 33.3026,-9.443 -3.4277,-20.1011 h -7.7014 l 3.4276,20.1011 z m -1.8196,11.7156 c 0.5358,-0.0522 1.0225,-0.1633 1.4599,-0.3331 0.4371,-0.1698 0.8251,-0.4113 1.1636,-0.7248 0.3384,-0.3135 0.5924,-0.6727 0.7616,-1.0775 0.1693,-0.405 0.254,-0.8424 0.254,-1.3127 0,-0.0261 0,-0.0522 0,-0.0782 0,-0.0264 0,-0.0525 0,-0.0786 0,-0.026 0,-0.0521 0,-0.0782 0,-0.0261 0,-0.0524 0,-0.0785 0,-0.0261 0,-0.0456 0,-0.0587 0,-0.013 0,-0.0195 0,-0.0195 -0.0283,-0.0261 -0.0425,-0.0457 -0.0425,-0.059 0,-0.013 0,-0.0196 0,-0.0196 0,-0.026 0,-0.0521 0,-0.0782 0,-0.0261 0,-0.0522 0,-0.0785 -0.0845,-0.5485 -0.2749,-1.0579 -0.5712,-1.5282 -0.2962,-0.47 -0.684,-0.9011 -1.1636,-1.2929 -0.508,-0.3917 -1.0298,-0.6857 -1.5658,-0.8815 -0.5358,-0.1959 -1.1002,-0.294 -1.6926,-0.294 -0.536,0 -1.0296,0.0783 -1.4811,0.235 -0.4513,0.1568 -0.8462,0.4051 -1.1846,0.7447 -0.3388,0.3396 -0.5925,0.7117 -0.762,1.1165 -0.1692,0.4051 -0.2537,0.8555 -0.2537,1.3519 0,0.0521 0,0.0981 0,0.1372 0,0.0391 0,0.0717 0,0.0981 0,0.0521 0,0.1043 0,0.1564 0,0.0525 0.0142,0.1046 0.0423,0.1568 0.0847,0.5488 0.2749,1.0582 0.5711,1.5281 0.2963,0.4703 0.6982,0.9015 1.2062,1.2932 0.4796,0.3918 0.9944,0.6857 1.5446,0.8816 0.5499,0.1959 1.1214,0.2939 1.7138,0.2939 z m 14.5987,-11.7156 -0.5499,-3.2916 h 0.0845 c 0.4796,0.5749 1.0015,1.0842 1.5658,1.5281 0.5641,0.4442 1.1707,0.8099 1.8196,1.0973 0.6488,0.2872 1.3258,0.5029 2.031,0.6466 0.7053,0.1435 1.4389,0.2155 2.2006,0.2155 l 1.4811,0.0782 -1.1427,-6.857 c -0.254,0.1046 -0.5077,0.2024 -0.7617,0.2939 -0.2539,0.0913 -0.5076,0.1503 -0.7616,0.1763 -0.254,0.0522 -0.5148,0.0848 -0.783,0.0978 -0.2678,0.0131 -0.557,0.0199 -0.8674,0.0199 -1.072,0 -1.9887,-0.1437 -2.7504,-0.4312 -0.7617,-0.2874 -1.3683,-0.7313 -1.8196,-1.3322 -0.4515,-0.5746 -0.8251,-1.2212 -1.1214,-1.9395 -0.2962,-0.7183 -0.515,-1.5086 -0.6559,-2.3706 l -1.3963,-8.0326 h -7.7018 l 3.4277,20.1011 z m 27.04,-0.5094 -1.0157,-6.0344 c -0.2539,0.1568 -0.5218,0.3135 -0.8039,0.4703 -0.2823,0.1567 -0.5785,0.3004 -0.8886,0.4311 -0.3104,0.1304 -0.635,0.235 -0.9734,0.3132 -0.3385,0.0786 -0.6911,0.1177 -1.0579,0.1177 -0.7334,0 -1.4386,-0.1177 -2.1158,-0.3526 -0.6769,-0.235 -1.3119,-0.5877 -1.904,-1.0579 -0.5925,-0.4703 -1.065,-0.9993 -1.4177,-1.5869 -0.3526,-0.5879 -0.5853,-1.2214 -0.6981,-1.9006 -0.0284,-0.0782 -0.0496,-0.1565 -0.0635,-0.235 -0.0142,-0.0782 -0.0213,-0.1568 -0.0213,-0.235 0,-0.0785 0,-0.1567 0,-0.2353 0,-0.0782 0,-0.1437 0,-0.1958 0,-0.6007 0.1058,-1.1495 0.3175,-1.6455 0.2115,-0.4964 0.5289,-0.9275 0.9519,-1.2932 0.4232,-0.3657 0.917,-0.6401 1.4811,-0.8229 0.5644,-0.1828 1.199,-0.2741 1.9043,-0.2741 0.1128,0 0.2256,0 0.3384,0 0.1129,0 0.2257,0.013 0.3385,0.0391 0.0564,0 0.1128,0 0.1692,0 0.0564,0 0.127,0.013 0.2118,0.0391 0.0564,0 0.1128,0.007 0.1692,0.0196 0.0564,0.013 0.1128,0.0326 0.1692,0.0587 0.2257,0.0524 0.4584,0.1176 0.6982,0.1961 0.2398,0.0782 0.4725,0.1698 0.6982,0.2741 0.2259,0.1046 0.4445,0.2155 0.6559,0.3331 0.2118,0.1176 0.4161,0.2548 0.6137,0.4116 l -1.0156,-5.9559 c -0.2821,-0.1568 -0.557,-0.2809 -0.8252,-0.3722 -0.2679,-0.0915 -0.5431,-0.1633 -0.8252,-0.2157 -0.1411,-0.0522 -0.282,-0.0913 -0.4232,-0.1174 -0.1409,-0.0263 -0.282,-0.0524 -0.4232,-0.0785 -0.1692,-0.0521 -0.3243,-0.0912 -0.4654,-0.1176 -0.1409,-0.0261 -0.2821,-0.0522 -0.423,-0.0782 -0.1975,-0.0261 -0.388,-0.0457 -0.5714,-0.0587 -0.1834,-0.0131 -0.3736,-0.0329 -0.5712,-0.059 -0.0848,0 -0.1763,0 -0.275,0 -0.0989,0 -0.1905,-0.013 -0.2752,-0.0391 -0.1128,0 -0.2115,0 -0.2962,0 -0.0845,0 -0.1693,0 -0.2537,0 -1.467,0 -2.8001,0.1959 -3.9989,0.5879 -1.199,0.3917 -2.2921,0.9924 -3.2797,1.8023 -0.9589,0.8098 -1.6784,1.7436 -2.158,2.8014 -0.4796,1.0582 -0.7194,2.2403 -0.7194,3.5462 0,0.1307 0,0.2679 0,0.4116 0,0.1434 0.0142,0.2806 0.0425,0.4113 0.0281,0.1307 0.0493,0.2679 0.0635,0.4113 0.0139,0.1437 0.0352,0.2939 0.0635,0.4507 0.2821,1.6197 0.8249,3.0824 1.6291,4.3886 0.8039,1.3059 1.883,2.4684 3.2371,3.4872 1.3258,1.0188 2.7505,1.783 4.2738,2.2924 1.5234,0.5093 3.1456,0.7639 4.8663,0.7639 0.4515,0 0.8886,-0.0261 1.3118,-0.0782 0.4233,-0.0525 0.8465,-0.1307 1.2697,-0.2353 0.3949,-0.1043 0.7826,-0.222 1.1636,-0.3526 0.3807,-0.1307 0.7546,-0.3005 1.1214,-0.5094 z m 28.6053,0.5094 -3.4274,-20.1011 h -7.7015 l 0.3807,2.2335 h -0.0844 c -0.3388,-0.4442 -0.7195,-0.8229 -1.1427,-1.1365 -0.4232,-0.3132 -0.8745,-0.5745 -1.3541,-0.7835 -0.4796,-0.2089 -0.9663,-0.3852 -1.4598,-0.5289 -0.4938,-0.1437 -0.9944,-0.2548 -1.5024,-0.3331 -0.1409,-0.026 -0.2821,-0.0459 -0.4232,-0.0589 -0.1409,-0.0131 -0.2821,-0.0196 -0.4229,-0.0196 -0.0565,0 -0.12,0 -0.1905,0 -0.0706,0 -0.1341,-0.013 -0.1905,-0.0391 -0.0564,0 -0.1199,0 -0.1905,0 -0.0703,0 -0.1338,0 -0.1902,0 -1.4389,0 -2.7224,0.2089 -3.8509,0.627 -1.1285,0.4178 -2.1016,1.0579 -2.9197,1.9199 -0.8464,0.862 -1.474,1.8156 -1.883,2.8605 -0.4091,1.0448 -0.6137,2.1809 -0.6137,3.4089 0,0.1304 0,0.2741 0,0.4309 0,0.1567 0.0141,0.3135 0.0422,0.4702 0,0.1568 0.0142,0.3136 0.0425,0.4703 0.0281,0.1568 0.0564,0.3135 0.0845,0.47 0.2256,1.4369 0.6982,2.7822 1.4176,4.036 0.7194,1.2537 1.6716,2.4032 2.8565,3.448 1.1846,1.0712 2.4823,1.8743 3.8928,2.4098 1.4105,0.5357 2.92,0.8033 4.5278,0.8033 0.6208,0 1.2274,-0.0587 1.8198,-0.1763 0.5925,-0.1177 1.1707,-0.2809 1.7348,-0.4898 0.5641,-0.209 1.0721,-0.4768 1.5234,-0.8034 0.4512,-0.3262 0.8464,-0.7118 1.1848,-1.1557 l 0.3385,2.0376 z m -13.3294,-5.525 c -0.79,-0.0522 -1.5024,-0.1959 -2.137,-0.4309 -0.6347,-0.2353 -1.2059,-0.5749 -1.7139,-1.0188 -0.5077,-0.4442 -0.9167,-0.934 -1.2271,-1.4694 -0.3101,-0.5355 -0.5218,-1.1036 -0.6347,-1.7045 -0.028,-0.0783 -0.0493,-0.1568 -0.0635,-0.235 -0.0141,-0.0785 -0.0212,-0.1568 -0.0212,-0.2353 0,-0.0782 0,-0.1565 0,-0.235 0,-0.0782 0,-0.1437 0,-0.1959 0,-0.5224 0.0847,-0.9992 0.254,-1.43 0.1692,-0.4312 0.4374,-0.8164 0.8042,-1.156 0.3665,-0.3396 0.8109,-0.5944 1.3328,-0.7642 0.5219,-0.1698 1.1356,-0.2546 1.8408,-0.2546 0.7898,0 1.5092,0.1111 2.158,0.3331 0.6489,0.2219 1.2272,0.542 1.7348,0.9598 0.508,0.4442 0.917,0.9275 1.2274,1.4499 0.3102,0.5225 0.5219,1.1101 0.6347,1.7632 0,0.0261 0,0.0524 0,0.0785 0,0.0261 0.0139,0.0652 0.0423,0.1174 0,0.0263 0,0.0589 0,0.098 0,0.0391 0,0.0717 0,0.0981 0,0.0522 0,0.0913 0,0.1174 0,0.026 0.0141,0.0654 0.0422,0.1176 0,0.0261 0,0.0587 0,0.0978 0,0.0394 0,0.072 0,0.0981 0,0.5224 -0.0916,1.0057 -0.275,1.4499 -0.1834,0.4439 -0.4583,0.8357 -0.8251,1.1752 -0.3668,0.366 -0.811,0.6401 -1.3329,0.8229 -0.5218,0.1829 -1.1355,0.2744 -1.8408,0.2744 z m 26.151,5.525 -0.4229,-2.5078 h 0.0845 c 0.5643,0.5224 1.1284,0.9796 1.6925,1.3714 0.5644,0.3917 1.1569,0.7183 1.7774,0.9796 0.6207,0.235 1.2554,0.4178 1.9043,0.5485 0.6488,0.1307 1.3257,0.1959 2.031,0.1959 0.79,0 1.5304,-0.0782 2.2215,-0.235 0.6914,-0.1567 1.3331,-0.392 1.9256,-0.7053 0.5924,-0.3135 1.1001,-0.7055 1.5233,-1.1755 0.4232,-0.4702 0.7759,-1.0448 1.0579,-1.724 0.4232,0.5485 0.8887,1.0383 1.3964,1.4692 0.5079,0.4311 1.072,0.8033 1.6925,1.1168 0.6208,0.3135 1.2484,0.5681 1.8831,0.764 0.6349,0.1958 1.2906,0.333 1.9678,0.4116 0.0564,0 0.1057,0 0.148,0 0.0425,0 0.0776,0.013 0.106,0.0391 0.0564,0 0.1057,0 0.1479,0 0.0423,0 0.0777,0 0.1058,0 0.0564,0 0.1057,0 0.1482,0 0.0423,0 0.0916,0.013 0.148,0.0391 0.0283,0 0.0706,0 0.127,0 0.0564,0 0.1128,0 0.1692,0 1.1568,0 2.1371,-0.1372 2.941,-0.4113 0.8039,-0.2744 1.4317,-0.6727 1.883,-1.1951 0.4796,-0.5224 0.8394,-1.1299 1.0792,-1.8221 0.2398,-0.6922 0.3597,-1.4695 0.3597,-2.3315 0,-0.1828 -0.007,-0.3592 -0.0213,-0.5289 -0.0142,-0.1698 -0.0351,-0.3462 -0.0635,-0.529 0,-0.1043 -0.007,-0.2024 -0.021,-0.2939 -0.0141,-0.0913 -0.0212,-0.1764 -0.0212,-0.2546 -0.0284,-0.1046 -0.0493,-0.2024 -0.0635,-0.2939 -0.0142,-0.0913 -0.0213,-0.1894 -0.0213,-0.294 l -2.2002,-12.7344 h -7.7015 l 1.6504,9.5998 c 0,0 0,0.0196 0,0.059 0,0.0391 0,0.0717 0,0.0978 0,0.0522 0.007,0.0981 0.0209,0.1372 0.0142,0.0391 0.0355,0.0848 0.0635,0.1372 0,0.1043 0.007,0.2154 0.0213,0.3331 0.0142,0.1173 0.0351,0.2284 0.0635,0.333 0,0.1304 0.007,0.2546 0.021,0.3722 0.0141,0.1174 0.0354,0.2285 0.0635,0.3331 0,0.0261 0,0.0522 0,0.0782 0,0.0261 0.0141,0.0655 0.0425,0.1177 0,0.0261 0,0.0587 0,0.0978 0,0.0394 0,0.072 0,0.098 0,0.0522 0,0.1112 0,0.1764 0,0.0652 0,0.1372 0,0.2154 0,0.3657 -0.0425,0.7183 -0.127,1.0579 -0.0848,0.3396 -0.2118,0.64 -0.381,0.9014 -0.1692,0.2872 -0.4232,0.5029 -0.7617,0.6466 -0.3384,0.1434 -0.7616,0.2154 -1.2693,0.2154 -0.7053,0 -1.319,-0.1046 -1.8408,-0.3135 -0.5219,-0.2089 -0.938,-0.5355 -1.2484,-0.9796 -0.3101,-0.4179 -0.5712,-0.8621 -0.7827,-1.3323 -0.2117,-0.47 -0.3738,-0.9664 -0.4867,-1.4888 -0.0283,-0.1046 -0.0564,-0.2157 -0.0847,-0.3331 -0.0281,-0.1176 -0.0564,-0.2418 -0.0845,-0.3721 -0.0283,-0.1046 -0.0493,-0.2158 -0.0635,-0.3331 -0.0142,-0.1177 -0.0212,-0.2288 -0.0212,-0.3331 l -1.6504,-9.5216 h -7.7014 l 1.6503,9.5998 c 0,0 0,0.0196 0,0.059 0,0.0391 0,0.0717 0,0.0978 0,0.0522 0.007,0.0981 0.0213,0.1372 0.0139,0.0391 0.0351,0.0717 0.0635,0.0978 0,0.1307 0.007,0.2614 0.0209,0.392 0.0142,0.1307 0.0355,0.2611 0.0635,0.3918 0.0284,0.1307 0.0494,0.2679 0.0635,0.4113 0.0142,0.1437 0.0355,0.2809 0.0635,0.4116 0,0.0261 0,0.0521 0,0.0782 0,0.0261 0,0.0525 0,0.0785 0,0 0,0.0131 0,0.0391 0,0.0261 0,0.0522 0,0.0783 0,0.0263 0,0.0524 0,0.0785 0,0.0261 0,0.0522 0,0.0782 0,0 0,0.0131 0,0.0394 0,0.0261 0,0.0522 0,0.0783 0,0.3917 -0.0493,0.7642 -0.1479,1.1168 -0.099,0.3527 -0.2328,0.6857 -0.4023,0.999 -0.1973,0.2874 -0.4725,0.5093 -0.8251,0.6661 -0.3527,0.1568 -0.811,0.2353 -1.3751,0.2353 -0.6208,0 -1.1637,-0.0981 -1.6294,-0.294 -0.4654,-0.1959 -0.8532,-0.4898 -1.1636,-0.8816 -0.2821,-0.3917 -0.5219,-0.8033 -0.7192,-1.2342 -0.1975,-0.4311 -0.3668,-0.8818 -0.5079,-1.3518 -0.0281,-0.1828 -0.0635,-0.3526 -0.1058,-0.5094 -0.0422,-0.1567 -0.0776,-0.3135 -0.1057,-0.4703 -0.0283,-0.1567 -0.0564,-0.3135 -0.0847,-0.4702 -0.0281,-0.1568 -0.0565,-0.3005 -0.0845,-0.4309 l -1.6503,-9.5216 h -7.7015 l 3.4274,20.1011 z"
           style="fill:#000000;fill-opacity:1;fill-rule:nonzero;stroke:none"
           id="path868" />
        <path
           d="M 214.8214,410.8986 H 203.396 l -3.0889,-5.133 h -8.8018 l 17.3072,29.5441 h 9.0555 l 6.9823,-29.5441 h -8.8441 z m -1.2272,5.8774 -1.7773,9.4039 h -0.0845 l -5.0357,-9.4039 z m 16.9685,9.0907 h 7.7017 l -1.8198,-10.7362 c -0.0281,-0.1829 -0.0493,-0.3462 -0.0632,-0.4899 -0.0142,-0.1437 -0.0354,-0.2809 -0.0635,-0.4113 -0.0284,-0.1307 -0.0425,-0.2548 -0.0425,-0.3724 0,-0.1174 0.0141,-0.2416 0.0425,-0.3722 0,-0.4179 0.0564,-0.7969 0.1692,-1.1362 0.1128,-0.3396 0.2821,-0.64 0.5077,-0.9014 0.2256,-0.2611 0.5502,-0.4504 0.9734,-0.568 0.4229,-0.1177 0.9451,-0.1764 1.5656,-0.1764 0.79,0 1.4598,0.0978 2.01,0.294 0.55,0.1959 0.9944,0.5029 1.3329,0.9207 0.3104,0.3917 0.5712,0.849 0.7829,1.3714 0.2115,0.5224 0.3736,1.1103 0.4867,1.7631 l 1.8196,10.8148 h 7.7014 l -2.0735,-12.1076 c -0.2821,-1.698 -0.79,-3.1218 -1.5233,-4.271 -0.7336,-1.1495 -1.721,-2.0245 -2.9622,-2.6255 -1.213,-0.5745 -2.532,-1.0122 -3.9566,-1.3124 -1.4245,-0.3005 -2.9549,-0.4507 -4.591,-0.4507 -1.4673,0 -2.8072,0.1176 -4.0201,0.3526 -1.2133,0.2353 -2.3134,0.5879 -3.3007,1.0579 -0.9592,0.4703 -1.6855,1.156 -2.1793,2.0571 -0.4938,0.9014 -0.7404,2.005 -0.7404,3.3112 0,0.1306 0,0.2676 0,0.4113 0,0.1437 0.0139,0.2939 0.0423,0.4507 0,0.1307 0.0141,0.2741 0.0422,0.4308 0.0283,0.1568 0.0564,0.3266 0.0847,0.5094 z m 35.4183,-5.8777 -2.412,-14.2234 h -7.7014 l 2.412,14.2234 h -2.4965 l 1.0154,5.8777 h 2.4967 l 1.0579,6.0341 h 7.7015 l -1.0579,-6.0341 h 4.3585 l -1.0156,-5.8777 z m 19.423,6.5438 c 1.5798,-0.0524 3.0467,-0.2744 4.4008,-0.6661 1.3541,-0.3921 2.5812,-0.9797 3.6817,-1.7635 1.1001,-0.7835 1.9323,-1.724 2.4964,-2.821 0.5644,-1.0973 0.8465,-2.3641 0.8465,-3.8007 0,-0.0785 0,-0.1502 0,-0.2157 0,-0.0652 0,-0.1372 0,-0.2154 -0.0284,-0.0522 -0.0423,-0.1177 -0.0423,-0.1959 0,-0.0785 0,-0.1568 0,-0.2353 0,-0.0782 -0.007,-0.1565 -0.0212,-0.235 -0.0142,-0.0782 -0.0213,-0.1437 -0.0213,-0.1959 -0.0281,-0.0782 -0.0493,-0.1567 -0.0635,-0.2349 -0.0139,-0.0786 -0.021,-0.1568 -0.021,-0.2353 -0.282,-1.698 -0.8674,-3.2066 -1.756,-4.5255 -0.8887,-1.3193 -2.0665,-2.4361 -3.5334,-3.3503 -1.467,-0.9403 -3.0045,-1.6325 -4.6126,-2.0767 -1.6081,-0.4442 -3.2864,-0.6661 -5.0354,-0.6661 -1.5798,0 -3.0467,0.1828 -4.4008,0.5485 -1.3541,0.3657 -2.5815,0.9275 -3.6816,1.6849 -1.1002,0.7577 -1.9253,1.6849 -2.4755,2.7819 -0.55,1.0973 -0.8252,2.3641 -0.8252,3.801 0,0.1304 0,0.2676 0,0.4113 0,0.1437 0.0142,0.294 0.0425,0.4507 0,0.1568 0.0139,0.3135 0.0422,0.47 0.0281,0.1568 0.0565,0.3135 0.0845,0.4703 0.2823,1.6979 0.8606,3.2065 1.7351,4.5258 0.8745,1.3189 2.0452,2.4488 3.5121,3.3894 1.467,0.9402 3.0045,1.6455 4.6126,2.1157 1.6078,0.4703 3.2865,0.7053 5.0354,0.7053 z m -1.0579,-6.1911 c -0.7897,-0.0522 -1.502,-0.1959 -2.137,-0.4309 -0.6347,-0.2353 -1.2059,-0.5749 -1.7135,-1.0188 -0.508,-0.4442 -0.917,-0.934 -1.2274,-1.4694 -0.3102,-0.5355 -0.5219,-1.1036 -0.6347,-1.7045 -0.0281,-0.0783 -0.0493,-0.1568 -0.0635,-0.235 -0.0139,-0.0785 -0.021,-0.1568 -0.021,-0.2353 0,-0.0782 0,-0.1565 0,-0.235 0,-0.0782 0,-0.1437 0,-0.1959 0,-0.5224 0.0845,-0.9992 0.2537,-1.43 0.1695,-0.4312 0.4374,-0.8164 0.8042,-1.156 0.3665,-0.3396 0.811,-0.5944 1.3328,-0.7642 0.5219,-0.1698 1.1356,-0.2546 1.8409,-0.2546 0.7897,0 1.5091,0.1111 2.158,0.3331 0.6488,0.2219 1.2271,0.542 1.7351,0.9598 0.5077,0.4442 0.9167,0.9275 1.2271,1.4499 0.3101,0.5225 0.5218,1.1101 0.6347,1.7632 0,0.0261 0,0.0524 0,0.0785 0,0.0261 0.0141,0.0652 0.0422,0.1174 0,0.0263 0,0.0589 0,0.098 0,0.0391 0,0.0717 0,0.0981 0,0.0522 0,0.0913 0,0.1174 0,0.026 0.0142,0.0654 0.0425,0.1176 0,0.0261 0,0.0587 0,0.0978 0,0.0394 0,0.072 0,0.0981 0,0.5224 -0.0918,1.0057 -0.2752,1.4499 -0.1834,0.4439 -0.4584,0.8357 -0.8252,1.1752 -0.3668,0.366 -0.811,0.6401 -1.3328,0.8229 -0.5219,0.1829 -1.1356,0.2744 -1.8409,0.2744 z m 34.3182,4.898 -3.3854,-4.5454 c -0.0844,0.0261 -0.1763,0.0524 -0.2749,0.0785 -0.0987,0.0261 -0.1905,0.0652 -0.275,0.1174 -0.1128,0.0263 -0.2188,0.0589 -0.3175,0.0981 -0.0986,0.0391 -0.2044,0.0717 -0.3175,0.098 -0.1972,0.0783 -0.4158,0.1503 -0.6556,0.2155 -0.2398,0.0652 -0.4725,0.1241 -0.6985,0.1763 -0.1128,0 -0.2327,0.007 -0.3594,0.0195 -0.127,0.0131 -0.2611,0.0326 -0.4022,0.0587 -0.0564,0 -0.1129,0 -0.1693,0 -0.0564,0 -0.1128,0.0131 -0.1692,0.0394 -0.0564,0 -0.1128,0 -0.1692,0 -0.0564,0 -0.1128,0 -0.1692,0 -0.0284,0 -0.0635,0 -0.1058,0 -0.0425,0 -0.0918,0 -0.1482,0 -0.0281,-0.0263 -0.0635,-0.0394 -0.1058,-0.0394 -0.0422,0 -0.0915,0 -0.1479,0 -0.0848,-0.0261 -0.1695,-0.0456 -0.254,-0.0587 -0.0848,-0.013 -0.1692,-0.0195 -0.254,-0.0195 -0.1973,-0.0522 -0.3807,-0.1177 -0.5499,-0.1959 -0.1695,-0.0785 -0.3388,-0.1698 -0.508,-0.2744 -0.1692,-0.1043 -0.2962,-0.2219 -0.3807,-0.3526 -0.0847,-0.1307 -0.1411,-0.2741 -0.1692,-0.4309 0,-0.0263 0,-0.0459 0,-0.0589 0,-0.0131 0,-0.0326 0,-0.0587 0,-0.0261 0,-0.0457 0,-0.0587 0,-0.0133 0,-0.0198 0,-0.0198 0,-0.1829 0.0422,-0.3527 0.1267,-0.5094 0.0848,-0.1565 0.2259,-0.2872 0.4232,-0.3918 0.1976,-0.1043 0.402,-0.1893 0.6137,-0.2545 0.2115,-0.0655 0.4442,-0.1242 0.6982,-0.1763 0.0845,-0.0264 0.1763,-0.0525 0.2749,-0.0786 0.099,-0.026 0.2047,-0.0391 0.3175,-0.0391 0.1128,-0.0261 0.2186,-0.0456 0.3172,-0.0587 0.099,-0.013 0.1905,-0.0198 0.2753,-0.0198 0,0 0,-0.007 0,-0.0196 0,-0.013 0.0139,-0.0195 0.0422,-0.0195 0,0 0,0 0,0 0,0 0,0 0,0 0,0 0.007,0 0.0213,0 0.0139,0 0.0351,0 0.0635,0 0.7616,-0.1568 1.4669,-0.3657 2.1157,-0.6268 0.6489,-0.2613 1.2272,-0.5748 1.7348,-0.9405 0.5077,-0.3657 0.8887,-0.8229 1.1427,-1.3714 0.2537,-0.5485 0.3807,-1.1886 0.3807,-1.9199 0,-0.1046 0,-0.2024 0,-0.294 0,-0.0912 0,-0.1763 0,-0.2545 0,-0.0785 -0.007,-0.1633 -0.021,-0.2548 -0.0142,-0.0913 -0.0354,-0.1894 -0.0635,-0.294 -0.1976,-1.2016 -0.5995,-2.2399 -1.2061,-3.115 -0.6066,-0.875 -1.4035,-1.6129 -2.3908,-2.2138 -0.9592,-0.5746 -1.9678,-1.0253 -3.0257,-1.3519 -1.0579,-0.3265 -2.1651,-0.542 -3.3216,-0.6463 -0.0848,0 -0.1624,0 -0.2327,0 -0.0706,0 -0.1341,-0.0133 -0.1905,-0.0394 -0.0848,0 -0.1622,0 -0.2327,0 -0.0706,0 -0.1341,0 -0.1905,0 -0.0564,0 -0.1199,0 -0.1905,0 -0.0703,0 -0.1338,-0.013 -0.1902,-0.0391 -0.0564,0 -0.1199,0 -0.1905,0 -0.0706,0 -0.1341,0 -0.1905,0 -0.7897,0 -1.5517,0.0456 -2.285,0.1372 -0.7336,0.0913 -1.4528,0.2415 -2.158,0.4507 -0.7053,0.1828 -1.3825,0.4113 -2.0313,0.6857 -0.6489,0.2741 -1.2694,0.5941 -1.8618,0.9598 l 3.6391,5.0548 c 0.2256,-0.209 0.4725,-0.3986 0.7404,-0.5684 0.2682,-0.1698 0.5715,-0.3331 0.9099,-0.4895 0.3104,-0.1568 0.6347,-0.3005 0.9731,-0.4312 0.3388,-0.1307 0.6914,-0.235 1.0579,-0.3135 0.1693,-0.0522 0.3388,-0.0978 0.508,-0.1372 0.1692,-0.0391 0.3385,-0.0717 0.5077,-0.0978 0.0847,-0.0261 0.1692,-0.0456 0.254,-0.059 0.0844,-0.013 0.1834,-0.0195 0.2962,-0.0195 0.0845,0 0.1692,0 0.2537,0 0.0848,0 0.1695,0 0.254,0 0.0564,0 0.1199,0 0.1905,0 0.0706,0 0.1479,0 0.2327,0 0.0845,0 0.1692,0.013 0.254,0.0394 0.0845,0.0261 0.1692,0.0521 0.2537,0.0782 0.1976,0.0522 0.388,0.1177 0.5714,0.1959 0.1832,0.0785 0.3595,0.1698 0.529,0.2744 0.1692,0.1307 0.3101,0.2741 0.4229,0.4309 0.1128,0.1567 0.1834,0.3265 0.2118,0.5093 0,0.0261 0,0.046 0,0.059 0,0.013 0,0.0326 0,0.0587 0,0.0261 0,0.0456 0,0.0587 0,0.013 0,0.0328 0,0.0589 0,0.235 -0.0706,0.4439 -0.2118,0.6268 -0.1409,0.1828 -0.3384,0.3265 -0.5924,0.4311 -0.2821,0.1043 -0.5783,0.2024 -0.8887,0.294 -0.3101,0.0912 -0.6627,0.1893 -1.0576,0.2936 -0.1131,0 -0.2259,0.0131 -0.3387,0.0394 -0.1128,0.0261 -0.2257,0.0522 -0.3385,0.0783 -0.1128,0.0261 -0.2256,0.0521 -0.3384,0.0782 -0.1129,0.0264 -0.2257,0.0525 -0.3385,0.0785 -0.0283,0 -0.0567,0 -0.0848,0 -0.0283,0 -0.0564,0 -0.0847,0 -0.0281,0 -0.0564,0.007 -0.0845,0.0196 -0.0283,0.013 -0.0564,0.0326 -0.0847,0.0587 -0.5361,0.1306 -1.0367,0.3004 -1.5021,0.5094 -0.4655,0.2091 -0.9099,0.4572 -1.3332,0.7446 -0.4229,0.2872 -0.7333,0.6792 -0.9309,1.1755 -0.1972,0.4961 -0.282,1.084 -0.2537,1.7632 0,0.0782 0,0.1633 0,0.2545 0,0.0916 0,0.1894 0,0.294 0,0.0785 0.007,0.1633 0.021,0.2548 0.0142,0.0913 0.0355,0.1894 0.0635,0.2937 0.1976,1.0973 0.5783,2.0701 1.1427,2.9191 0.5641,0.849 1.3116,1.5611 2.2427,2.1356 0.9309,0.5746 1.897,1.0253 2.8985,1.3519 1.0014,0.3265 2.0384,0.542 3.1104,0.6466 0.0564,0 0.1128,0 0.1692,0 0.0565,0 0.1268,0.013 0.2115,0.0391 0.0564,0 0.1128,0 0.1692,0 0.0565,0 0.1129,0 0.1693,0 0.0564,0 0.1128,0 0.1692,0 0.0564,0 0.1128,0.013 0.1692,0.0391 0.0567,0 0.1131,0 0.1695,0 0.0564,0 0.1129,0 0.1693,0 0.6205,0 1.2271,-0.0261 1.8195,-0.0782 0.5925,-0.0525 1.1849,-0.1307 1.7773,-0.2353 0.5925,-0.1043 1.1637,-0.235 1.7139,-0.3918 0.5499,-0.1567 1.093,-0.3526 1.629,-0.5876 z m 12.3137,0.627 -0.3806,-2.2728 h 0.0844 c 0.3388,0.3656 0.7195,0.7052 1.1427,1.0187 0.4232,0.3135 0.8886,0.5879 1.3963,0.8229 0.4796,0.235 0.9734,0.4247 1.4811,0.5681 0.5077,0.1437 1.0298,0.2548 1.5659,0.3331 0.0564,0 0.1128,0.007 0.1692,0.0198 0.0564,0.013 0.1267,0.0196 0.2115,0.0196 0.0564,0.026 0.1128,0.0391 0.1692,0.0391 0.0564,0 0.1128,0 0.1692,0 0.0564,0 0.1199,0 0.1905,0 0.0706,0 0.1341,0.013 0.1905,0.0391 0.0564,0 0.1199,0 0.1905,0 0.0703,0 0.1338,0 0.1902,0 1.4389,0 2.7224,-0.2154 3.8509,-0.6466 1.1284,-0.4308 2.1016,-1.0774 2.9196,-1.9394 0.8181,-0.8621 1.4389,-1.8222 1.8621,-2.88 0.423,-1.0579 0.6347,-2.2009 0.6347,-3.4286 0,-0.0782 0,-0.1567 0,-0.2349 0,-0.0786 0,-0.1568 0,-0.2353 -0.0283,-0.0783 -0.0422,-0.1568 -0.0422,-0.235 0,-0.0785 0,-0.1568 0,-0.2353 -0.0284,-0.1565 -0.0496,-0.3132 -0.0635,-0.47 -0.0142,-0.1567 -0.0355,-0.3135 -0.0635,-0.4702 -0.254,-1.4366 -0.7407,-2.782 -1.4601,-4.036 -0.7192,-1.2538 -1.6714,-2.4032 -2.8562,-3.4481 -1.1849,-1.0448 -2.4755,-1.8218 -3.8719,-2.3312 -1.3963,-0.5094 -2.8987,-0.7642 -4.5068,-0.7642 -0.6205,0 -1.2271,0.0522 -1.8195,0.1568 -0.5925,0.1046 -1.1708,0.2613 -1.7348,0.4702 -0.5644,0.1568 -1.0721,0.3983 -1.5234,0.7248 -0.4515,0.3266 -0.8464,0.7118 -1.1849,1.156 l -2.0735,-11.8726 h -7.7015 l 5.1625,30.132 z m 3.7662,-5.525 c -0.7898,-0.0522 -1.5021,-0.1959 -2.1368,-0.4309 -0.6347,-0.2353 -1.2061,-0.5749 -1.7138,-1.0188 -0.508,-0.4442 -0.917,-0.934 -1.2271,-1.4694 -0.3104,-0.5355 -0.5219,-1.1036 -0.635,-1.7045 -0.0281,-0.0783 -0.0493,-0.1568 -0.0632,-0.235 -0.0142,-0.0785 -0.0213,-0.1568 -0.0213,-0.2353 0,-0.0782 0,-0.1565 0,-0.235 0,-0.0782 0,-0.1437 0,-0.1959 0,-0.5224 0.0845,-0.9992 0.254,-1.43 0.1692,-0.4312 0.4371,-0.8164 0.8039,-1.156 0.3668,-0.3396 0.811,-0.5944 1.3329,-0.7642 0.5218,-0.1698 1.1355,-0.2546 1.8408,-0.2546 0.79,0 1.5091,0.1111 2.158,0.3331 0.6488,0.2219 1.2271,0.542 1.7351,0.9598 0.5077,0.4442 0.9167,0.9275 1.2271,1.4499 0.3104,0.5225 0.5219,1.1101 0.6347,1.7632 0,0.0261 0,0.0524 0,0.0785 0,0.0261 0.0142,0.0652 0.0422,0.1174 0,0.0263 0,0.0589 0,0.098 0,0.0391 0,0.0717 0,0.0981 0,0.0522 0,0.0913 0,0.1174 0,0.026 0.0142,0.0654 0.0425,0.1176 0,0.0261 0,0.0587 0,0.0978 0,0.0394 0,0.072 0,0.0981 0,0.5224 -0.0918,1.0057 -0.2752,1.4499 -0.1831,0.4439 -0.4584,0.8357 -0.8252,1.1752 -0.3665,0.366 -0.811,0.6401 -1.3328,0.8229 -0.5219,0.1829 -1.1356,0.2744 -1.8408,0.2744 z m 29.2402,6.1911 c 1.5797,-0.0524 3.0469,-0.2744 4.401,-0.6661 1.3542,-0.3921 2.5813,-0.9797 3.6814,-1.7635 1.1001,-0.7835 1.9324,-1.724 2.4968,-2.821 0.5641,-1.0973 0.8461,-2.3641 0.8461,-3.8007 0,-0.0785 0,-0.1502 0,-0.2157 0,-0.0652 0,-0.1372 0,-0.2154 -0.0281,-0.0522 -0.0422,-0.1177 -0.0422,-0.1959 0,-0.0785 0,-0.1568 0,-0.2353 0,-0.0782 -0.007,-0.1565 -0.0213,-0.235 -0.0142,-0.0782 -0.021,-0.1437 -0.021,-0.1959 -0.0283,-0.0782 -0.0496,-0.1567 -0.0635,-0.2349 -0.0141,-0.0786 -0.0212,-0.1568 -0.0212,-0.2353 -0.2821,-1.698 -0.8674,-3.2066 -1.7561,-4.5255 -0.8887,-1.3193 -2.0664,-2.4361 -3.5334,-3.3503 -1.4669,-0.9403 -3.0044,-1.6325 -4.6125,-2.0767 -1.6078,-0.4442 -3.2865,-0.6661 -5.0355,-0.6661 -1.5797,0 -3.0467,0.1828 -4.4008,0.5485 -1.3541,0.3657 -2.5812,0.9275 -3.6816,1.6849 -1.1001,0.7577 -1.9253,1.6849 -2.4755,2.7819 -0.5499,1.0973 -0.8252,2.3641 -0.8252,3.801 0,0.1304 0,0.2676 0,0.4113 0,0.1437 0.0142,0.294 0.0426,0.4507 0,0.1568 0.0138,0.3135 0.0422,0.47 0.0281,0.1568 0.0564,0.3135 0.0847,0.4703 0.2821,1.6979 0.8604,3.2065 1.7349,4.5258 0.8744,1.3189 2.0451,2.4488 3.5121,3.3894 1.4669,0.9402 3.0044,1.6455 4.6125,2.1157 1.6081,0.4703 3.2865,0.7053 5.0355,0.7053 z m -1.0579,-6.1911 c -0.7897,-0.0522 -1.5021,-0.1959 -2.1368,-0.4309 -0.6349,-0.2353 -1.2061,-0.5749 -1.7138,-1.0188 -0.508,-0.4442 -0.917,-0.934 -1.2271,-1.4694 -0.3104,-0.5355 -0.5219,-1.1036 -0.635,-1.7045 -0.028,-0.0783 -0.0493,-0.1568 -0.0635,-0.235 -0.0139,-0.0785 -0.0209,-0.1568 -0.0209,-0.2353 0,-0.0782 0,-0.1565 0,-0.235 0,-0.0782 0,-0.1437 0,-0.1959 0,-0.5224 0.0844,-0.9992 0.2539,-1.43 0.1693,-0.4312 0.4371,-0.8164 0.8039,-1.156 0.3668,-0.3396 0.811,-0.5944 1.3329,-0.7642 0.5219,-0.1698 1.1356,-0.2546 1.8408,-0.2546 0.79,0 1.5092,0.1111 2.158,0.3331 0.6489,0.2219 1.2271,0.542 1.7351,0.9598 0.5077,0.4442 0.9167,0.9275 1.2271,1.4499 0.3104,0.5225 0.5219,1.1101 0.6347,1.7632 0,0.0261 0,0.0524 0,0.0785 0,0.0261 0.0142,0.0652 0.0422,0.1174 0,0.0263 0,0.0589 0,0.098 0,0.0391 0,0.0717 0,0.0981 0,0.0522 0,0.0913 0,0.1174 0,0.026 0.0142,0.0654 0.0426,0.1176 0,0.0261 0,0.0587 0,0.0978 0,0.0394 0,0.072 0,0.0981 0,0.5224 -0.0919,1.0057 -0.2753,1.4499 -0.1834,0.4439 -0.4583,0.8357 -0.8251,1.1752 -0.3666,0.366 -0.811,0.6401 -1.3329,0.8229 -0.5219,0.1829 -1.1356,0.2744 -1.8408,0.2744 z m 25.1779,5.525 -0.5499,-3.2916 h 0.0844 c 0.4797,0.5749 1.0015,1.0842 1.5659,1.5281 0.5641,0.4442 1.1707,0.8099 1.8195,1.0973 0.6489,0.2872 1.3258,0.5029 2.0311,0.6466 0.7052,0.1435 1.4388,0.2155 2.2005,0.2155 l 1.4811,0.0782 -1.1426,-6.857 c -0.254,0.1046 -0.5077,0.2024 -0.7617,0.2939 -0.254,0.0913 -0.5077,0.1503 -0.7617,0.1763 -0.254,0.0522 -0.5147,0.0848 -0.7829,0.0978 -0.2679,0.0131 -0.557,0.0199 -0.8674,0.0199 -1.0721,0 -1.9888,-0.1437 -2.7505,-0.4312 -0.7616,-0.2874 -1.3682,-0.7313 -1.8195,-1.3322 -0.4516,-0.5746 -0.8252,-1.2212 -1.1214,-1.9395 -0.2962,-0.7183 -0.5151,-1.5086 -0.6559,-2.3706 l -1.3964,-8.0326 h -7.7014 l 3.4273,20.1011 z m 21.4118,-5.8777 -2.412,-14.2234 h -7.7015 l 2.412,14.2234 h -2.4965 l 1.0154,5.8777 h 2.4968 l 1.0579,6.0341 h 7.7014 l -1.0579,-6.0341 h 4.3586 l -1.0157,-5.8777 z"
           style="fill:#000000;fill-opacity:1;fill-rule:nonzero;stroke:none"
           id="path870" />
      </g>
      <g
         id="g872">
        <path
           d="m 33.1109,436.7072 4.6548,-17.9458 10.7904,17.9458 h 9.0133 L 38.9081,407.1631 h -6.4318 l -8.3787,29.5441 z m 33.3026,-9.443 -3.4277,-20.1011 h -7.7014 l 3.4276,20.1011 z m -1.8196,11.7155 c 0.5358,-0.0521 1.0225,-0.1632 1.4599,-0.333 0.4371,-0.1698 0.8251,-0.4113 1.1636,-0.7248 0.3384,-0.3136 0.5924,-0.6727 0.7617,-1.0775 0.1692,-0.4051 0.2539,-0.8424 0.2539,-1.3127 0,-0.0261 0,-0.0522 0,-0.0783 0,-0.0263 0,-0.0524 0,-0.0785 0,-0.026 0,-0.0521 0,-0.0782 0,-0.0261 0,-0.0524 0,-0.0785 0,-0.0261 0,-0.0457 0,-0.0587 0,-0.013 0,-0.0196 0,-0.0196 -0.0283,-0.026 -0.0425,-0.0456 -0.0425,-0.0589 0,-0.0131 0,-0.0196 0,-0.0196 0,-0.0261 0,-0.0521 0,-0.0782 0,-0.0261 0,-0.0522 0,-0.0785 -0.0845,-0.5485 -0.2749,-1.0579 -0.5712,-1.5282 -0.2962,-0.47 -0.684,-0.9011 -1.1636,-1.2929 -0.5077,-0.3917 -1.0298,-0.6857 -1.5658,-0.8816 -0.5358,-0.1958 -1.1002,-0.2939 -1.6926,-0.2939 -0.536,0 -1.0296,0.0782 -1.4811,0.235 -0.4513,0.1567 -0.8462,0.4051 -1.1846,0.7446 -0.3387,0.3396 -0.5925,0.7118 -0.7617,1.1166 -0.1695,0.4051 -0.254,0.8555 -0.254,1.3519 0,0.0521 0,0.098 0,0.1372 0,0.0391 0,0.0717 0,0.098 0,0.0522 0,0.1043 0,0.1565 0,0.0524 0.0142,0.1046 0.0423,0.1568 0.0847,0.5487 0.2749,1.0581 0.5712,1.5281 0.2962,0.4703 0.6984,0.9014 1.2061,1.2932 0.4796,0.3917 0.9944,0.6857 1.5446,0.8816 0.5499,0.1958 1.1214,0.2939 1.7138,0.2939 z m 14.5987,-11.7155 -0.5499,-3.2916 h 0.0845 c 0.4796,0.5748 1.0015,1.0842 1.5658,1.5281 0.5641,0.4442 1.1707,0.8099 1.8196,1.0973 0.6488,0.2872 1.3258,0.5029 2.031,0.6466 0.7053,0.1434 1.4389,0.2154 2.2006,0.2154 l 1.4811,0.0783 -1.1427,-6.857 c -0.254,0.1046 -0.5077,0.2024 -0.7617,0.2939 -0.2539,0.0913 -0.5076,0.1502 -0.7616,0.1763 -0.254,0.0522 -0.5148,0.0848 -0.783,0.0978 -0.2678,0.0133 -0.557,0.0199 -0.8674,0.0199 -1.072,0 -1.9887,-0.1438 -2.7504,-0.4312 -0.7617,-0.2874 -1.3683,-0.7313 -1.8196,-1.3323 -0.4515,-0.5746 -0.8251,-1.2211 -1.1214,-1.9394 -0.2962,-0.7183 -0.515,-1.5086 -0.6559,-2.3706 l -1.3963,-8.0326 h -7.7015 l 3.4274,20.1011 z m 27.04,-0.5094 -1.0157,-6.0344 c -0.2539,0.1567 -0.5218,0.3135 -0.8039,0.4702 -0.2823,0.1568 -0.5785,0.3005 -0.8886,0.4312 -0.3104,0.1304 -0.6347,0.235 -0.9734,0.3132 -0.3385,0.0785 -0.6911,0.1177 -1.0579,0.1177 -0.7334,0 -1.4386,-0.1177 -2.1158,-0.3527 -0.6769,-0.235 -1.3116,-0.5876 -1.904,-1.0579 -0.5925,-0.4702 -1.065,-0.9992 -1.4176,-1.5868 -0.3527,-0.5879 -0.5854,-1.2214 -0.6982,-1.9006 -0.0284,-0.0783 -0.0496,-0.1565 -0.0635,-0.235 -0.0142,-0.0783 -0.0213,-0.1568 -0.0213,-0.235 0,-0.0785 0,-0.1568 0,-0.2353 0,-0.0782 0,-0.1437 0,-0.1959 0,-0.6006 0.1058,-1.1494 0.3175,-1.6455 0.2115,-0.4963 0.5289,-0.9275 0.9519,-1.2931 0.4232,-0.3657 0.917,-0.6401 1.4811,-0.8229 0.5644,-0.1829 1.199,-0.2741 1.9043,-0.2741 0.1128,0 0.2256,0 0.3385,0 0.1128,0 0.2256,0.013 0.3384,0.0391 0.0564,0 0.1128,0 0.1692,0 0.0567,0 0.127,0.013 0.2118,0.0391 0.0564,0 0.1128,0.006 0.1692,0.0196 0.0564,0.013 0.1128,0.0326 0.1692,0.0586 0.2257,0.0525 0.4584,0.1177 0.6982,0.1962 0.2398,0.0782 0.4726,0.1698 0.6982,0.2741 0.2259,0.1046 0.4445,0.2154 0.6559,0.3331 0.2118,0.1176 0.4162,0.2548 0.6137,0.4116 l -1.0156,-5.9559 c -0.2821,-0.1568 -0.557,-0.2809 -0.8252,-0.3722 -0.2679,-0.0916 -0.5431,-0.1633 -0.8252,-0.2157 -0.1408,-0.0522 -0.282,-0.0913 -0.4232,-0.1174 -0.1409,-0.0263 -0.282,-0.0524 -0.4229,-0.0785 -0.1695,-0.0522 -0.3246,-0.0913 -0.4657,-0.1176 -0.1409,-0.0261 -0.2821,-0.0522 -0.423,-0.0783 -0.1975,-0.026 -0.388,-0.0456 -0.5714,-0.0586 -0.1834,-0.0131 -0.3736,-0.0329 -0.5712,-0.059 -0.0848,0 -0.1763,0 -0.275,0 -0.0989,0 -0.1905,-0.013 -0.2752,-0.0391 -0.1128,0 -0.2115,0 -0.2962,0 -0.0845,0 -0.1693,0 -0.2537,0 -1.467,0 -2.8001,0.1959 -3.9989,0.5879 -1.199,0.3917 -2.2921,0.9924 -3.2797,1.8022 -0.9589,0.8099 -1.6783,1.7436 -2.158,2.8015 -0.4796,1.0582 -0.7194,2.2403 -0.7194,3.5462 0,0.1306 0,0.2678 0,0.4116 0,0.1434 0.0142,0.2806 0.0425,0.4113 0.0281,0.1306 0.0493,0.2678 0.0635,0.4113 0.0139,0.1437 0.0352,0.2939 0.0635,0.4507 0.2821,1.6197 0.8249,3.0824 1.6291,4.3886 0.8039,1.3059 1.883,2.4684 3.2371,3.4872 1.3258,1.0187 2.7505,1.783 4.2738,2.2923 1.5234,0.5094 3.1456,0.764 4.8663,0.764 0.4515,0 0.8886,-0.0261 1.3119,-0.0783 0.4232,-0.0524 0.8464,-0.1306 1.2696,-0.2352 0.3949,-0.1043 0.7826,-0.222 1.1636,-0.3527 0.3807,-0.1306 0.7546,-0.3004 1.1214,-0.5093 z m 28.6053,0.5094 -3.4274,-20.1011 h -7.7015 l 0.3807,2.2334 h -0.0844 c -0.3388,-0.4442 -0.7195,-0.8229 -1.1427,-1.1364 -0.4232,-0.3132 -0.8745,-0.5746 -1.3541,-0.7835 -0.4796,-0.2089 -0.9663,-0.3852 -1.4598,-0.5289 -0.4938,-0.1437 -0.9944,-0.2548 -1.5024,-0.3331 -0.1409,-0.0261 -0.282,-0.0456 -0.4229,-0.0589 -0.1412,-0.0131 -0.2824,-0.0196 -0.4232,-0.0196 -0.0565,0 -0.1199,0 -0.1905,0 -0.0706,0 -0.1341,-0.013 -0.1905,-0.0391 -0.0564,0 -0.1199,0 -0.1905,0 -0.0703,0 -0.1338,0 -0.1902,0 -1.4389,0 -2.7224,0.2089 -3.8509,0.627 -1.1285,0.4178 -2.1016,1.0579 -2.9197,1.9199 -0.8464,0.862 -1.474,1.8156 -1.883,2.8604 -0.4091,1.0449 -0.6137,2.181 -0.6137,3.409 0,0.1304 0,0.2741 0,0.4309 0,0.1567 0.0142,0.3135 0.0425,0.4702 0,0.1568 0.0139,0.3135 0.0422,0.4703 0.0281,0.1567 0.0564,0.3135 0.0845,0.47 0.2256,1.4369 0.6982,2.7822 1.4176,4.0359 0.7194,1.2538 1.6716,2.4033 2.8565,3.4481 1.1849,1.0712 2.4823,1.8743 3.8931,2.4097 1.4105,0.5358 2.9197,0.8034 4.5278,0.8034 0.6205,0 1.2271,-0.0587 1.8195,-0.1763 0.5925,-0.1177 1.1707,-0.2809 1.7348,-0.4899 0.5644,-0.2089 1.0721,-0.4767 1.5234,-0.8033 0.4515,-0.3263 0.8464,-0.7118 1.1849,-1.1557 l 0.3384,2.0376 z m -13.3294,-5.5251 c -0.79,-0.0521 -1.5021,-0.1958 -2.137,-0.4308 -0.6347,-0.2353 -1.2059,-0.5749 -1.7139,-1.0188 -0.5076,-0.4442 -0.9167,-0.934 -1.2271,-1.4695 -0.3101,-0.5354 -0.5218,-1.1035 -0.6347,-1.7044 -0.028,-0.0783 -0.0493,-0.1568 -0.0635,-0.235 -0.0141,-0.0786 -0.0209,-0.1568 -0.0209,-0.2353 0,-0.0782 0,-0.1565 0,-0.235 0,-0.0782 0,-0.1437 0,-0.1959 0,-0.5224 0.0844,-0.9992 0.2537,-1.4301 0.1692,-0.4311 0.4374,-0.8163 0.8042,-1.1559 0.3665,-0.3396 0.811,-0.5944 1.3328,-0.7642 0.5219,-0.1698 1.1356,-0.2546 1.8408,-0.2546 0.7898,0 1.5092,0.1111 2.158,0.3331 0.6489,0.2219 1.2272,0.542 1.7348,0.9598 0.508,0.4442 0.9171,0.9275 1.2274,1.4499 0.3102,0.5224 0.5219,1.1101 0.6347,1.7632 0,0.026 0,0.0524 0,0.0785 0,0.0261 0.0142,0.0652 0.0423,0.1173 0,0.0264 0,0.059 0,0.0981 0,0.0391 0,0.0717 0,0.0981 0,0.0521 0,0.0913 0,0.1173 0,0.0261 0.0141,0.0655 0.0422,0.1177 0,0.0261 0,0.0587 0,0.0978 0,0.0394 0,0.072 0,0.0981 0,0.5224 -0.0916,1.0057 -0.275,1.4499 -0.1834,0.4439 -0.4583,0.8356 -0.8251,1.1752 -0.3668,0.366 -0.811,0.6401 -1.3329,0.8229 -0.5218,0.1829 -1.1355,0.2744 -1.8408,0.2744 z m 26.151,5.5251 -0.4229,-2.5079 h 0.0845 c 0.5643,0.5225 1.1284,0.9797 1.6925,1.3714 0.5644,0.3918 1.1569,0.7183 1.7774,0.9797 0.6207,0.235 1.2554,0.4178 1.9043,0.5485 0.6488,0.1307 1.3257,0.1959 2.031,0.1959 0.79,0 1.5304,-0.0783 2.2218,-0.235 0.6911,-0.1568 1.3328,-0.392 1.9253,-0.7053 0.5924,-0.3135 1.1001,-0.7055 1.5233,-1.1755 0.4232,-0.4703 0.7759,-1.0449 1.0579,-1.724 0.4232,0.5485 0.8887,1.0383 1.3964,1.4692 0.5079,0.4311 1.072,0.8033 1.6925,1.1168 0.6208,0.3135 1.2484,0.5681 1.8831,0.764 0.6349,0.1958 1.2906,0.333 1.9678,0.4115 0.0564,0 0.1057,0 0.148,0 0.0425,0 0.0776,0.0131 0.106,0.0392 0.0564,0 0.1057,0 0.1479,0 0.0423,0 0.0777,0 0.1058,0 0.0564,0 0.106,0 0.1482,0 0.0423,0 0.0916,0.013 0.148,0.0391 0.0283,0 0.0706,0 0.127,0 0.0564,0 0.1128,0 0.1692,0 1.1568,0 2.1371,-0.1372 2.941,-0.4113 0.8042,-0.2744 1.4317,-0.6727 1.883,-1.1951 0.4796,-0.5224 0.8394,-1.1299 1.0792,-1.8221 0.2398,-0.6922 0.3597,-1.4695 0.3597,-2.3315 0,-0.1829 -0.007,-0.3592 -0.0213,-0.529 -0.0141,-0.1698 -0.0351,-0.3461 -0.0635,-0.5289 0,-0.1043 -0.007,-0.2024 -0.0209,-0.294 -0.0142,-0.0912 -0.0213,-0.1763 -0.0213,-0.2545 -0.0284,-0.1046 -0.0493,-0.2024 -0.0635,-0.294 -0.0142,-0.0912 -0.0213,-0.1893 -0.0213,-0.2936 l -2.2002,-12.7347 h -7.7015 l 1.6504,9.5998 c 0,0 0,0.0196 0,0.059 0,0.0391 0,0.0717 0,0.0978 0,0.0521 0.007,0.0981 0.0209,0.1372 0.0142,0.0391 0.0355,0.0847 0.0635,0.1372 0,0.1043 0.007,0.2154 0.0213,0.333 0.0142,0.1174 0.0351,0.2285 0.0635,0.3331 0,0.1304 0.007,0.2546 0.021,0.3722 0.0141,0.1174 0.0354,0.2285 0.0635,0.3331 0,0.0261 0,0.0521 0,0.0782 0,0.0261 0.0141,0.0655 0.0425,0.1177 0,0.026 0,0.0586 0,0.0977 0,0.0395 0,0.072 0,0.0981 0,0.0522 0,0.1111 0,0.1763 0,0.0652 0,0.1372 0,0.2155 0,0.3656 -0.0425,0.7186 -0.127,1.0579 -0.0848,0.3396 -0.2118,0.64 -0.381,0.9014 -0.1692,0.2871 -0.4232,0.5028 -0.7616,0.6466 -0.3385,0.1434 -0.7617,0.2154 -1.2694,0.2154 -0.7053,0 -1.319,-0.1046 -1.8408,-0.3135 -0.5219,-0.2089 -0.938,-0.5355 -1.2484,-0.9797 -0.3101,-0.4178 -0.5712,-0.862 -0.7826,-1.3322 -0.2118,-0.47 -0.3739,-0.9664 -0.4868,-1.4888 -0.0283,-0.1046 -0.0564,-0.2157 -0.0847,-0.3331 -0.0281,-0.1176 -0.0564,-0.2418 -0.0845,-0.3722 -0.0283,-0.1046 -0.0493,-0.2157 -0.0635,-0.333 -0.0142,-0.1177 -0.0212,-0.2288 -0.0212,-0.3331 l -1.6504,-9.5216 h -7.7014 l 1.6503,9.5998 c 0,0 0,0.0196 0,0.059 0,0.0391 0,0.0717 0,0.0978 0,0.0521 0.007,0.0981 0.0213,0.1372 0.0141,0.0391 0.0351,0.0717 0.0635,0.0978 0,0.1307 0.007,0.2613 0.0209,0.392 0.0142,0.1307 0.0355,0.2611 0.0635,0.3918 0.0284,0.1306 0.0494,0.2678 0.0635,0.4113 0.0142,0.1437 0.0355,0.2809 0.0635,0.4116 0,0.026 0,0.0521 0,0.0782 0,0.0261 0,0.0524 0,0.0785 0,0 0,0.013 0,0.0391 0,0.0261 0,0.0522 0,0.0783 0,0.0263 0,0.0524 0,0.0785 0,0.0261 0,0.0521 0,0.0782 0,0 0,0.0131 0,0.0394 0,0.0261 0,0.0522 0,0.0783 0,0.3917 -0.0493,0.7642 -0.1479,1.1168 -0.099,0.3526 -0.2328,0.6857 -0.4023,0.9989 -0.1973,0.2875 -0.4725,0.5094 -0.8251,0.6662 -0.3527,0.1567 -0.811,0.2353 -1.3751,0.2353 -0.6208,0 -1.1636,-0.0981 -1.6291,-0.294 -0.4657,-0.1959 -0.8535,-0.4898 -1.1639,-0.8816 -0.282,-0.3917 -0.5219,-0.8033 -0.7192,-1.2342 -0.1975,-0.4311 -0.3668,-0.8818 -0.5079,-1.3518 -0.0281,-0.1829 -0.0635,-0.3526 -0.1058,-0.5094 -0.0422,-0.1568 -0.0776,-0.3135 -0.1057,-0.4703 -0.0283,-0.1567 -0.0564,-0.3135 -0.0847,-0.4702 -0.0281,-0.1568 -0.0564,-0.3005 -0.0845,-0.4309 l -1.6503,-9.5216 h -7.7015 l 3.4274,20.1011 z"
           style="fill:#009ee3;fill-opacity:1;fill-rule:nonzero;stroke:none"
           id="path874" />
        <path
           d="m 213.503,412.2961 h -11.4254 l -3.0889,-5.133 h -8.8018 l 17.3072,29.5441 h 9.0555 l 6.9823,-29.5441 h -8.8441 z m -1.2272,5.8773 -1.7773,9.404 h -0.0845 l -5.0357,-9.404 z m 16.9688,9.0908 h 7.7014 l -1.8195,-10.7363 c -0.0284,-0.1828 -0.0496,-0.3461 -0.0635,-0.4898 -0.0142,-0.1437 -0.0354,-0.2809 -0.0635,-0.4113 -0.0284,-0.1307 -0.0425,-0.2548 -0.0425,-0.3725 0,-0.1173 0.0141,-0.2415 0.0425,-0.3722 0,-0.4178 0.0564,-0.7968 0.1692,-1.1361 0.1128,-0.3396 0.2821,-0.64 0.5077,-0.9014 0.2256,-0.2611 0.5502,-0.4504 0.9734,-0.5681 0.423,-0.1176 0.9451,-0.1763 1.5656,-0.1763 0.79,0 1.4598,0.0978 2.01,0.294 0.55,0.1958 0.9944,0.5028 1.3329,0.9207 0.3104,0.3917 0.5712,0.8489 0.7829,1.3714 0.2115,0.5224 0.3736,1.1103 0.4867,1.7631 l 1.8196,10.8148 h 7.7014 l -2.0735,-12.1077 c -0.282,-1.6979 -0.79,-3.1218 -1.5233,-4.2709 -0.7336,-1.1495 -1.721,-2.0245 -2.9622,-2.6255 -1.213,-0.5746 -2.5319,-1.0122 -3.9566,-1.3124 -1.4244,-0.3005 -2.9549,-0.4507 -4.591,-0.4507 -1.4672,0 -2.8072,0.1176 -4.0201,0.3526 -1.2133,0.2353 -2.3134,0.5879 -3.3007,1.0579 -0.9592,0.4703 -1.6855,1.156 -2.1793,2.0571 -0.4938,0.9014 -0.7404,2.0049 -0.7404,3.3111 0,0.1307 0,0.2676 0,0.4114 0,0.1437 0.0139,0.2939 0.0423,0.4507 0,0.1306 0.0141,0.2741 0.0422,0.4308 0.0283,0.1568 0.0564,0.3266 0.0848,0.5094 z m 35.418,-5.8777 -2.412,-14.2234 h -7.7014 l 2.412,14.2234 h -2.4965 l 1.0154,5.8777 h 2.4968 l 1.0578,6.0341 h 7.7015 l -1.0579,-6.0341 h 4.3586 l -1.0157,-5.8777 z m 19.423,6.5438 c 1.5798,-0.0524 3.0467,-0.2744 4.4008,-0.6661 1.3541,-0.3921 2.5815,-0.9797 3.6817,-1.7635 1.1001,-0.7835 1.9323,-1.724 2.4964,-2.821 0.5644,-1.0973 0.8465,-2.3641 0.8465,-3.8007 0,-0.0785 0,-0.1502 0,-0.2157 0,-0.0652 0,-0.1372 0,-0.2155 -0.0284,-0.0521 -0.0423,-0.1176 -0.0423,-0.1958 0,-0.0786 0,-0.1568 0,-0.2353 0,-0.0782 -0.007,-0.1565 -0.0212,-0.235 -0.0142,-0.0782 -0.0213,-0.1437 -0.0213,-0.1959 -0.0281,-0.0782 -0.0493,-0.1567 -0.0632,-0.235 -0.0142,-0.0785 -0.0213,-0.1567 -0.0213,-0.2352 -0.282,-1.698 -0.8674,-3.2066 -1.756,-4.5256 -0.8887,-1.3192 -2.0665,-2.436 -3.5334,-3.3502 -1.4669,-0.9403 -3.0045,-1.6325 -4.6126,-2.0767 -1.6078,-0.4442 -3.2864,-0.6661 -5.0354,-0.6661 -1.5798,0 -3.0467,0.1828 -4.4008,0.5485 -1.3541,0.3656 -2.5815,0.9275 -3.6816,1.6849 -1.1002,0.7577 -1.9253,1.6849 -2.4755,2.7819 -0.55,1.0973 -0.8252,2.3641 -0.8252,3.801 0,0.1304 0,0.2676 0,0.4113 0,0.1437 0.0142,0.294 0.0425,0.4507 0,0.1568 0.0139,0.3135 0.0423,0.47 0.028,0.1567 0.0564,0.3135 0.0844,0.4703 0.2824,1.6979 0.8606,3.2065 1.7351,4.5258 0.8745,1.3189 2.0452,2.4488 3.5121,3.3893 1.467,0.9403 3.0045,1.6456 4.6126,2.1158 1.6078,0.4703 3.2865,0.7053 5.0354,0.7053 z m -1.0579,-6.1912 c -0.7897,-0.0521 -1.502,-0.1958 -2.1367,-0.4308 -0.635,-0.2353 -1.2061,-0.5749 -1.7138,-1.0188 -0.508,-0.4442 -0.917,-0.934 -1.2272,-1.4695 -0.3103,-0.5354 -0.5221,-1.1035 -0.6349,-1.7044 -0.0281,-0.0783 -0.0493,-0.1568 -0.0635,-0.235 -0.0139,-0.0786 -0.021,-0.1568 -0.021,-0.2353 0,-0.0782 0,-0.1565 0,-0.235 0,-0.0782 0,-0.1437 0,-0.1959 0,-0.5224 0.0845,-0.9992 0.2537,-1.4301 0.1695,-0.4311 0.4374,-0.8163 0.8042,-1.1559 0.3668,-0.3396 0.811,-0.5944 1.3329,-0.7642 0.5218,-0.1698 1.1355,-0.2546 1.8408,-0.2546 0.7897,0 1.5091,0.1111 2.158,0.3331 0.6488,0.2219 1.2271,0.542 1.7351,0.9598 0.5077,0.4442 0.9167,0.9275 1.2271,1.4499 0.3104,0.5224 0.5219,1.1101 0.6347,1.7632 0,0.026 0,0.0524 0,0.0785 0,0.0261 0.0141,0.0652 0.0422,0.1173 0,0.0264 0,0.059 0,0.0981 0,0.0391 0,0.0717 0,0.0981 0,0.0521 0,0.0913 0,0.1173 0,0.0261 0.0142,0.0655 0.0425,0.1177 0,0.0261 0,0.0587 0,0.0978 0,0.0394 0,0.072 0,0.0981 0,0.5224 -0.0918,1.0057 -0.2752,1.4499 -0.1834,0.4439 -0.4584,0.8356 -0.8252,1.1752 -0.3668,0.366 -0.811,0.6401 -1.3328,0.8229 -0.5219,0.1829 -1.1356,0.2744 -1.8409,0.2744 z m 34.3183,4.898 -3.3855,-4.5453 c -0.0844,0.0263 -0.1763,0.0524 -0.2749,0.0785 -0.0987,0.0261 -0.1905,0.0652 -0.275,0.1176 -0.1128,0.0261 -0.2188,0.0587 -0.3175,0.0978 -0.0986,0.0392 -0.2043,0.072 -0.3172,0.0981 -0.1975,0.0782 -0.4161,0.1502 -0.6559,0.2154 -0.2398,0.0652 -0.4725,0.1242 -0.6982,0.1764 -0.1131,0 -0.233,0.006 -0.3597,0.0195 -0.127,0.0131 -0.2611,0.0326 -0.4022,0.0587 -0.0564,0 -0.1128,0 -0.1693,0 -0.0564,0 -0.1128,0.013 -0.1692,0.0394 -0.0564,0 -0.1128,0 -0.1692,0 -0.0564,0 -0.1128,0 -0.1692,0 -0.0281,0 -0.0635,0 -0.1058,0 -0.0425,0 -0.0918,0 -0.1482,0 -0.0281,-0.0264 -0.0635,-0.0394 -0.1058,-0.0394 -0.0422,0 -0.0915,0 -0.1479,0 -0.0848,-0.0261 -0.1695,-0.0456 -0.254,-0.0587 -0.0848,-0.013 -0.1692,-0.0195 -0.254,-0.0195 -0.1973,-0.0522 -0.3807,-0.1177 -0.5499,-0.1959 -0.1695,-0.0785 -0.3388,-0.1698 -0.508,-0.2744 -0.1692,-0.1043 -0.2962,-0.222 -0.3807,-0.3526 -0.0847,-0.1307 -0.1411,-0.2741 -0.1692,-0.4309 0,-0.0264 0,-0.0459 0,-0.059 0,-0.013 0,-0.0326 0,-0.0586 0,-0.0261 0,-0.0457 0,-0.0587 0,-0.0131 0,-0.0199 0,-0.0199 0,-0.1828 0.0422,-0.3526 0.1267,-0.5093 0.0848,-0.1565 0.2259,-0.2872 0.4232,-0.3918 0.1976,-0.1043 0.402,-0.1894 0.6137,-0.2545 0.2115,-0.0655 0.4442,-0.1242 0.6982,-0.1764 0.0845,-0.026 0.1763,-0.0524 0.275,-0.0785 0.0989,-0.0261 0.2046,-0.0391 0.3174,-0.0391 0.1129,-0.0261 0.2186,-0.0456 0.3172,-0.0587 0.099,-0.013 0.1905,-0.0195 0.2753,-0.0195 0,0 0,-0.007 0,-0.0199 0,-0.013 0.0141,-0.0195 0.0422,-0.0195 0,0 0,0 0,0 0,0 0,0 0,0 0,0 0.007,0 0.0213,0 0.0139,0 0.0351,0 0.0635,0 0.7616,-0.1568 1.4669,-0.3657 2.1157,-0.6268 0.6489,-0.2613 1.2272,-0.5748 1.7348,-0.9405 0.508,-0.3657 0.8887,-0.8229 1.1427,-1.3714 0.2537,-0.5485 0.3807,-1.1886 0.3807,-1.9199 0,-0.1046 0,-0.2024 0,-0.294 0,-0.0912 0,-0.1763 0,-0.2545 0,-0.0785 -0.007,-0.1633 -0.021,-0.2549 -0.0142,-0.0912 -0.0354,-0.1893 -0.0635,-0.2939 -0.1976,-1.2016 -0.5995,-2.2399 -1.2061,-3.115 -0.6064,-0.8751 -1.4035,-1.6129 -2.3908,-2.2139 -0.9592,-0.5745 -1.9678,-1.0253 -3.0257,-1.3518 -1.0579,-0.3266 -2.1651,-0.542 -3.3216,-0.6463 -0.0848,0 -0.1621,0 -0.2327,0 -0.0706,0 -0.1341,-0.0133 -0.1905,-0.0394 -0.0848,0 -0.1622,0 -0.2327,0 -0.0706,0 -0.1341,0 -0.1905,0 -0.0564,0 -0.1199,0 -0.1905,0 -0.0703,0 -0.1338,-0.013 -0.1902,-0.0391 -0.0564,0 -0.1199,0 -0.1905,0 -0.0706,0 -0.1341,0 -0.1905,0 -0.7897,0 -1.5517,0.0456 -2.285,0.1372 -0.7336,0.0912 -1.4528,0.2415 -2.158,0.4507 -0.7053,0.1828 -1.3825,0.4113 -2.0313,0.6857 -0.6489,0.2741 -1.2694,0.5941 -1.8618,0.9598 l 3.6391,5.0547 c 0.2256,-0.2089 0.4725,-0.3985 0.7404,-0.5683 0.2682,-0.1698 0.5715,-0.3331 0.9099,-0.4896 0.3104,-0.1567 0.6347,-0.3004 0.9732,-0.4311 0.3387,-0.1307 0.6913,-0.235 1.0578,-0.3135 0.1693,-0.0522 0.3388,-0.0978 0.508,-0.1372 0.1692,-0.0391 0.3385,-0.0717 0.5077,-0.0978 0.0848,-0.0261 0.1692,-0.0456 0.254,-0.059 0.0845,-0.013 0.1834,-0.0195 0.2962,-0.0195 0.0845,0 0.1692,0 0.2537,0 0.0848,0 0.1695,0 0.254,0 0.0564,0 0.1199,0 0.1905,0 0.0706,0 0.1479,0 0.2327,0 0.0848,0 0.1692,0.013 0.254,0.0394 0.0845,0.0261 0.1692,0.0521 0.2537,0.0782 0.1976,0.0522 0.388,0.1176 0.5715,0.1959 0.1831,0.0785 0.3594,0.1698 0.5289,0.2744 0.1692,0.1307 0.3101,0.2741 0.4229,0.4308 0.1128,0.1568 0.1834,0.3266 0.2118,0.5094 0,0.0261 0,0.0459 0,0.059 0,0.013 0,0.0326 0,0.0587 0,0.026 0,0.0456 0,0.0586 0,0.0131 0,0.0329 0,0.059 0,0.235 -0.0706,0.4439 -0.2118,0.6267 -0.1409,0.1829 -0.3384,0.3266 -0.5924,0.4312 -0.2821,0.1043 -0.5783,0.2024 -0.8884,0.2939 -0.3104,0.0913 -0.663,0.1894 -1.0579,0.2937 -0.1131,0 -0.2259,0.0131 -0.3387,0.0394 -0.1128,0.0261 -0.2257,0.0522 -0.3385,0.0783 -0.1128,0.026 -0.2256,0.0521 -0.3384,0.0782 -0.1129,0.0264 -0.2257,0.0524 -0.3385,0.0785 -0.0283,0 -0.0564,0 -0.0847,0 -0.0284,0 -0.0565,0 -0.0848,0 -0.0281,0 -0.0564,0.007 -0.0845,0.0196 -0.0283,0.013 -0.0564,0.0326 -0.0847,0.0586 -0.5361,0.1307 -1.0367,0.3005 -1.5021,0.5094 -0.4655,0.2092 -0.9099,0.4573 -1.3331,0.7447 -0.423,0.2871 -0.7334,0.6792 -0.9309,1.1755 -0.1973,0.4961 -0.2821,1.084 -0.2537,1.7632 0,0.0782 0,0.1632 0,0.2545 0,0.0916 0,0.1897 0,0.294 0,0.0785 0.007,0.1632 0.0209,0.2548 0.0142,0.0913 0.0355,0.1894 0.0635,0.2937 0.1976,1.0973 0.5783,2.0701 1.1427,2.9191 0.5641,0.849 1.3116,1.561 2.2427,2.1356 0.9309,0.5746 1.897,1.0253 2.8985,1.3519 1.0015,0.3265 2.0384,0.5419 3.1104,0.6465 0.0564,0 0.1128,0 0.1693,0 0.0564,0 0.1267,0.0131 0.2114,0.0392 0.0564,0 0.1128,0 0.1692,0 0.0565,0 0.1129,0 0.1693,0 0.0564,0 0.1128,0 0.1692,0 0.0567,0 0.1128,0.013 0.1695,0.0391 0.0564,0 0.1128,0 0.1692,0 0.0565,0 0.1129,0 0.1693,0 0.6205,0 1.2271,-0.0261 1.8195,-0.0783 0.5925,-0.0524 1.1849,-0.1306 1.7774,-0.2352 0.5924,-0.1043 1.1636,-0.235 1.7138,-0.3918 0.5499,-0.1567 1.093,-0.3526 1.6291,-0.5876 z m 12.3137,0.6271 -0.3807,-2.2729 h 0.0847 c 0.3385,0.3657 0.7192,0.7053 1.1424,1.0188 0.4232,0.3135 0.8886,0.5879 1.3963,0.8229 0.4796,0.2353 0.9734,0.4246 1.4811,0.5681 0.508,0.1437 1.0299,0.2548 1.5659,0.333 0.0564,0 0.1128,0.007 0.1692,0.0199 0.0564,0.013 0.127,0.0195 0.2115,0.0195 0.0564,0.0261 0.1128,0.0392 0.1692,0.0392 0.0564,0 0.1128,0 0.1692,0 0.0564,0 0.1199,0 0.1905,0 0.0706,0 0.1341,0.013 0.1905,0.0391 0.0564,0 0.1199,0 0.1905,0 0.0703,0 0.1338,0 0.1902,0 1.4389,0 2.7224,-0.2155 3.8509,-0.6466 1.1284,-0.4309 2.1016,-1.0775 2.9197,-1.9395 0.818,-0.862 1.4388,-1.8221 1.862,-2.88 0.423,-1.0579 0.6347,-2.2008 0.6347,-3.4285 0,-0.0782 0,-0.1567 0,-0.235 0,-0.0785 0,-0.1567 0,-0.2352 -0.0283,-0.0783 -0.0422,-0.1568 -0.0422,-0.235 0,-0.0786 0,-0.1568 0,-0.2353 -0.0284,-0.1565 -0.0496,-0.3132 -0.0635,-0.47 -0.0142,-0.1567 -0.0355,-0.3135 -0.0635,-0.4703 -0.254,-1.4366 -0.7407,-2.7819 -1.4601,-4.0359 -0.7192,-1.2538 -1.6713,-2.4032 -2.8562,-3.4481 -1.1849,-1.0448 -2.4755,-1.8218 -3.8719,-2.3312 -1.3963,-0.5094 -2.8987,-0.7642 -4.5065,-0.7642 -0.6208,0 -1.2274,0.0521 -1.8198,0.1567 -0.5922,0.1046 -1.1707,0.2614 -1.7348,0.4703 -0.5641,0.1568 -1.0721,0.3983 -1.5234,0.7248 -0.4513,0.3266 -0.8464,0.7118 -1.1849,1.156 l -2.0735,-11.8726 h -7.7015 l 5.1625,30.132 z m 3.7661,-5.5251 c -0.7898,-0.0521 -1.5021,-0.1958 -2.1368,-0.4308 -0.6347,-0.2353 -1.2061,-0.5749 -1.7138,-1.0188 -0.5077,-0.4442 -0.917,-0.934 -1.2271,-1.4695 -0.3104,-0.5354 -0.5219,-1.1035 -0.6347,-1.7044 -0.0284,-0.0783 -0.0496,-0.1568 -0.0635,-0.235 -0.0142,-0.0786 -0.0213,-0.1568 -0.0213,-0.2353 0,-0.0782 0,-0.1565 0,-0.235 0,-0.0782 0,-0.1437 0,-0.1959 0,-0.5224 0.0848,-0.9992 0.254,-1.4301 0.1692,-0.4311 0.4371,-0.8163 0.8039,-1.1559 0.3668,-0.3396 0.811,-0.5944 1.3329,-0.7642 0.5218,-0.1698 1.1355,-0.2546 1.8408,-0.2546 0.79,0 1.5092,0.1111 2.158,0.3331 0.6489,0.2219 1.2274,0.542 1.7351,0.9598 0.5077,0.4442 0.9167,0.9275 1.2271,1.4499 0.3104,0.5224 0.5219,1.1101 0.6347,1.7632 0,0.026 0,0.0524 0,0.0785 0,0.0261 0.0142,0.0652 0.0425,0.1173 0,0.0264 0,0.059 0,0.0981 0,0.0391 0,0.0717 0,0.0981 0,0.0521 0,0.0913 0,0.1173 0,0.0261 0.0139,0.0655 0.0422,0.1177 0,0.0261 0,0.0587 0,0.0978 0,0.0394 0,0.072 0,0.0981 0,0.5224 -0.0918,1.0057 -0.2752,1.4499 -0.1831,0.4439 -0.4584,0.8356 -0.8249,1.1752 -0.3668,0.366 -0.8113,0.6401 -1.3331,0.8229 -0.5219,0.1829 -1.1356,0.2744 -1.8408,0.2744 z m 29.2402,6.1912 c 1.58,-0.0524 3.0469,-0.2744 4.4011,-0.6661 1.3541,-0.3921 2.5812,-0.9797 3.6813,-1.7635 1.1001,-0.7835 1.9324,-1.724 2.4968,-2.821 0.5641,-1.0973 0.8461,-2.3641 0.8461,-3.8007 0,-0.0785 0,-0.1502 0,-0.2157 0,-0.0652 0,-0.1372 0,-0.2155 -0.0281,-0.0521 -0.0422,-0.1176 -0.0422,-0.1958 0,-0.0786 0,-0.1568 0,-0.2353 0,-0.0782 -0.007,-0.1565 -0.0213,-0.235 -0.0142,-0.0782 -0.021,-0.1437 -0.021,-0.1959 -0.0283,-0.0782 -0.0496,-0.1567 -0.0635,-0.235 -0.0141,-0.0785 -0.0212,-0.1567 -0.0212,-0.2352 -0.2821,-1.698 -0.8674,-3.2066 -1.7561,-4.5256 -0.8886,-1.3192 -2.0664,-2.436 -3.5334,-3.3502 -1.4669,-0.9403 -3.0044,-1.6325 -4.6125,-2.0767 -1.6078,-0.4442 -3.2865,-0.6661 -5.0355,-0.6661 -1.5797,0 -3.0466,0.1828 -4.4008,0.5485 -1.3541,0.3656 -2.5812,0.9275 -3.6816,1.6849 -1.1001,0.7577 -1.9253,1.6849 -2.4755,2.7819 -0.5499,1.0973 -0.8252,2.3641 -0.8252,3.801 0,0.1304 0,0.2676 0,0.4113 0,0.1437 0.0142,0.294 0.0426,0.4507 0,0.1568 0.0139,0.3135 0.0422,0.47 0.0283,0.1567 0.0564,0.3135 0.0848,0.4703 0.282,1.6979 0.8603,3.2065 1.7348,4.5258 0.8744,1.3189 2.0452,2.4488 3.5121,3.3893 1.4669,0.9403 3.0044,1.6456 4.6125,2.1158 1.6081,0.4703 3.2865,0.7053 5.0355,0.7053 z m -1.0579,-6.1912 c -0.7897,-0.0521 -1.5021,-0.1958 -2.1368,-0.4308 -0.6349,-0.2353 -1.2061,-0.5749 -1.7138,-1.0188 -0.508,-0.4442 -0.917,-0.934 -1.2271,-1.4695 -0.3104,-0.5354 -0.5219,-1.1035 -0.635,-1.7044 -0.028,-0.0783 -0.0493,-0.1568 -0.0632,-0.235 -0.0142,-0.0786 -0.0212,-0.1568 -0.0212,-0.2353 0,-0.0782 0,-0.1565 0,-0.235 0,-0.0782 0,-0.1437 0,-0.1959 0,-0.5224 0.0844,-0.9992 0.2539,-1.4301 0.1693,-0.4311 0.4371,-0.8163 0.804,-1.1559 0.3668,-0.3396 0.8109,-0.5944 1.3328,-0.7642 0.5219,-0.1698 1.1356,-0.2546 1.8408,-0.2546 0.79,0 1.5092,0.1111 2.158,0.3331 0.6489,0.2219 1.2272,0.542 1.7351,0.9598 0.5077,0.4442 0.9167,0.9275 1.2271,1.4499 0.3104,0.5224 0.5219,1.1101 0.6347,1.7632 0,0.026 0,0.0524 0,0.0785 0,0.0261 0.0142,0.0652 0.0423,0.1173 0,0.0264 0,0.059 0,0.0981 0,0.0391 0,0.0717 0,0.0981 0,0.0521 0,0.0913 0,0.1173 0,0.0261 0.0141,0.0655 0.0425,0.1177 0,0.0261 0,0.0587 0,0.0978 0,0.0394 0,0.072 0,0.0981 0,0.5224 -0.0919,1.0057 -0.2753,1.4499 -0.1831,0.4439 -0.4583,0.8356 -0.8251,1.1752 -0.3666,0.366 -0.811,0.6401 -1.3329,0.8229 -0.5218,0.1829 -1.1355,0.2744 -1.8408,0.2744 z m 25.1779,5.5251 -0.5499,-3.2916 h 0.0844 c 0.4797,0.5748 1.0015,1.0842 1.5659,1.5281 0.5641,0.4442 1.1707,0.8099 1.8196,1.0973 0.6488,0.2872 1.3257,0.5029 2.031,0.6466 0.7052,0.1434 1.4388,0.2154 2.2005,0.2154 l 1.4811,0.0783 -1.1426,-6.857 c -0.254,0.1046 -0.5077,0.2024 -0.7617,0.2939 -0.254,0.0913 -0.5077,0.1502 -0.7617,0.1763 -0.254,0.0522 -0.5147,0.0848 -0.7829,0.0978 -0.2679,0.0133 -0.557,0.0199 -0.8674,0.0199 -1.0721,0 -1.9888,-0.1438 -2.7505,-0.4312 -0.7616,-0.2874 -1.3682,-0.7313 -1.8195,-1.3323 -0.4516,-0.5746 -0.8252,-1.2211 -1.1214,-1.9394 -0.2962,-0.7183 -0.5151,-1.5086 -0.6559,-2.3706 l -1.3964,-8.0326 h -7.7014 l 3.4273,20.1011 z m 21.4118,-5.8777 -2.412,-14.2234 h -7.7015 l 2.412,14.2234 h -2.4965 l 1.0154,5.8777 h 2.4968 l 1.0579,6.0341 h 7.7014 l -1.0579,-6.0341 h 4.3586 l -1.0157,-5.8777 z"
           style="fill:#ff0000;fill-opacity:1;fill-rule:nonzero;stroke:none"
           id="path876" />
      </g>
    </g>
  </g>
</svg>
