<?xml version="1.0" encoding="UTF-8" standalone="no"?>
<!-- Created with Inkscape (http://www.inkscape.org/) -->

<svg
   width="521.2298"
   height="131.80092"
   viewBox="0 0 137.90871 34.872327"
   version="1.1"
   id="svg5"
   inkscape:version="1.1.1 (3bf5ae0d25, 2021-09-20)"
   sodipodi:docname="vircam-mobile.svg"
   xmlns:inkscape="http://www.inkscape.org/namespaces/inkscape"
   xmlns:sodipodi="http://sodipodi.sourceforge.net/DTD/sodipodi-0.dtd"
   xmlns="http://www.w3.org/2000/svg"
   xmlns:svg="http://www.w3.org/2000/svg">
  <sodipodi:namedview
     id="namedview7"
     pagecolor="#ffffff"
     bordercolor="#666666"
     borderopacity="1.0"
     inkscape:pageshadow="2"
     inkscape:pageopacity="0.0"
     inkscape:pagecheckerboard="0"
     inkscape:document-units="mm"
     showgrid="false"
     lock-margins="true"
     units="px"
     fit-margin-top="5"
     fit-margin-left="5"
     fit-margin-right="5"
     fit-margin-bottom="5"
     inkscape:zoom="0.7768238"
     inkscape:cx="258.74593"
     inkscape:cy="-131.94755"
     inkscape:window-width="1366"
     inkscape:window-height="705"
     inkscape:window-x="-8"
     inkscape:window-y="-8"
     inkscape:window-maximized="1"
     inkscape:current-layer="layer1" />
  <defs
     id="defs2" />
  <g
     inkscape:label="Capa 1"
     inkscape:groupmode="layer"
     id="layer1"
     transform="translate(-20.0539,-100.76631)">
    <g
       id="g1405">
      <path
         d="m 30.31064,124.48948 h -3.897598 l -1.05374,1.75106 h -3.002558 l 5.904034,-10.0786 h 3.089206 l 2.381925,10.0786 h -3.017054 z m -0.41861,-2.00507 -0.606304,-3.20802 h -0.02883 l -1.7179,3.20802 z m 5.788662,-3.10107 h 2.627271 l -0.620734,3.66252 c -0.0097,0.0624 -0.01691,0.11807 -0.02167,0.16709 -0.0048,0.049 -0.01209,0.0958 -0.02167,0.14031 -0.0097,0.0446 -0.0145,0.087 -0.0145,0.12697 0,0.0402 0.0048,0.0825 0.0145,0.12707 0,0.14253 0.01929,0.27172 0.05776,0.38757 0.03848,0.11585 0.0962,0.21836 0.173196,0.30743 0.07696,0.0891 0.187693,0.15375 0.332063,0.19387 0.144267,0.0401 0.322374,0.0601 0.534051,0.0601 0.269533,0 0.498028,-0.0335 0.68572,-0.10026 0.187693,-0.0668 0.339228,-0.17156 0.454668,-0.31408 0.105889,-0.13376 0.194961,-0.28963 0.26711,-0.46784 0.07212,-0.17824 0.127553,-0.3788 0.166032,-0.6016 l 0.620702,-3.68919 h 2.627266 l -0.70738,4.13035 c -0.0962,0.57926 -0.2695,1.06486 -0.51965,1.457 -0.25026,0.39211 -0.587069,0.69064 -1.010521,0.89552 -0.413766,0.19612 -0.863727,0.34534 -1.349642,0.44781 -0.486021,0.10252 -1.008097,0.15379 -1.566267,0.15379 -0.500415,0 -0.957607,-0.0401 -1.371407,-0.12032 -0.413766,-0.0802 -0.789154,-0.20055 -1.125958,-0.36096 -0.327253,-0.16033 -0.574988,-0.39425 -0.743443,-0.70175 -0.168452,-0.30744 -0.252576,-0.68388 -0.252576,-1.12947 v -0.14031 c 0,-0.049 0.0047,-0.1003 0.01439,-0.15376 0,-0.0446 0.0048,-0.0936 0.01439,-0.14709 0.0097,-0.0535 0.01929,-0.11139 0.02893,-0.17378 z m 12.082445,2.00496 -0.82282,4.85224 h -2.62728 l 0.82283,-4.85224 h -0.85162 l 0.34646,-2.00496 h 0.85165 l 0.36089,-2.05846 h 2.62724 l -0.36088,2.05846 h 1.48688 l -0.3465,2.00496 z m 6.62592,-2.23223 c 0.53889,0.0178 1.03934,0.0936 1.50128,0.22727 0.46193,0.13362 0.88064,0.33417 1.25593,0.60146 0.37529,0.26738 0.65921,0.58815 0.85165,0.96245 0.19254,0.37426 0.28874,0.80648 0.28874,1.29656 v 0.0735 0.0736 c -0.01,0.0178 -0.0144,0.04 -0.0144,0.0668 v 0.0802 c 0,0.0268 -0.002,0.0535 -0.007,0.0802 -0.005,0.0267 -0.007,0.049 -0.007,0.0668 -0.01,0.0267 -0.0168,0.0535 -0.0216,0.0802 -0.005,0.0268 -0.007,0.0535 -0.007,0.0802 -0.0962,0.57922 -0.2959,1.09386 -0.59907,1.54392 -0.30313,0.45003 -0.70493,0.83095 -1.20538,1.14292 -0.50041,0.32073 -1.02491,0.55687 -1.57349,0.7084 -0.54848,0.15143 -1.12115,0.22727 -1.7178,0.22727 -0.5389,0 -1.03931,-0.0625 -1.50128,-0.18722 -0.46194,-0.12475 -0.88054,-0.3163 -1.25593,-0.57478 -0.37529,-0.25841 -0.6568,-0.57471 -0.84449,-0.94904 -0.18759,-0.37423 -0.2815,-0.80649 -0.2815,-1.29657 v -0.14031 c 0,-0.049 0.005,-0.10026 0.0145,-0.15375 0,-0.0534 0.005,-0.10694 0.0144,-0.1604 0.01,-0.0535 0.0192,-0.10698 0.0288,-0.16044 0.0963,-0.57925 0.29358,-1.09379 0.5919,-1.54381 0.29829,-0.45007 0.6977,-0.83542 1.19811,-1.15626 0.50042,-0.32077 1.02492,-0.56144 1.5735,-0.72178 0.54858,-0.16043 1.12115,-0.24057 1.7178,-0.24057 z m -0.36089,2.11195 c -0.2694,0.0179 -0.51242,0.0668 -0.72894,0.1471 -0.21659,0.0801 -0.41145,0.19598 -0.58464,0.34751 -0.1733,0.15144 -0.31283,0.31856 -0.41862,0.5012 -0.10588,0.18279 -0.1781,0.37655 -0.21662,0.58147 -0.01,0.0268 -0.0168,0.0535 -0.0217,0.0803 -0.005,0.0267 -0.007,0.0535 -0.007,0.0802 v 0.0802 0.0668 c 0,0.17821 0.0288,0.34087 0.0866,0.48787 0.0578,0.14706 0.14918,0.2785 0.27431,0.39435 0.12517,0.11582 0.27666,0.20267 0.4547,0.2606 0.17804,0.0579 0.3874,0.0869 0.62797,0.0869 0.26943,0 0.51484,-0.0379 0.73618,-0.1136 0.22136,-0.0757 0.41864,-0.1849 0.5919,-0.32753 0.1732,-0.15143 0.31272,-0.3163 0.41861,-0.49454 0.10589,-0.17822 0.17804,-0.37877 0.21652,-0.60157 v -0.0267 c 0,-0.009 0.005,-0.0222 0.0144,-0.0402 v -0.0334 -0.0335 -0.0401 c 0,-0.009 0.005,-0.0222 0.0145,-0.04 v -0.0335 -0.0334 c 0,-0.17821 -0.0313,-0.34311 -0.0939,-0.49461 -0.0626,-0.15143 -0.15634,-0.28519 -0.28147,-0.40104 -0.12513,-0.12472 -0.27666,-0.21833 -0.4547,-0.28073 -0.17801,-0.0624 -0.38736,-0.0935 -0.62797,-0.0935 z m 11.70723,-1.67079 -1.15489,1.5505 c -0.0288,-0.009 -0.0601,-0.0178 -0.0938,-0.0267 -0.0336,-0.009 -0.065,-0.0223 -0.0938,-0.0401 -0.0385,-0.009 -0.0747,-0.02 -0.10831,-0.0334 -0.0337,-0.0134 -0.0697,-0.0246 -0.10821,-0.0335 -0.0674,-0.0267 -0.14195,-0.0512 -0.22379,-0.0735 -0.0818,-0.0224 -0.16119,-0.0424 -0.23814,-0.0602 -0.0385,0 -0.0794,-0.002 -0.12271,-0.007 -0.0433,-0.005 -0.0891,-0.0112 -0.13714,-0.0201 h -0.0578 c -0.0192,0 -0.0385,-0.004 -0.0577,-0.0134 h -0.0577 -0.0577 -0.0361 -0.0506 c -0.01,0.009 -0.0217,0.0134 -0.0361,0.0134 h -0.0505 c -0.0289,0.009 -0.0577,0.0156 -0.0867,0.0201 -0.0289,0.004 -0.0577,0.007 -0.0866,0.007 -0.0673,0.0178 -0.12987,0.04 -0.18763,0.0668 -0.0577,0.0267 -0.11554,0.0579 -0.17326,0.0935 -0.0578,0.0357 -0.10108,0.0758 -0.12987,0.12038 -0.0289,0.0445 -0.0482,0.0935 -0.0578,0.14697 v 0.02 0.0201 0.02 0.007 c 0,0.0624 0.0144,0.12029 0.0433,0.17378 0.0289,0.0535 0.0771,0.098 0.14437,0.13362 0.0674,0.0357 0.1371,0.0647 0.20935,0.087 0.0721,0.0222 0.15154,0.0423 0.23815,0.0601 0.0289,0.009 0.0602,0.0178 0.0938,0.0267 0.0337,0.009 0.0698,0.0134 0.10831,0.0134 0.0385,0.009 0.0745,0.0156 0.10831,0.02 0.0336,0.004 0.0649,0.007 0.0938,0.007 v 0.007 c 0,0.004 0.005,0.007 0.0144,0.007 v 0 0 h 0.007 0.0217 c 0.25985,0.0534 0.50042,0.12482 0.72178,0.21389 0.22133,0.0892 0.41861,0.19602 0.59181,0.32084 0.1733,0.12475 0.30317,0.28065 0.38978,0.46784 0.0867,0.18714 0.12987,0.40547 0.12987,0.65498 v 0.10026 0.0868 c 0,0.0267 -0.002,0.0557 -0.007,0.0869 -0.005,0.0311 -0.0121,0.0646 -0.0217,0.10019 -0.0674,0.40991 -0.20454,0.76411 -0.41148,1.06264 -0.20683,0.2986 -0.47875,0.55032 -0.81555,0.75521 -0.32726,0.19612 -0.67129,0.34977 -1.03218,0.46119 -0.3609,0.11138 -0.7386,0.18486 -1.13316,0.22054 h -0.0794 c -0.0241,0 -0.0457,0.004 -0.065,0.0134 h -0.0794 -0.065 -0.065 c -0.024,0 -0.0456,0.004 -0.0649,0.0134 h -0.065 -0.065 c -0.2694,0 -0.52924,-0.0157 -0.7795,-0.0468 -0.25026,-0.0312 -0.49557,-0.0825 -0.73617,-0.15375 -0.24057,-0.0624 -0.47159,-0.14035 -0.69296,-0.23392 -0.22133,-0.0935 -0.433,-0.2027 -0.63513,-0.32753 l 1.24144,-1.72428 c 0.077,0.0713 0.16122,0.13588 0.25257,0.1938 0.0915,0.0579 0.19497,0.1136 0.31044,0.16709 0.10589,0.0535 0.21649,0.10252 0.33196,0.14707 0.11555,0.0445 0.23586,0.0802 0.36089,0.10688 0.0578,0.0179 0.11554,0.0334 0.1733,0.0468 0.0577,0.0134 0.11544,0.0246 0.17316,0.0334 0.0289,0.009 0.0578,0.0156 0.0867,0.02 0.0288,0.004 0.0626,0.007 0.10104,0.007 h 0.0866 0.0866 0.065 0.0794 c 0.0289,0 0.0578,-0.004 0.0867,-0.0133 0.0288,-0.009 0.0578,-0.0178 0.0866,-0.0267 0.0674,-0.0179 0.1324,-0.0401 0.19497,-0.0669 0.0626,-0.0267 0.1227,-0.0579 0.18042,-0.0935 0.0577,-0.0446 0.10582,-0.0936 0.1443,-0.1471 0.0386,-0.0534 0.0626,-0.11138 0.0722,-0.17377 v -0.02 -0.02 -0.0201 -0.02 c 0,-0.0802 -0.0241,-0.15154 -0.0722,-0.2139 -0.0481,-0.0624 -0.11547,-0.11138 -0.20202,-0.14699 -0.0963,-0.0357 -0.19735,-0.0691 -0.30313,-0.10026 -0.10589,-0.0311 -0.22621,-0.0646 -0.36089,-0.1003 -0.0385,0 -0.0771,-0.004 -0.11558,-0.0133 -0.0385,-0.009 -0.077,-0.0178 -0.11544,-0.0267 -0.0385,-0.009 -0.077,-0.0179 -0.11548,-0.0268 l -0.11544,-0.0267 h -0.0289 -0.0289 c -0.01,0 -0.0192,-0.002 -0.0288,-0.007 -0.01,-0.004 -0.0192,-0.0112 -0.0289,-0.0201 -0.18284,-0.0445 -0.35362,-0.10241 -0.51242,-0.17378 -0.15876,-0.0713 -0.3104,-0.15586 -0.45467,-0.25394 -0.14437,-0.098 -0.25025,-0.23166 -0.31767,-0.40101 -0.0673,-0.1693 -0.0962,-0.36979 -0.0866,-0.60146 v -0.087 -0.10016 c 0,-0.0268 0.002,-0.0557 0.007,-0.087 0.005,-0.0312 0.0121,-0.0646 0.0217,-0.10026 0.0674,-0.37422 0.19725,-0.70622 0.38979,-0.99581 0.19243,-0.28963 0.44754,-0.53245 0.7651,-0.72847 0.31757,-0.19608 0.6471,-0.34976 0.98876,-0.46115 0.34164,-0.11141 0.69537,-0.18489 1.0611,-0.22057 h 0.0577 c 0.0192,0 0.0433,-0.004 0.0722,-0.0133 h 0.0577 0.0577 0.0577 c 0.0193,0 0.0386,-0.004 0.0578,-0.0133 h 0.0577 0.0577 c 0.21168,0 0.41861,0.009 0.62074,0.0267 0.20208,0.0178 0.40421,0.0446 0.6063,0.0802 0.20209,0.0357 0.39695,0.0803 0.58464,0.13373 0.18759,0.0535 0.3729,0.12029 0.55575,0.20045 z m 4.20077,-0.21389 -0.12998,0.77523 h 0.0289 c 0.11544,-0.12475 0.24531,-0.24057 0.38968,-0.34755 0.14437,-0.10695 0.30317,-0.20045 0.47637,-0.28062 0.16361,-0.0802 0.33206,-0.14485 0.50526,-0.19387 0.17326,-0.049 0.3513,-0.0868 0.53415,-0.11363 0.0192,0 0.0385,-0.002 0.0578,-0.007 0.0192,-0.004 0.0433,-0.007 0.0721,-0.007 0.0192,-0.009 0.0385,-0.0133 0.0578,-0.0133 h 0.0577 0.065 c 0.0241,0 0.0457,-0.004 0.065,-0.0133 h 0.0649 0.0649 c 0.49083,0 0.92868,0.0735 1.31365,0.22047 0.38498,0.14707 0.71694,0.36765 0.99602,0.66171 0.27909,0.29406 0.49087,0.62148 0.63524,0.98247 0.14426,0.36089 0.21651,0.75068 0.21651,1.16959 v 0.0802 0.0802 c -0.01,0.0268 -0.0144,0.0535 -0.0144,0.0803 v 0.0802 c -0.01,0.0534 -0.0169,0.10694 -0.0217,0.1604 -0.005,0.0535 -0.0121,0.10695 -0.0217,0.16044 -0.0866,0.49007 -0.25268,0.94901 -0.49799,1.37673 -0.24541,0.42778 -0.57024,0.81982 -0.97446,1.17624 -0.40421,0.35656 -0.84448,0.62162 -1.32082,0.79536 -0.47636,0.17378 -0.98885,0.26073 -1.53733,0.26073 -0.21178,0 -0.41871,-0.0179 -0.62073,-0.0535 -0.2021,-0.0357 -0.39948,-0.0892 -0.59191,-0.16044 -0.19244,-0.0534 -0.36574,-0.13584 -0.51966,-0.24725 -0.15395,-0.11138 -0.28877,-0.24289 -0.40421,-0.39436 l -0.70739,4.05011 h -2.62723 l 1.76112,-10.27904 z m 1.28475,1.88468 c -0.26949,0.0179 -0.51252,0.0668 -0.72901,0.1471 -0.21652,0.0801 -0.41148,0.19598 -0.58467,0.34751 -0.1732,0.15144 -0.31272,0.31856 -0.41861,0.5012 -0.10589,0.18279 -0.17801,0.37655 -0.21652,0.58147 -0.01,0.0268 -0.0169,0.0535 -0.0217,0.0803 -0.005,0.0267 -0.007,0.0535 -0.007,0.0802 v 0.0802 0.0668 c 0,0.17821 0.0289,0.34087 0.0867,0.48787 0.0577,0.14706 0.14911,0.2785 0.27424,0.39435 0.12513,0.11582 0.27666,0.20267 0.45467,0.2606 0.17814,0.0579 0.38739,0.0869 0.62796,0.0869 0.26953,0 0.51485,-0.0379 0.73621,-0.1136 0.22133,-0.0757 0.41871,-0.1849 0.59187,-0.32753 0.1732,-0.15143 0.31276,-0.3163 0.41865,-0.49454 0.10585,-0.17822 0.178,-0.37877 0.21648,-0.60157 v -0.0267 c 0,-0.009 0.005,-0.0222 0.0145,-0.0402 v -0.0334 -0.0335 -0.0401 c 0,-0.009 0.005,-0.0222 0.0144,-0.04 v -0.0335 -0.0334 c 0,-0.17821 -0.0313,-0.34311 -0.0938,-0.49461 -0.0626,-0.15143 -0.15644,-0.28519 -0.28147,-0.40104 -0.12513,-0.12472 -0.27676,-0.21833 -0.4548,-0.28073 -0.17801,-0.0624 -0.38726,-0.0935 -0.62787,-0.0935 z"
         style="fill:#ffffff;fill-opacity:1;fill-rule:nonzero;stroke:none;stroke-width:0.264583"
         id="path1008" />
      <path
         d="m 26.85016,104.03013 1.587893,6.12202 3.681012,-6.12202 h 3.074775 l -6.366071,10.0786 H 26.63364 l -2.858255,-10.0786 z m 11.360735,3.22139 -1.169283,6.85721 h -2.627271 l 1.169317,-6.85721 z m -0.6207,-3.99673 c 0.182747,0.0179 0.348779,0.0557 0.497993,0.11363 0.149111,0.0579 0.281506,0.14042 0.396947,0.24736 0.115476,0.10685 0.202124,0.22945 0.259845,0.36754 0.05772,0.1381 0.08665,0.28741 0.08665,0.44782 v 0.0267 0.0268 0.0267 0.0267 0.0201 0.007 c -0.0097,0.009 -0.0145,0.0156 -0.0145,0.02 v 0.007 0.0268 0.0267 c -0.02883,0.18711 -0.09381,0.36089 -0.194858,0.52129 -0.101045,0.16044 -0.233338,0.30744 -0.396948,0.44116 -0.173196,0.13366 -0.351338,0.23392 -0.534085,0.30075 -0.18285,0.0668 -0.375388,0.10026 -0.577512,0.10026 -0.18285,0 -0.351201,-0.0268 -0.505259,-0.0802 -0.153921,-0.0535 -0.288636,-0.13809 -0.404111,-0.25394 -0.115544,-0.11585 -0.20209,-0.24282 -0.259811,-0.38102 -0.05782,-0.13809 -0.08665,-0.29184 -0.08665,-0.46115 v -0.0467 -0.0335 -0.0535 c 0,-0.0178 0.0048,-0.0356 0.0144,-0.0535 0.02893,-0.18711 0.09392,-0.36089 0.194858,-0.52133 0.101045,-0.16033 0.238285,-0.3074 0.411446,-0.44102 0.163644,-0.13376 0.339227,-0.23395 0.526921,-0.30075 0.187626,-0.0669 0.382552,-0.10029 0.584676,-0.10029 z m 4.980165,3.99673 -0.187591,1.12279 h 0.02879 c 0.163609,-0.19602 0.341649,-0.36979 0.534187,-0.52133 0.192436,-0.15143 0.39937,-0.27615 0.6207,-0.37422 0.221364,-0.0981 0.45228,-0.17153 0.692885,-0.22058 0.24057,-0.049 0.490828,-0.0735 0.750673,-0.0735 l 0.505259,-0.0268 -0.389784,2.33928 c -0.08665,-0.0357 -0.173196,-0.0692 -0.259845,-0.1003 -0.08665,-0.0312 -0.173195,-0.0512 -0.259844,-0.0601 -0.08665,-0.0179 -0.175618,-0.029 -0.267077,-0.0335 -0.09139,-0.004 -0.190013,-0.007 -0.295902,-0.007 -0.365734,0 -0.678455,0.049 -0.938299,0.14707 -0.259811,0.098 -0.466745,0.24951 -0.6207,0.45439 -0.154058,0.19612 -0.281507,0.4167 -0.382552,0.66174 -0.101045,0.24504 -0.175618,0.51464 -0.223752,0.8087 l -0.476365,2.74019 h -2.627237 l 1.169181,-6.85721 z m 9.224327,0.17378 -0.34646,2.05846 c -0.08665,-0.0535 -0.178039,-0.10695 -0.27424,-0.16034 -0.09624,-0.0535 -0.197382,-0.10251 -0.303169,-0.1471 -0.105889,-0.0446 -0.21652,-0.0802 -0.332063,-0.10694 -0.115475,-0.0267 -0.235761,-0.04 -0.36089,-0.04 -0.250156,0 -0.49076,0.04 -0.721779,0.12029 -0.230916,0.0802 -0.447436,0.20045 -0.649526,0.36089 -0.20209,0.16043 -0.363311,0.34086 -0.483596,0.54131 -0.120286,0.20056 -0.199702,0.4166 -0.238183,0.6483 -0.0097,0.0268 -0.01692,0.0535 -0.02166,0.0802 -0.0048,0.0267 -0.0072,0.0534 -0.0072,0.0802 v 0.0802 0.0668 c 0,0.20503 0.03606,0.39214 0.108311,0.56145 0.07212,0.1693 0.180428,0.3164 0.324695,0.44115 0.144369,0.12472 0.312823,0.21823 0.505259,0.28062 0.192538,0.0625 0.409058,0.0936 0.649628,0.0936 h 0.115475 c 0.03848,0 0.07696,-0.004 0.115475,-0.0133 h 0.05782 c 0.01924,0 0.04322,-0.004 0.07212,-0.0134 0.01924,0 0.03851,-0.002 0.05775,-0.007 0.01924,-0.005 0.03848,-0.0112 0.05772,-0.0201 0.07696,-0.0178 0.156377,-0.0401 0.238182,-0.0668 0.0818,-0.0267 0.161187,-0.0579 0.238148,-0.0936 0.0771,-0.0356 0.151636,-0.0735 0.223786,-0.11363 0.07222,-0.04 0.141948,-0.0869 0.209356,-0.14031 l -0.346493,2.03174 c -0.0962,0.0535 -0.190014,0.0959 -0.281473,0.12698 -0.09139,0.0312 -0.185306,0.0557 -0.281506,0.0735 -0.04807,0.0179 -0.09624,0.0312 -0.14437,0.0401 -0.04807,0.009 -0.09624,0.0178 -0.144301,0.0268 -0.05782,0.0178 -0.110699,0.0311 -0.158765,0.04 -0.04817,0.009 -0.0963,0.0178 -0.14437,0.0268 -0.06741,0.009 -0.132395,0.0156 -0.19496,0.02 -0.06256,0.004 -0.127449,0.0111 -0.194858,0.02 h -0.09378 c -0.03377,0 -0.06499,0.004 -0.09392,0.0134 h -0.100942 -0.08665 c -0.500415,0 -0.955185,-0.0669 -1.364141,-0.20056 -0.409058,-0.13366 -0.781922,-0.33865 -1.118727,-0.61483 -0.327253,-0.27629 -0.572668,-0.59491 -0.736277,-0.9558 -0.16361,-0.36089 -0.245449,-0.76411 -0.245449,-1.20971 v -0.14031 c 0,-0.049 0.0048,-0.0958 0.01453,-0.14031 0.0096,-0.0446 0.01682,-0.0914 0.02166,-0.14041 0.0047,-0.049 0.01197,-0.10029 0.02166,-0.15368 0.0962,-0.55254 0.281473,-1.05149 0.555713,-1.49708 0.274241,-0.44563 0.642397,-0.84217 1.104331,-1.18972 0.45228,-0.34755 0.938265,-0.60815 1.457954,-0.78192 0.519655,-0.17378 1.073082,-0.2606 1.660044,-0.2606 0.154057,0 0.303169,0.009 0.447538,0.0267 0.144369,0.0178 0.288739,0.0446 0.433108,0.0802 0.134716,0.0357 0.267009,0.0758 0.396982,0.12028 0.129871,0.0446 0.257388,0.10251 0.382518,0.17378 z m 9.758343,-0.17378 -1.169215,6.85721 h -2.627237 l 0.129871,-0.7619 h -0.02883 c -0.115544,0.15144 -0.245415,0.28062 -0.389784,0.38757 -0.144404,0.10695 -0.298325,0.19612 -0.461969,0.26738 -0.163609,0.0713 -0.329641,0.13141 -0.497992,0.18043 -0.168454,0.0491 -0.339227,0.0869 -0.512525,0.11363 -0.04803,0.009 -0.0962,0.0156 -0.144267,0.02 -0.04814,0.004 -0.0963,0.007 -0.14437,0.007 h -0.06499 c -0.02408,0 -0.04575,0.004 -0.06499,0.0134 h -0.06489 -0.06499 c -0.490829,0 -0.928713,-0.0714 -1.313653,-0.21393 -0.384974,-0.14263 -0.716935,-0.36089 -0.996019,-0.65495 -0.288739,-0.29406 -0.502837,-0.61937 -0.642397,-0.97579 -0.139525,-0.35646 -0.209356,-0.74412 -0.209356,-1.16294 v -0.14706 c 0,-0.0534 0.0048,-0.10685 0.0145,-0.16034 0,-0.0534 0.0047,-0.10694 0.01443,-0.16043 0.0096,-0.0535 0.01924,-0.10695 0.02883,-0.16041 0.07706,-0.49008 0.23825,-0.94901 0.483597,-1.37673 0.245414,-0.42782 0.570245,-0.81992 0.974425,-1.17638 0.404214,-0.36532 0.846806,-0.63936 1.328083,-0.82203 0.481208,-0.18268 0.996019,-0.27394 1.544602,-0.27394 0.211676,0 0.41861,0.02 0.620734,0.0601 0.20209,0.04 0.39937,0.0957 0.591806,0.16699 0.192538,0.0714 0.365699,0.16266 0.519655,0.27407 0.154058,0.11138 0.288739,0.24279 0.404214,0.39432 l 0.115475,-0.69507 z m -4.54716,1.88469 c -0.269498,0.0179 -0.512388,0.0668 -0.729011,0.1471 -0.21652,0.0801 -0.411343,0.19598 -0.584539,0.34751 -0.173298,0.15143 -0.312823,0.31856 -0.418712,0.5012 -0.105787,0.18278 -0.17804,0.37655 -0.21652,0.58147 -0.0096,0.0268 -0.01682,0.0535 -0.02166,0.0803 -0.0048,0.0267 -0.0072,0.0535 -0.0072,0.0802 v 0.0802 0.0668 c 0,0.17821 0.02883,0.34087 0.08655,0.48786 0.05772,0.14707 0.149214,0.27851 0.274343,0.39436 0.125027,0.11581 0.276663,0.20267 0.454702,0.26059 0.178006,0.0579 0.387362,0.0869 0.627967,0.0869 0.269396,0 0.51481,-0.0379 0.736174,-0.11359 0.221331,-0.0757 0.41861,-0.1849 0.591806,-0.32753 0.173298,-0.15143 0.312823,-0.3163 0.418712,-0.49455 0.105787,-0.17821 0.17804,-0.37876 0.21652,-0.60156 v -0.0267 c 0,-0.009 0.0048,-0.0222 0.0144,-0.0401 v -0.0334 -0.0335 -0.0401 c 0,-0.009 0.0048,-0.0222 0.0144,-0.04 v -0.0335 -0.0334 c 0,-0.17821 -0.03121,-0.34312 -0.09378,-0.49461 -0.06256,-0.15144 -0.156378,-0.2852 -0.281507,-0.40105 -0.125129,-0.12472 -0.276663,-0.21832 -0.454668,-0.28072 -0.17804,-0.0624 -0.387396,-0.0935 -0.628001,-0.0935 z m 8.921124,-1.88469 -0.144302,0.85551 h 0.02883 c 0.192538,-0.17821 0.384973,-0.33421 0.577409,-0.46784 0.192538,-0.13372 0.394628,-0.24514 0.606304,-0.33421 0.211778,-0.0802 0.428298,-0.14263 0.649628,-0.18711 0.221364,-0.0446 0.45228,-0.0668 0.692851,-0.0668 0.269532,0 0.522111,0.0267 0.757939,0.0801 0.23576,0.0535 0.454702,0.13366 0.656792,0.24061 0.202124,0.10695 0.37532,0.2406 0.519689,0.40101 0.14437,0.16043 0.264655,0.35645 0.36089,0.58815 0.144369,-0.18711 0.303135,-0.35424 0.47633,-0.5013 0.173298,-0.147 0.365734,-0.27397 0.57741,-0.38091 0.211778,-0.10695 0.425876,-0.19377 0.642362,-0.2607 0.216622,-0.0668 0.440272,-0.11363 0.67129,-0.14031 h 0.05049 c 0.0145,0 0.02651,-0.004 0.03616,-0.0133 h 0.05049 0.03606 0.05059 c 0.0144,0 0.03121,-0.004 0.05045,-0.0133 h 0.04332 0.05776 c 0.394628,0 0.729011,0.0467 1.003251,0.14031 0.274343,0.0936 0.488441,0.22945 0.642397,0.40766 0.163609,0.17825 0.286316,0.38545 0.368121,0.62162 0.08181,0.23614 0.122707,0.5012 0.122707,0.79526 0,0.0624 -0.0024,0.1225 -0.0072,0.18043 -0.0048,0.0579 -0.01201,0.11807 -0.02166,0.18046 0,0.0357 -0.0024,0.0691 -0.0072,0.10026 -0.0048,0.0312 -0.0073,0.0601 -0.0073,0.0869 -0.0096,0.0356 -0.01682,0.069 -0.02166,0.1002 -0.0048,0.0312 -0.0072,0.0647 -0.0072,0.10029 l -0.750605,4.34425 H 72.06215 l 0.562979,-3.27495 v -0.02 -0.0334 c 0,-0.0179 0.0024,-0.0334 0.0072,-0.0468 0.0048,-0.0134 0.01208,-0.029 0.02166,-0.0468 0,-0.0357 0.0024,-0.0735 0.0072,-0.11363 0.0048,-0.0401 0.01201,-0.0779 0.02166,-0.11363 0,-0.0446 0.0024,-0.0868 0.0072,-0.12697 0.0048,-0.0401 0.01211,-0.0779 0.02166,-0.1136 v -0.0268 c 0,-0.009 0.0048,-0.0222 0.0145,-0.04 v -0.0335 -0.0334 -0.0601 -0.0736 c 0,-0.12475 -0.0145,-0.24504 -0.04332,-0.36089 -0.02889,-0.11585 -0.07222,-0.21836 -0.129939,-0.30739 -0.05776,-0.0981 -0.144301,-0.17156 -0.259844,-0.22058 -0.115475,-0.049 -0.259845,-0.0735 -0.43304,-0.0735 -0.240571,0 -0.449927,0.0356 -0.627967,0.10695 -0.178005,0.0713 -0.319987,0.18268 -0.425876,0.33411 -0.105786,0.14263 -0.194823,0.29406 -0.266974,0.4545 -0.07222,0.16043 -0.127551,0.32974 -0.166032,0.50795 -0.0097,0.0357 -0.01924,0.0735 -0.02893,0.11363 -0.0096,0.0401 -0.01924,0.0824 -0.02879,0.12697 -0.0097,0.0357 -0.01685,0.0735 -0.02166,0.11364 -0.0048,0.0401 -0.0073,0.0779 -0.0073,0.1136 l -0.562979,3.24817 h -2.627271 l 0.563013,-3.27495 v -0.02 -0.0334 c 0,-0.0179 0.0024,-0.0334 0.0072,-0.0468 0.0048,-0.0134 0.01201,-0.0246 0.02166,-0.0335 0,-0.0446 0.0024,-0.0891 0.0072,-0.13366 0.0048,-0.0446 0.01208,-0.0891 0.02166,-0.13362 0.0097,-0.0446 0.01682,-0.0914 0.02166,-0.14041 0.0048,-0.049 0.01208,-0.0957 0.02166,-0.14031 v -0.0268 -0.0267 -0.0133 -0.0268 -0.0267 -0.0268 -0.0133 -0.0267 c 0,-0.13376 -0.01682,-0.26069 -0.05049,-0.38101 -0.03374,-0.12029 -0.07938,-0.23392 -0.137103,-0.34087 -0.06741,-0.098 -0.161324,-0.17377 -0.281609,-0.22723 -0.120285,-0.0535 -0.276663,-0.0802 -0.469099,-0.0802 -0.211778,0 -0.396947,0.0334 -0.555713,0.10026 -0.158902,0.0668 -0.291195,0.16703 -0.397084,0.30075 -0.0962,0.13366 -0.178006,0.27397 -0.245312,0.42103 -0.06741,0.1471 -0.125129,0.30075 -0.173298,0.46119 -0.0096,0.0624 -0.02166,0.12028 -0.03606,0.17374 -0.0144,0.0535 -0.02651,0.10698 -0.03606,0.16044 -0.0097,0.0535 -0.01924,0.10694 -0.02893,0.16033 -0.0096,0.0535 -0.01924,0.10251 -0.02883,0.14707 l -0.562979,3.24817 h -2.627237 l 1.169181,-6.85721 z"
         style="fill:#ffffff;fill-opacity:1;fill-rule:nonzero;stroke:none;stroke-width:0.341138"
         id="path852"
         sodipodi:nodetypes="ccccccccccccccccssccccccsccccccscccsccsccccccccccccccccccsccsccccccccccscscccscscccsscsccccccccccccccccsccsscsssccccccsccccccccccccscsssccscccssccccccsccccccccccccscscccsccccscccsccscccccccccccsccccccccscccsccsccssscccccccccsccscccsccccscccsccccccccccccsccccsccccccccscccsccccsccccccc" />
      <path
         d="m 80.965682,119.00044 c 0.53903,0.0178 1.03945,0.0936 1.50138,0.22726 0.46193,0.13363 0.88054,0.33418 1.25586,0.60146 0.37529,0.26739 0.65918,0.58816 0.85172,0.96246 0.19244,0.37426 0.28867,0.80648 0.28867,1.29656 0,0.0268 0,0.0513 0,0.0735 0,0.0224 0,0.0468 0,0.0736 -0.01,0.0178 -0.0144,0.04 -0.0144,0.0668 0,0.0267 0,0.0535 0,0.0802 0,0.0268 -0.002,0.0535 -0.007,0.0802 -0.005,0.0267 -0.007,0.049 -0.007,0.0668 -0.01,0.0267 -0.0169,0.0535 -0.0217,0.0802 -0.005,0.0268 -0.007,0.0535 -0.007,0.0802 -0.0962,0.57922 -0.29591,1.09386 -0.59904,1.54392 -0.30317,0.45003 -0.70496,0.83094 -1.20538,1.14291 -0.50044,0.32074 -1.02494,0.55688 -1.57353,0.70841 -0.54848,0.15143 -1.12111,0.22727 -1.71776,0.22727 -0.53893,0 -1.03934,-0.0625 -1.50128,-0.18722 -0.46193,-0.12475 -0.88054,-0.3163 -1.25593,-0.57478 -0.37532,-0.25841 -0.65679,-0.57472 -0.84449,-0.94905 -0.18762,-0.37423 -0.2814,-0.80648 -0.2814,-1.29656 0,-0.0446 0,-0.0914 0,-0.14031 0,-0.049 0.005,-0.10026 0.0144,-0.15375 0,-0.0535 0.005,-0.10695 0.0144,-0.1604 0.01,-0.0535 0.0193,-0.10698 0.0289,-0.16044 0.0962,-0.57925 0.29348,-1.09379 0.5918,-1.54382 0.29833,-0.45006 0.6977,-0.83541 1.19811,-1.15625 0.50045,-0.32077 1.02495,-0.56144 1.57353,-0.72178 0.54859,-0.16044 1.12115,-0.24057 1.71777,-0.24057 z m -0.36089,2.11195 c -0.2694,0.0179 -0.51239,0.0668 -0.72891,0.1471 -0.21662,0.0801 -0.41148,0.19598 -0.58464,0.34751 -0.1732,0.15143 -0.31286,0.31856 -0.41864,0.5012 -0.10589,0.18278 -0.17801,0.37655 -0.21649,0.58147 -0.01,0.0268 -0.0169,0.0535 -0.0217,0.0803 -0.005,0.0267 -0.007,0.0535 -0.007,0.0802 0,0.0268 0,0.0534 0,0.0802 0,0.0267 0,0.049 0,0.0668 0,0.17821 0.0289,0.34087 0.0866,0.48786 0.0577,0.14707 0.14911,0.27851 0.27424,0.39436 0.12513,0.11581 0.27666,0.20267 0.45467,0.26059 0.17804,0.0579 0.38739,0.0869 0.628,0.0869 0.2695,0 0.51481,-0.0379 0.73617,-0.11359 0.22133,-0.0757 0.41861,-0.1849 0.59191,-0.32753 0.1732,-0.15143 0.31272,-0.3163 0.41861,-0.49455 0.10589,-0.17821 0.17801,-0.37876 0.21652,-0.60156 0,-0.009 0,-0.0178 0,-0.0267 0,-0.009 0.005,-0.0222 0.0144,-0.0401 0,-0.009 0,-0.02 0,-0.0334 0,-0.0134 0,-0.0246 0,-0.0335 0,-0.0178 0,-0.0311 0,-0.0401 0,-0.009 0.005,-0.0222 0.0145,-0.04 0,-0.009 0,-0.0201 0,-0.0335 0,-0.0133 0,-0.0245 0,-0.0334 0,-0.17821 -0.0313,-0.34312 -0.0939,-0.49461 -0.0625,-0.15144 -0.15637,-0.2852 -0.2815,-0.40105 -0.12503,-0.12472 -0.27666,-0.21832 -0.45467,-0.28072 -0.17804,-0.0624 -0.3874,-0.0935 -0.628,-0.0935 z m 8.58913,-1.88469 -0.18759,1.12279 h 0.0288 c 0.16361,-0.19602 0.34165,-0.36979 0.534158,-0.52133 0.19243,-0.15143 0.39937,-0.27615 0.62073,-0.37422 0.22133,-0.0981 0.45228,-0.17153 0.69285,-0.22058 0.2406,-0.049 0.49086,-0.0735 0.75071,-0.0735 l 0.50526,-0.0268 -0.38982,2.33928 c -0.0866,-0.0357 -0.1732,-0.0692 -0.25985,-0.1003 -0.0866,-0.0312 -0.17316,-0.0512 -0.25981,-0.0601 -0.0867,-0.0179 -0.17561,-0.029 -0.26711,-0.0335 -0.0914,-0.004 -0.19001,-0.007 -0.2959,-0.007 -0.3657,0 -0.67842,0.049 -0.93827,0.14707 -0.25984,0.098 -0.466768,0.24951 -0.620728,0.45439 -0.15402,0.19612 -0.28147,0.4167 -0.38255,0.66174 -0.10105,0.24504 -0.17558,0.51464 -0.22375,0.8087 l -0.47633,2.74019 h -2.62727 l 1.16921,-6.85721 z m 7.304368,2.00497 -0.82283,4.85224 h -2.62723 l 0.82282,-4.85224 H 93.0194 l 0.34646,-2.00497 h 0.85165 l 0.36089,-2.05845 h 2.62727 l -0.36089,2.05845 h 1.48685 l -0.34646,2.00497 z"
         style="fill:#ffffff;fill-opacity:1;fill-rule:nonzero;stroke:none;stroke-width:0.341138"
         id="path854" />
      <g
         id="g1157"
         transform="matrix(0.98522432,0,0,0.98522432,0.32349532,37.324084)">
        <path
           d="M 21.893772,97.038615 V 96.363913 H 150.14308 l -12.41362,0.674702 z"
           style="fill:#ff0000;fill-opacity:1;fill-rule:evenodd;stroke:none;stroke-width:0.341138"
           id="path862" />
        <path
           d="M 21.893772,98.446251 V 97.771686 H 137.11057 l -11.15216,0.674565 z"
           style="fill:#ff0000;fill-opacity:1;fill-rule:evenodd;stroke:none;stroke-width:0.341138"
           id="path864" />
      </g>
      <g
         id="g1089">
        <path
           d="m 26.062712,103.548 1.587928,6.12199 3.681011,-6.12199 h 3.074775 l -6.366071,10.0786 H 25.846192 L 22.987937,103.548 Z m 11.360769,3.22136 -1.169317,6.85724 h -2.627237 l 1.169283,-6.85724 z m -0.620734,-3.99663 c 0.182782,0.0178 0.348813,0.0557 0.498027,0.11363 0.149111,0.0579 0.281473,0.14031 0.396948,0.24726 0.115441,0.10694 0.20209,0.22948 0.25981,0.36757 0.05776,0.13816 0.08665,0.28738 0.08665,0.44782 0,0.009 0,0.0178 0,0.0267 0,0.009 0,0.0179 0,0.0268 0,0.009 0,0.0178 0,0.0267 0,0.009 0,0.0179 0,0.0268 0,0.009 0,0.0156 0,0.02 0,0.004 0,0.007 0,0.007 -0.0097,0.009 -0.0145,0.0156 -0.0145,0.0201 0,0.004 0,0.007 0,0.007 0,0.009 0,0.0178 0,0.0267 0,0.009 0,0.0178 0,0.0268 -0.02883,0.18711 -0.09378,0.36089 -0.194858,0.52133 -0.101045,0.16033 -0.233338,0.30739 -0.396948,0.44105 -0.173298,0.13363 -0.351303,0.23392 -0.534153,0.30071 -0.182782,0.0668 -0.37532,0.1003 -0.57741,0.1003 -0.182849,0 -0.351235,-0.0267 -0.505258,-0.0802 -0.153956,-0.0535 -0.288671,-0.13819 -0.404112,-0.25404 -0.115577,-0.11585 -0.202124,-0.24279 -0.259947,-0.38088 -0.05772,-0.1382 -0.08655,-0.29185 -0.08655,-0.46119 0,-0.0178 0,-0.0335 0,-0.0468 0,-0.0133 0,-0.0245 0,-0.0335 0,-0.0178 0,-0.0356 0,-0.0533 0,-0.0179 0.0048,-0.0357 0.01443,-0.0535 0.02889,-0.18722 0.09378,-0.36099 0.194823,-0.52129 0.101079,-0.16044 0.238183,-0.30754 0.41148,-0.44116 0.16361,-0.13366 0.339228,-0.23392 0.526922,-0.30075 0.187591,-0.0668 0.382551,-0.10026 0.584641,-0.10026 z m 4.980166,3.99663 -0.187592,1.12289 h 0.02883 c 0.16361,-0.19612 0.341649,-0.36986 0.534153,-0.52129 0.192436,-0.15154 0.39937,-0.27629 0.620734,-0.37433 0.22133,-0.098 0.45228,-0.17156 0.692851,-0.22058 0.240604,-0.049 0.490863,-0.0735 0.750707,-0.0735 l 0.505259,-0.0267 -0.389818,2.33918 c -0.08665,-0.0357 -0.173195,-0.069 -0.259844,-0.10026 -0.08662,-0.0311 -0.173162,-0.0513 -0.259811,-0.0601 -0.08665,-0.0178 -0.175617,-0.0289 -0.267111,-0.0334 -0.09136,-0.004 -0.190013,-0.007 -0.295902,-0.007 -0.3657,0 -0.678421,0.049 -0.938265,0.1471 -0.259845,0.098 -0.466779,0.24947 -0.620734,0.45446 -0.154024,0.19602 -0.281473,0.4166 -0.382552,0.66164 -0.101045,0.24504 -0.175686,0.51464 -0.223752,0.8087 l -0.47633,2.74022 h -2.627374 l 1.169317,-6.85724 z m 9.22436,0.17378 -0.346494,2.05856 c -0.08661,-0.0535 -0.178005,-0.10695 -0.27424,-0.16044 -0.0963,-0.0535 -0.197348,-0.10248 -0.303135,-0.14706 -0.105889,-0.0445 -0.216622,-0.0802 -0.332063,-0.10685 -0.115475,-0.0268 -0.23576,-0.0401 -0.36089,-0.0401 -0.25019,0 -0.49076,0.0401 -0.721779,0.12028 -0.230916,0.0802 -0.447538,0.20049 -0.649526,0.36089 -0.202124,0.16044 -0.363311,0.3409 -0.48363,0.54135 -0.120285,0.20056 -0.199668,0.41667 -0.238148,0.64837 -0.0097,0.0267 -0.01692,0.0534 -0.02166,0.0802 -0.0048,0.0267 -0.0073,0.0535 -0.0073,0.0802 0,0.0268 0,0.0535 0,0.0803 0,0.0267 0,0.049 0,0.0668 0,0.20492 0.03609,0.39214 0.108311,0.56134 0.07215,0.16934 0.180428,0.31641 0.324729,0.44116 0.14437,0.12475 0.312823,0.21836 0.505259,0.28072 0.192538,0.0624 0.409024,0.0935 0.649628,0.0935 0.03848,0 0.07696,0 0.115441,0 0.03852,0 0.077,-0.004 0.115475,-0.0133 0.01924,0 0.03848,0 0.05772,0 0.01924,0 0.04332,-0.004 0.07225,-0.0133 0.01924,0 0.03848,-0.002 0.05772,-0.007 0.01924,-0.004 0.03848,-0.0111 0.05772,-0.02 0.07699,-0.0179 0.156377,-0.0401 0.238182,-0.0669 0.08181,-0.0267 0.161188,-0.0579 0.238182,-0.0935 0.07706,-0.0357 0.151636,-0.0735 0.223752,-0.11364 0.07225,-0.0401 0.141948,-0.0869 0.209357,-0.14041 l -0.34646,2.03178 c -0.09624,0.0535 -0.190013,0.0958 -0.281507,0.12698 -0.09139,0.0312 -0.185271,0.0557 -0.281506,0.0736 -0.04814,0.0178 -0.0962,0.0311 -0.14437,0.0401 -0.04807,0.009 -0.0962,0.0179 -0.144369,0.0268 -0.05772,0.0178 -0.110631,0.0311 -0.158766,0.0401 -0.04807,0.009 -0.09623,0.0178 -0.144301,0.0267 -0.06737,0.009 -0.132361,0.0156 -0.194926,0.02 -0.06256,0.004 -0.127449,0.0112 -0.194858,0.0201 -0.02893,0 -0.06014,0 -0.09381,0 -0.03374,0 -0.06499,0.004 -0.09388,0.0133 -0.03848,0 -0.07215,0 -0.101045,0 -0.02883,0 -0.05776,0 -0.08655,0 -0.500449,0 -0.955219,-0.0668 -1.364175,-0.20055 -0.409024,-0.13363 -0.781922,-0.33855 -1.118829,-0.61483 -0.327117,-0.27626 -0.572565,-0.59481 -0.736175,-0.95567 -0.16361,-0.36099 -0.245414,-0.76425 -0.245414,-1.20974 0,-0.0446 0,-0.0914 0,-0.14041 0,-0.0489 0.0048,-0.0957 0.0145,-0.14031 0.0096,-0.0446 0.01682,-0.0914 0.02166,-0.14031 0.0047,-0.049 0.01201,-0.10026 0.02166,-0.15375 0.09624,-0.55254 0.281405,-1.05152 0.555748,-1.49712 0.27424,-0.44549 0.642362,-0.84206 1.104296,-1.18961 0.45228,-0.34755 0.938299,-0.60825 1.457954,-0.78203 0.519689,-0.17374 1.073082,-0.26059 1.660078,-0.26059 0.154023,0 0.303135,0.009 0.447504,0.0267 0.144404,0.0179 0.288773,0.0446 0.433143,0.0803 0.134715,0.0356 0.266974,0.0757 0.396947,0.12029 0.129871,0.0446 0.257423,0.10251 0.382552,0.17378 z m 9.758343,-0.17378 -1.169215,6.85724 H 56.96913 l 0.129871,-0.76193 h -0.02879 c -0.115577,0.15153 -0.245449,0.28072 -0.389818,0.3877 -0.144369,0.10685 -0.298325,0.19599 -0.461934,0.26728 -0.16361,0.0713 -0.329642,0.13141 -0.497993,0.18043 -0.168454,0.049 -0.339227,0.0869 -0.512525,0.11364 -0.04807,0.009 -0.09624,0.0156 -0.14437,0.0201 -0.04807,0.004 -0.09623,0.007 -0.144267,0.007 -0.01927,0 -0.04094,0 -0.06499,0 -0.02408,0 -0.04575,0.004 -0.06499,0.0133 -0.01924,0 -0.0409,0 -0.06499,0 -0.02398,0 -0.04564,0 -0.06488,0 -0.490863,0 -0.928713,-0.0713 -1.313687,-0.21389 -0.384974,-0.14253 -0.716935,-0.36089 -0.996019,-0.65495 -0.288739,-0.29406 -0.502837,-0.61937 -0.642362,-0.97582 -0.13956,-0.35643 -0.209357,-0.74399 -0.209357,-1.16291 0,-0.0445 0,-0.0935 0,-0.14699 0,-0.0535 0.0048,-0.10695 0.0144,-0.16041 0,-0.0535 0.0048,-0.10698 0.0145,-0.16043 0.0096,-0.0535 0.01924,-0.10695 0.02883,-0.16034 0.07696,-0.49018 0.238182,-0.94911 0.483597,-1.37683 0.245414,-0.42768 0.570245,-0.81982 0.974459,-1.17624 0.404112,-0.36543 0.846806,-0.6394 1.327981,-0.82208 0.481174,-0.18274 0.996121,-0.27403 1.544602,-0.27403 0.211779,0 0.418713,0.02 0.620803,0.0601 0.202124,0.0401 0.399369,0.0958 0.591805,0.16709 0.192436,0.0713 0.365734,0.16265 0.519689,0.27407 0.153921,0.11128 0.288739,0.24282 0.40418,0.39425 l 0.115475,-0.6951 z m -4.547159,1.88479 c -0.269499,0.0178 -0.512525,0.0668 -0.729011,0.14699 -0.21652,0.0803 -0.411378,0.19612 -0.584676,0.34755 -0.173196,0.15154 -0.312721,0.31863 -0.41861,0.50127 -0.105787,0.18268 -0.178006,0.37648 -0.21652,0.58147 -0.0096,0.0267 -0.01682,0.0535 -0.02166,0.0802 -0.0048,0.0268 -0.0072,0.0535 -0.0072,0.0803 0,0.0267 0,0.0534 0,0.0802 0,0.0267 0,0.049 0,0.0668 0,0.17821 0.02889,0.34087 0.08665,0.48783 0.05772,0.1471 0.149213,0.2785 0.274342,0.39435 0.125027,0.11585 0.276629,0.20278 0.454669,0.2607 0.178039,0.0579 0.387395,0.0869 0.627966,0.0869 0.26943,0 0.514844,-0.0379 0.736175,-0.11364 0.221364,-0.0757 0.418644,-0.18489 0.591805,-0.32742 0.173298,-0.15153 0.312823,-0.31641 0.418712,-0.49462 0.105821,-0.17824 0.17804,-0.37869 0.21652,-0.60149 0,-0.009 0,-0.0179 0,-0.0268 0,-0.009 0.0047,-0.0222 0.01443,-0.0401 0,-0.009 0,-0.0201 0,-0.0334 0,-0.0133 0,-0.0245 0,-0.0335 0,-0.0178 0,-0.0311 0,-0.0401 0,-0.009 0.0048,-0.0223 0.0144,-0.0401 0,-0.009 0,-0.02 0,-0.0334 0,-0.0134 0,-0.0246 0,-0.0335 0,-0.17821 -0.03125,-0.34308 -0.09381,-0.49462 -0.06256,-0.15143 -0.156344,-0.28509 -0.281473,-0.4009 -0.125129,-0.12486 -0.276663,-0.21837 -0.454702,-0.28073 -0.178006,-0.0624 -0.387362,-0.0936 -0.627966,-0.0936 z m 8.921089,-1.88479 -0.144267,0.85551 h 0.02883 c 0.192504,-0.17822 0.384939,-0.33418 0.577375,-0.46784 0.192538,-0.13362 0.394662,-0.24504 0.606338,-0.33418 0.211744,-0.0802 0.428264,-0.14253 0.649628,-0.18711 0.221331,-0.0446 0.452247,-0.0668 0.692851,-0.0668 0.269499,0 0.522077,0.0267 0.757837,0.0802 0.235863,0.0534 0.454771,0.13372 0.656895,0.2406 0.202089,0.10695 0.375285,0.24067 0.519654,0.40101 0.14437,0.1604 0.264689,0.35642 0.36089,0.58812 0.144369,-0.18712 0.303169,-0.35421 0.476364,-0.5012 0.173264,-0.14707 0.3657,-0.27404 0.577376,-0.38098 0.211778,-0.10695 0.425876,-0.1938 0.642396,-0.26063 0.216588,-0.0668 0.440272,-0.1136 0.671291,-0.14042 0.01924,0 0.03606,0 0.05049,0 0.0145,0 0.02647,-0.004 0.03616,-0.0133 0.01924,0 0.03606,0 0.05045,0 0.01443,0 0.02651,0 0.03609,0 0.01924,0 0.03606,0 0.05056,0 0.01443,0 0.03125,-0.004 0.05049,-0.0133 0.0097,0 0.02408,0 0.04332,0 0.01924,0 0.03848,0 0.05772,0 0.394628,0 0.729045,0.0468 1.003286,0.14031 0.27424,0.0936 0.488406,0.22948 0.642362,0.40769 0.163609,0.17821 0.286351,0.38545 0.368155,0.62159 0.08181,0.23613 0.122708,0.5013 0.122708,0.79536 0,0.0624 -0.0024,0.12254 -0.0073,0.18043 -0.0048,0.0579 -0.01197,0.1181 -0.02166,0.18046 0,0.0356 -0.0024,0.0691 -0.0072,0.10026 -0.0048,0.0312 -0.0072,0.0602 -0.0072,0.0869 -0.0097,0.0357 -0.01682,0.069 -0.02166,0.10026 -0.0048,0.0311 -0.0073,0.0646 -0.0073,0.1003 l -0.750571,4.34418 h -2.627271 l 0.563013,-3.27485 c 0,0 0,-0.007 0,-0.0201 0,-0.0133 0,-0.0245 0,-0.0334 0,-0.0178 0.0024,-0.0335 0.0071,-0.0468 0.0048,-0.0133 0.01211,-0.0289 0.02166,-0.0468 0,-0.0356 0.0024,-0.0735 0.0073,-0.11363 0.0048,-0.04 0.01197,-0.0779 0.02166,-0.1136 0,-0.0445 0.0024,-0.0869 0.0072,-0.12697 0.0048,-0.04 0.01208,-0.078 0.02166,-0.11364 0,-0.009 0,-0.0178 0,-0.0267 0,-0.009 0.0048,-0.0223 0.0145,-0.0401 0,-0.009 0,-0.02 0,-0.0334 0,-0.0134 0,-0.0246 0,-0.0334 0,-0.0178 0,-0.0379 0,-0.0602 0,-0.0222 0,-0.0468 0,-0.0735 0,-0.12475 -0.0145,-0.24504 -0.04332,-0.36089 -0.02893,-0.11585 -0.07225,-0.21832 -0.129974,-0.3075 -0.05772,-0.098 -0.144369,-0.17156 -0.259844,-0.22058 -0.115441,-0.0489 -0.259811,-0.0735 -0.433006,-0.0735 -0.240605,0 -0.449961,0.0357 -0.627966,0.10695 -0.17804,0.0713 -0.319987,0.18268 -0.425877,0.33418 -0.105786,0.14256 -0.194857,0.29409 -0.267008,0.45449 -0.07222,0.16034 -0.127517,0.32968 -0.166032,0.50789 -0.0097,0.0357 -0.01924,0.0736 -0.02889,0.11363 -0.0096,0.0401 -0.01924,0.0825 -0.02883,0.12694 -0.0097,0.0357 -0.01682,0.0736 -0.02166,0.11363 -0.0048,0.0401 -0.0072,0.078 -0.0072,0.11364 L 68.9361,113.6266 h -2.627237 l 0.562979,-3.27485 c 0,0 0,-0.007 0,-0.0201 0,-0.0133 0,-0.0245 0,-0.0334 0,-0.0178 0.0024,-0.0335 0.0073,-0.0468 0.0047,-0.0133 0.01197,-0.0245 0.02166,-0.0334 0,-0.0446 0.0024,-0.0892 0.0071,-0.13373 0.0048,-0.0446 0.01211,-0.0891 0.02166,-0.13365 0.0097,-0.0446 0.01685,-0.0914 0.02166,-0.14031 0.0048,-0.049 0.01211,-0.0958 0.02166,-0.14041 0,-0.009 0,-0.0178 0,-0.0267 0,-0.009 0,-0.0179 0,-0.0268 0,0 0,-0.004 0,-0.0133 0,-0.009 0,-0.0178 0,-0.0267 0,-0.009 0,-0.0179 0,-0.0268 0,-0.009 0,-0.0178 0,-0.0267 0,0 0,-0.004 0,-0.0134 0,-0.009 0,-0.0178 0,-0.0267 0,-0.13362 -0.01682,-0.2607 -0.05045,-0.38098 -0.03377,-0.12032 -0.07942,-0.23392 -0.137239,-0.3408 -0.06731,-0.098 -0.161188,-0.17374 -0.281473,-0.22723 -0.120319,-0.0535 -0.276663,-0.0803 -0.469098,-0.0803 -0.211779,0 -0.396982,0.0335 -0.55585,0.1003 -0.158765,0.0668 -0.291059,0.16708 -0.396948,0.30074 -0.09623,0.13363 -0.178039,0.27404 -0.245346,0.42103 -0.06737,0.14707 -0.125129,0.30082 -0.173264,0.46115 -0.0096,0.0624 -0.02166,0.12029 -0.03609,0.17378 -0.0144,0.0535 -0.02647,0.10695 -0.03606,0.16044 -0.0097,0.0535 -0.01924,0.10694 -0.0289,0.1604 -0.0096,0.0535 -0.01927,0.10251 -0.02883,0.147 l -0.562979,3.24817 h -2.627271 l 1.169215,-6.85724 z"
           style="fill:#000000;fill-opacity:1;fill-rule:nonzero;stroke:none;stroke-width:0.341138"
           id="path868" />
        <path
           d="m 25.304828,102.86447 1.587927,6.12199 3.681011,-6.12199 h 3.074775 l -6.366071,10.0786 h -2.194128 l -2.85829,-10.0786 z m 11.360768,3.22136 -1.169317,6.85724 h -2.627237 l 1.169283,-6.85724 z m -0.620734,-3.9966 c 0.182782,0.0178 0.348814,0.0557 0.498027,0.1136 0.149111,0.0579 0.281473,0.14031 0.396948,0.24726 0.115441,0.10698 0.20209,0.22948 0.259844,0.36757 0.05772,0.1382 0.08662,0.28738 0.08662,0.44782 0,0.009 0,0.0178 0,0.0267 0,0.009 0,0.0179 0,0.0268 0,0.009 0,0.0178 0,0.0267 0,0.009 0,0.0179 0,0.0268 0,0.009 0,0.0156 0,0.02 0,0.004 0,0.007 0,0.007 -0.0097,0.009 -0.0145,0.0156 -0.0145,0.0201 0,0.004 0,0.007 0,0.007 0,0.009 0,0.0178 0,0.0267 0,0.009 0,0.0178 0,0.0268 -0.02883,0.18711 -0.09378,0.36089 -0.194858,0.52133 -0.101045,0.16033 -0.233338,0.30739 -0.396948,0.44105 -0.173195,0.13363 -0.351303,0.23392 -0.534153,0.30075 -0.182781,0.0668 -0.375319,0.10026 -0.577409,0.10026 -0.18285,0 -0.351236,-0.0267 -0.505259,-0.0802 -0.153956,-0.0534 -0.288671,-0.13819 -0.404112,-0.25401 -0.115543,-0.11584 -0.202124,-0.24281 -0.259844,-0.38091 -0.05782,-0.13819 -0.08665,-0.29184 -0.08665,-0.46119 0,-0.0178 0,-0.0334 0,-0.0468 0,-0.0133 0,-0.0245 0,-0.0334 0,-0.0178 0,-0.0356 0,-0.0534 0,-0.0179 0.0048,-0.0357 0.01443,-0.0535 0.02889,-0.18718 0.09378,-0.36096 0.194858,-0.52128 0.101045,-0.16044 0.23825,-0.30751 0.411446,-0.44116 0.163609,-0.13363 0.339227,-0.23392 0.526921,-0.30075 0.187591,-0.0668 0.382551,-0.10026 0.584641,-0.10026 z m 4.980166,3.9966 -0.187592,1.12289 h 0.02883 c 0.16361,-0.19609 0.34165,-0.36986 0.534154,-0.52129 0.192435,-0.15154 0.399369,-0.27629 0.620733,-0.37433 0.221331,-0.098 0.452281,-0.17156 0.692851,-0.22058 0.240604,-0.0489 0.490863,-0.0735 0.750707,-0.0735 l 0.505259,-0.0267 -0.389818,2.33919 c -0.08665,-0.0357 -0.173195,-0.0691 -0.259844,-0.10026 -0.08662,-0.0311 -0.173162,-0.0512 -0.259811,-0.0601 -0.08665,-0.0178 -0.175617,-0.0289 -0.26711,-0.0334 -0.09136,-0.005 -0.190014,-0.007 -0.295903,-0.007 -0.3657,0 -0.67842,0.0491 -0.938265,0.1471 -0.259844,0.098 -0.466779,0.24947 -0.620734,0.4545 -0.154024,0.19601 -0.281473,0.41656 -0.382552,0.6616 -0.101045,0.24504 -0.175685,0.51464 -0.223752,0.8087 l -0.47633,2.74022 H 37.22858 l 1.169215,-6.85724 z m 9.22436,0.17378 -0.346493,2.05856 c -0.08662,-0.0535 -0.178006,-0.10695 -0.274241,-0.16041 -0.0963,-0.0535 -0.197348,-0.10251 -0.303135,-0.14709 -0.105889,-0.0445 -0.21652,-0.0802 -0.332063,-0.10685 -0.115475,-0.0268 -0.23576,-0.0401 -0.360889,-0.0401 -0.250191,0 -0.490761,0.0401 -0.721779,0.12032 -0.230916,0.0802 -0.447436,0.20045 -0.649526,0.36089 -0.202124,0.1604 -0.363312,0.34086 -0.483597,0.54131 -0.120319,0.20056 -0.199702,0.41667 -0.238182,0.64837 -0.0097,0.0267 -0.01692,0.0534 -0.02166,0.0802 -0.0048,0.0267 -0.0073,0.0535 -0.0073,0.0802 0,0.0268 0,0.0535 0,0.0803 0,0.0267 0,0.049 0,0.0668 0,0.20489 0.03609,0.39211 0.108311,0.56135 0.07215,0.16931 0.180428,0.3164 0.324729,0.44112 0.14437,0.12477 0.312823,0.21836 0.505259,0.28072 0.192538,0.0624 0.409024,0.0935 0.649629,0.0935 0.03848,0 0.07696,0 0.115475,0 0.03848,0 0.07696,-0.004 0.115441,-0.0133 0.01924,0 0.03848,0 0.05772,0 0.01934,0 0.04332,-0.004 0.07225,-0.0133 0.01924,0 0.03848,-0.002 0.05772,-0.007 0.01924,-0.004 0.03848,-0.0111 0.05772,-0.02 0.07699,-0.0179 0.156377,-0.0402 0.238182,-0.0669 0.08181,-0.0267 0.161222,-0.0579 0.238182,-0.0935 0.07706,-0.0357 0.151636,-0.0735 0.223753,-0.11363 0.07225,-0.0401 0.141981,-0.0869 0.209356,-0.14043 l -0.34646,2.03178 c -0.09623,0.0535 -0.190013,0.0958 -0.281506,0.12698 -0.09139,0.0312 -0.185272,0.0557 -0.281507,0.0736 -0.04803,0.0178 -0.0962,0.0311 -0.144369,0.04 -0.04807,0.009 -0.0962,0.0179 -0.144268,0.0268 -0.05782,0.0178 -0.110733,0.0311 -0.158867,0.0401 -0.04807,0.009 -0.09624,0.0178 -0.144302,0.0267 -0.06737,0.009 -0.132361,0.0156 -0.194926,0.02 -0.06256,0.004 -0.127449,0.0112 -0.194857,0.0201 -0.02893,0 -0.06014,0 -0.09381,0 -0.03374,0 -0.06499,0.004 -0.09388,0.0133 -0.03848,0 -0.07215,0 -0.101045,0 -0.02883,0 -0.05776,0 -0.08655,0 -0.500449,0 -0.955219,-0.0668 -1.364175,-0.20055 -0.409024,-0.13363 -0.781921,-0.33855 -1.118829,-0.6148 -0.327117,-0.27629 -0.572531,-0.59481 -0.736175,-0.9557 -0.163609,-0.36099 -0.245414,-0.76425 -0.245414,-1.20974 0,-0.0446 0,-0.0914 0,-0.14041 0,-0.0489 0.0048,-0.0957 0.0145,-0.14031 0.0096,-0.0446 0.01682,-0.0914 0.02166,-0.14031 0.0047,-0.049 0.01201,-0.10026 0.02166,-0.15375 0.09624,-0.55254 0.281404,-1.05152 0.555747,-1.49712 0.27424,-0.44549 0.642362,-0.84206 1.104296,-1.18961 0.452281,-0.34752 0.938299,-0.60825 1.457954,-0.78199 0.519689,-0.17378 1.073083,-0.26063 1.660078,-0.26063 0.154024,0 0.303135,0.009 0.447538,0.0267 0.14437,0.0179 0.288739,0.0446 0.433109,0.0802 0.134715,0.0356 0.266974,0.0757 0.396947,0.12032 0.129872,0.0446 0.257423,0.10248 0.382552,0.17375 z m 9.758343,-0.17378 -1.169215,6.85724 h -2.627271 l 0.129871,-0.7619 h -0.02879 c -0.115577,0.15155 -0.245448,0.28074 -0.389818,0.38768 -0.144369,0.10685 -0.298325,0.19602 -0.461934,0.26728 -0.16361,0.0713 -0.329641,0.1314 -0.497993,0.18043 -0.168454,0.049 -0.339227,0.0869 -0.512525,0.11364 -0.04807,0.009 -0.0962,0.0156 -0.144267,0.0201 -0.04817,0.004 -0.09634,0.007 -0.144369,0.007 -0.01928,0 -0.0409,0 -0.06499,0 -0.02408,0 -0.04575,0.004 -0.06499,0.0133 -0.01924,0 -0.0409,0 -0.06499,0 -0.02398,0 -0.04564,0 -0.06488,0 -0.490863,0 -0.928713,-0.0713 -1.313687,-0.21389 -0.384973,-0.14253 -0.716934,-0.36089 -0.996019,-0.65495 -0.288739,-0.29406 -0.502837,-0.61937 -0.642362,-0.97579 -0.13956,-0.35645 -0.209356,-0.74402 -0.209356,-1.16294 0,-0.0445 0,-0.0935 0,-0.14699 0,-0.0535 0.0048,-0.10695 0.0145,-0.16041 0,-0.0535 0.0047,-0.10694 0.0144,-0.16043 0.0096,-0.0535 0.01924,-0.10695 0.02883,-0.16034 0.07696,-0.49018 0.238182,-0.94911 0.483597,-1.3768 0.245414,-0.42772 0.570245,-0.81985 0.974459,-1.17627 0.404214,-0.36544 0.846806,-0.6394 1.328083,-0.82204 0.481175,-0.18278 0.99602,-0.27407 1.544603,-0.27407 0.211676,0 0.41861,0.02 0.6207,0.0601 0.202124,0.0401 0.399369,0.0958 0.591805,0.16712 0.192538,0.0713 0.365734,0.16262 0.519689,0.27404 0.154024,0.11131 0.288739,0.24282 0.404214,0.39425 l 0.115441,-0.6951 z m -4.547159,1.88482 c -0.269499,0.0178 -0.512423,0.0668 -0.729011,0.14697 -0.21652,0.0803 -0.411378,0.19611 -0.584676,0.34754 -0.173161,0.15154 -0.312721,0.31863 -0.41861,0.5013 -0.105787,0.18265 -0.178005,0.37646 -0.21652,0.58144 -0.0096,0.0267 -0.01682,0.0535 -0.02166,0.0802 -0.0048,0.0268 -0.0071,0.0535 -0.0071,0.0803 0,0.0267 0,0.0534 0,0.0802 0,0.0267 0,0.049 0,0.0668 0,0.17821 0.02879,0.34086 0.08655,0.48786 0.05772,0.14707 0.149213,0.27847 0.274343,0.39431 0.125027,0.11585 0.276662,0.20278 0.454668,0.26071 0.178039,0.0579 0.387396,0.0869 0.627966,0.0869 0.26943,0 0.514845,-0.0379 0.736175,-0.11364 0.221364,-0.0757 0.418644,-0.18489 0.591805,-0.32742 0.173298,-0.15153 0.312858,-0.31641 0.418713,-0.49462 0.10582,-0.17821 0.178039,-0.37869 0.21652,-0.60149 0,-0.009 0,-0.0179 0,-0.0268 0,-0.009 0.0048,-0.0222 0.01443,-0.04 0,-0.009 0,-0.0201 0,-0.0335 0,-0.0133 0,-0.0245 0,-0.0335 0,-0.0178 0,-0.0311 0,-0.04 0,-0.009 0.0048,-0.0224 0.0144,-0.0401 0,-0.009 0,-0.02 0,-0.0334 0,-0.0134 0,-0.0246 0,-0.0335 0,-0.17821 -0.03125,-0.34308 -0.09381,-0.49462 -0.06256,-0.15143 -0.156344,-0.28505 -0.281473,-0.4009 -0.125129,-0.12486 -0.276662,-0.21837 -0.454702,-0.28073 -0.178006,-0.0624 -0.387362,-0.0936 -0.627966,-0.0936 z m 8.921089,-1.88482 -0.144267,0.85554 h 0.02883 c 0.192504,-0.17824 0.38494,-0.33421 0.577375,-0.46784 0.192538,-0.13365 0.394662,-0.24504 0.606338,-0.33421 0.211744,-0.0802 0.428264,-0.14252 0.649629,-0.18711 0.22133,-0.0446 0.452246,-0.0668 0.69285,-0.0668 0.269499,0 0.522077,0.0267 0.75794,0.0802 0.23576,0.0535 0.454668,0.13372 0.656792,0.24061 0.20209,0.10694 0.375285,0.24066 0.519655,0.401 0.144369,0.16044 0.264688,0.35645 0.360889,0.58813 0.14437,-0.18712 0.303169,-0.35421 0.476365,-0.5012 0.173263,-0.14707 0.365699,-0.27404 0.577375,-0.38098 0.211778,-0.10695 0.425876,-0.1938 0.642396,-0.26063 0.216588,-0.0668 0.440272,-0.1136 0.671291,-0.14038 0.01924,0 0.03606,0 0.05049,0 0.0145,0 0.02647,-0.004 0.03616,-0.0134 0.01924,0 0.03606,0 0.05045,0 0.01443,0 0.02651,0 0.03609,0 0.01924,0 0.03616,0 0.05056,0 0.01443,0 0.03125,-0.004 0.05049,-0.0133 0.0097,0 0.02408,0 0.04332,0 0.01924,0 0.03848,0 0.05772,0 0.394628,0 0.729045,0.0468 1.003286,0.14031 0.274343,0.0936 0.488407,0.22948 0.642362,0.40769 0.16361,0.17821 0.286351,0.38545 0.368156,0.62159 0.0818,0.23613 0.122707,0.5013 0.122707,0.79536 0,0.0624 -0.0024,0.12254 -0.0073,0.18046 -0.0048,0.0579 -0.01197,0.11807 -0.02166,0.18043 0,0.0356 -0.0024,0.0691 -0.0071,0.10029 -0.0048,0.0311 -0.0073,0.0602 -0.0073,0.0868 -0.0097,0.0357 -0.01682,0.0691 -0.02166,0.1003 -0.0048,0.0311 -0.0073,0.0646 -0.0073,0.10016 l -0.750571,4.34428 h -2.627271 l 0.563013,-3.27485 c 0,0 0,-0.007 0,-0.0201 0,-0.0133 0,-0.0245 0,-0.0334 0,-0.0178 0.0024,-0.0335 0.0071,-0.0468 0.0048,-0.0133 0.01211,-0.0289 0.02166,-0.0468 0,-0.0356 0.0024,-0.0735 0.0073,-0.1136 0.0048,-0.0401 0.01197,-0.078 0.02166,-0.11363 0,-0.0445 0.0024,-0.0869 0.0072,-0.12697 0.0048,-0.0401 0.01208,-0.078 0.02166,-0.11364 0,-0.009 0,-0.0178 0,-0.0267 0,-0.009 0.0048,-0.0224 0.0145,-0.0401 0,-0.009 0,-0.02 0,-0.0333 0,-0.0135 0,-0.0246 0,-0.0335 0,-0.0178 0,-0.0379 0,-0.0601 0,-0.0222 0,-0.0468 0,-0.0735 0,-0.12472 -0.0145,-0.24514 -0.04332,-0.36089 -0.02893,-0.11585 -0.07225,-0.21832 -0.129974,-0.3075 -0.05772,-0.0979 -0.144369,-0.17152 -0.25981,-0.22058 -0.115475,-0.0489 -0.259845,-0.0735 -0.43304,-0.0735 -0.240604,0 -0.449961,0.0357 -0.627966,0.10695 -0.17804,0.0713 -0.319987,0.18268 -0.425876,0.33421 -0.105787,0.14253 -0.194858,0.29406 -0.266975,0.45446 -0.07225,0.16034 -0.127551,0.32968 -0.166065,0.50789 -0.0097,0.0357 -0.01924,0.0736 -0.0289,0.11363 -0.0096,0.0401 -0.01924,0.0825 -0.02883,0.12697 -0.0097,0.0357 -0.01682,0.0736 -0.02166,0.1136 -0.0048,0.0401 -0.0072,0.0781 -0.0072,0.11364 l -0.563014,3.24817 h -2.627237 l 0.56298,-3.27485 c 0,0 0,-0.007 0,-0.0201 0,-0.0133 0,-0.0245 0,-0.0334 0,-0.0178 0.0024,-0.0335 0.0073,-0.0468 0.0048,-0.0133 0.01197,-0.0245 0.02166,-0.0334 0,-0.0446 0.0024,-0.0891 0.0071,-0.13372 0.0048,-0.0446 0.01211,-0.0891 0.02166,-0.13366 0.0097,-0.0446 0.01685,-0.0914 0.02166,-0.14031 0.0048,-0.049 0.01211,-0.0958 0.02166,-0.14041 0,-0.009 0,-0.0178 0,-0.0267 0,-0.009 0,-0.0179 0,-0.0268 0,0 0,-0.004 0,-0.0133 0,-0.009 0,-0.0178 0,-0.0267 0,-0.009 0,-0.0179 0,-0.0268 0,-0.009 0,-0.0178 0,-0.0267 0,0 0,-0.004 0,-0.0134 0,-0.009 0,-0.0178 0,-0.0267 0,-0.13362 -0.01682,-0.2607 -0.05045,-0.38098 -0.03377,-0.12029 -0.07942,-0.23392 -0.137239,-0.34076 -0.06731,-0.0981 -0.161188,-0.17378 -0.281473,-0.22727 -0.120319,-0.0535 -0.276663,-0.0803 -0.469098,-0.0803 -0.211778,0 -0.396948,0.0335 -0.555747,0.1003 -0.158868,0.0668 -0.291161,0.16708 -0.397051,0.30074 -0.0962,0.13363 -0.178039,0.27404 -0.245346,0.42103 -0.06737,0.14707 -0.125129,0.30082 -0.173263,0.46115 -0.0096,0.0624 -0.02166,0.12029 -0.03609,0.17378 -0.0144,0.0535 -0.02647,0.10695 -0.03606,0.16044 -0.0097,0.0534 -0.01924,0.10694 -0.02889,0.1604 -0.0096,0.0535 -0.01924,0.10251 -0.02883,0.147 l -0.562979,3.24817 h -2.627271 l 1.169215,-6.85724 z"
           style="fill:#009ee3;fill-opacity:1;fill-rule:nonzero;stroke:none;stroke-width:0.341138"
           id="path874" />
      </g>
      <g
         id="g1153"
         transform="translate(-57.820668,11.972279)">
        <path
           d="m 177.51907,102.97011 c 0.0608,0.31146 0.0735,0.78492 0.038,1.42012 0.63407,-1.05664 0.95106,-1.58499 0.95106,-1.58499 -0.37112,-0.3525 -0.68811,-0.54695 -0.95106,-0.58331 -0.83654,-0.1049 -2.33491,0.0832 -3.67722,0.4312 1.38553,0.22627 1.80608,0.36996 3.63922,0.31698"
           style="fill:#ffffff;fill-opacity:1;fill-rule:evenodd;stroke:none;stroke-width:0.341138"
           id="path856" />
        <path
           d="m 166.54443,98.830065 c 6.17299,-0.380402 11.08865,1.128586 18.81732,5.287595 0.3349,-0.19069 0.50816,-0.27949 0.51986,-0.26632 -6.41577,-3.62483 -10.40998,-5.292309 -14.94987,-5.706006 -9.32046,-0.79584 -20.63027,1.307103 -40.17052,4.716946 5.72517,-0.63571 10.83094,-0.88508 11.36134,-0.78615 29.06749,3.72177 43.64962,5.60697 43.7464,5.65541 1.22983,-1.78111 3.50802,-2.67715 6.34007,-2.15565 2.14443,0.4342 3.72519,1.87977 4.7424,4.33664 -0.0185,-1.37615 -0.11684,-1.7151 -0.14168,-1.92746 -0.0268,-0.40179 0.0598,-0.55602 0.52198,-0.48185 1.33081,0.20181 4.01897,1.14444 8.29285,2.94183 -6.6148,-3.78922 -13.1323,-6.13921 -18.03117,-6.06109 -0.55039,0.0147 -2.51159,0.765 -3.4489,1.24259 -20.7616,-1.92733 -30.56818,-2.76513 -31.14239,-2.89104 -1.03429,-0.8846 -1.21977,-1.33535 -1.21724,-1.77521 -0.011,-0.4954 4.93414,-1.459115 14.75955,-2.130235"
           style="fill:#ffffff;fill-opacity:1;fill-rule:evenodd;stroke:none;stroke-width:0.341138"
           id="path858" />
        <g
           id="g1085">
          <path
             d="m 87.601239,111.87554 h -3.897634 l -1.05374,1.75106 h -3.002624 l 5.904136,-10.0786 h 3.089171 l 2.381925,10.0786 h -3.017055 z m -0.418644,-2.005 -0.606304,-3.20802 h -0.02883 l -1.717867,3.20802 z m 5.788593,-3.10118 h 2.627339 l -0.620802,3.66252 c -0.0096,0.0624 -0.01682,0.1181 -0.02156,0.16712 -0.0048,0.049 -0.01208,0.0958 -0.02166,0.14031 -0.0097,0.0446 -0.0145,0.0869 -0.0145,0.12704 0,0.0401 0.0048,0.0824 0.0145,0.12698 0,0.14256 0.01924,0.27185 0.05772,0.3876 0.03848,0.11585 0.09624,0.21832 0.173196,0.3075 0.07696,0.0891 0.187694,0.15365 0.332063,0.19376 0.144267,0.0402 0.322409,0.0602 0.534085,0.0602 0.269499,0 0.497993,-0.0334 0.685687,-0.10029 0.187625,-0.0668 0.339227,-0.17156 0.454702,-0.31409 0.105889,-0.13362 0.194858,-0.28962 0.267077,-0.46784 0.07215,-0.17821 0.127449,-0.37876 0.166031,-0.60145 l 0.620734,-3.68934 h 2.62724 l -0.70735,4.13036 c -0.0962,0.57925 -0.2695,1.06496 -0.519656,1.457 -0.250259,0.39213 -0.587098,0.69063 -1.010518,0.89565 -0.4138,0.19599 -0.86376,0.3453 -1.349745,0.44771 -0.485951,0.10251 -1.008028,0.15375 -1.566163,0.15375 -0.500551,0 -0.957641,-0.0401 -1.371407,-0.12028 -0.413902,-0.0803 -0.789188,-0.20056 -1.125993,-0.36089 -0.327219,-0.16044 -0.574987,-0.39436 -0.743441,-0.70176 -0.168454,-0.3075 -0.252578,-0.68398 -0.252578,-1.12957 0,-0.0446 0,-0.0913 0,-0.14031 0,-0.049 0.0047,-0.10026 0.01443,-0.15375 0,-0.0446 0.0048,-0.0935 0.0144,-0.14696 0.0097,-0.0535 0.01924,-0.11142 0.02889,-0.17378 z m 12.082512,2.0051 -0.82282,4.85214 h -2.62724 l 0.82282,-4.85214 h -0.85165 l 0.3464,-2.0051 h 0.85171 l 0.36089,-2.05846 h 2.62727 l -0.36089,2.05846 h 1.48685 l -0.34646,2.0051 z m 6.62592,-2.23233 c 0.53893,0.0179 1.03934,0.0936 1.50128,0.22723 0.46193,0.13376 0.88054,0.33421 1.25596,0.6016 0.37529,0.26728 0.65918,0.58812 0.85162,0.96235 0.19254,0.37433 0.28877,0.80648 0.28877,1.29656 0,0.0268 0,0.0512 0,0.0736 0,0.0222 0,0.0468 0,0.0735 -0.01,0.0178 -0.0144,0.0402 -0.0144,0.0668 0,0.0268 0,0.0535 0,0.0803 0,0.0267 -0.002,0.0534 -0.007,0.0802 -0.005,0.0267 -0.007,0.049 -0.007,0.0668 -0.01,0.0267 -0.0168,0.0535 -0.0217,0.0801 -0.005,0.0268 -0.007,0.0535 -0.007,0.0803 -0.0962,0.57925 -0.29591,1.09389 -0.59904,1.54382 -0.30317,0.45006 -0.70496,0.83104 -1.20538,1.14291 -0.50045,0.32077 -1.02495,0.55691 -1.57353,0.70844 -0.54858,0.15153 -1.12111,0.22723 -1.71776,0.22723 -0.53893,0 -1.03935,-0.0624 -1.50128,-0.18711 -0.46194,-0.12476 -0.88065,-0.31641 -1.25593,-0.57478 -0.37532,-0.25848 -0.6568,-0.57479 -0.84449,-0.94901 -0.18763,-0.37433 -0.28151,-0.80649 -0.28151,-1.29667 0,-0.0445 0,-0.0913 0,-0.14031 0,-0.049 0.005,-0.10029 0.0145,-0.15375 0,-0.0535 0.005,-0.10695 0.0144,-0.16033 0.01,-0.0535 0.0193,-0.10695 0.0288,-0.16044 0.0963,-0.57922 0.29359,-1.09386 0.59191,-1.54392 0.29833,-0.44993 0.6977,-0.83538 1.19811,-1.15625 0.50045,-0.32074 1.02495,-0.56134 1.57353,-0.72175 0.54848,-0.16043 1.12115,-0.2406 1.71777,-0.2406 z m -0.36089,2.11202 c -0.2694,0.0178 -0.51239,0.0668 -0.72901,0.14699 -0.21652,0.0803 -0.41138,0.19612 -0.58454,0.34755 -0.1733,0.15154 -0.31283,0.31863 -0.41872,0.50127 -0.10582,0.18268 -0.17803,0.37648 -0.21652,0.58147 -0.01,0.0267 -0.0168,0.0535 -0.0217,0.0802 -0.005,0.0268 -0.007,0.0535 -0.007,0.0803 0,0.0267 0,0.0534 0,0.0802 0,0.0267 0,0.049 0,0.0668 0,0.17821 0.0288,0.34087 0.0866,0.48783 0.0578,0.1471 0.14921,0.2785 0.27434,0.39435 0.12502,0.11585 0.27666,0.20278 0.45467,0.2607 0.17804,0.0579 0.38739,0.0869 0.628,0.0869 0.26939,0 0.51481,-0.0379 0.73617,-0.11364 0.22133,-0.0757 0.41861,-0.18489 0.59191,-0.32742 0.17319,-0.15153 0.31272,-0.31641 0.41861,-0.49462 0.10579,-0.17824 0.178,-0.37869 0.21652,-0.60149 0,-0.009 0,-0.0179 0,-0.0268 0,-0.009 0.005,-0.0222 0.0144,-0.0401 0,-0.009 0,-0.0201 0,-0.0334 0,-0.0133 0,-0.0245 0,-0.0335 0,-0.0178 0,-0.0311 0,-0.0401 0,-0.009 0.005,-0.0223 0.0145,-0.0401 0,-0.009 0,-0.02 0,-0.0334 0,-0.0134 0,-0.0246 0,-0.0335 0,-0.17821 -0.0313,-0.34308 -0.0939,-0.49462 -0.0626,-0.15143 -0.15638,-0.28509 -0.2815,-0.4009 -0.12513,-0.12486 -0.27667,-0.21837 -0.45467,-0.28073 -0.17804,-0.0624 -0.3874,-0.0936 -0.628,-0.0936 z m 11.70723,-1.6709 -1.15489,1.55061 c -0.0288,-0.009 -0.0601,-0.0179 -0.0938,-0.0268 -0.0337,-0.009 -0.065,-0.0222 -0.0938,-0.0401 -0.0385,-0.009 -0.0746,-0.0201 -0.10831,-0.0335 -0.0336,-0.0133 -0.0697,-0.0245 -0.10832,-0.0334 -0.0673,-0.0267 -0.14184,-0.0513 -0.22365,-0.0735 -0.0818,-0.0222 -0.16118,-0.0423 -0.23828,-0.0601 -0.0385,0 -0.0794,-0.002 -0.12261,-0.007 -0.0433,-0.004 -0.0891,-0.0111 -0.1372,-0.02 -0.0192,0 -0.0385,0 -0.0578,0 -0.0192,0 -0.0385,-0.004 -0.0577,-0.0134 -0.0192,0 -0.0385,0 -0.0577,0 -0.0192,0 -0.0385,0 -0.0577,0 -0.01,0 -0.0217,0 -0.0361,0 -0.0145,0 -0.0313,0 -0.0506,0 -0.01,0.009 -0.0217,0.0134 -0.0361,0.0134 -0.0144,0 -0.0312,0 -0.0505,0 -0.0289,0.009 -0.0578,0.0156 -0.0866,0.02 -0.0289,0.004 -0.0577,0.007 -0.0867,0.007 -0.0673,0.0178 -0.12987,0.0401 -0.18759,0.0668 -0.0578,0.0268 -0.11558,0.0579 -0.1733,0.0936 -0.0577,0.0356 -0.10104,0.0757 -0.12987,0.12029 -0.0289,0.0446 -0.0481,0.0935 -0.0577,0.147 0,0.009 0,0.0157 0,0.0201 0,0.004 0,0.0111 0,0.02 0,0.009 0,0.0156 0,0.02 0,0.005 0,0.007 0,0.007 0,0.0624 0.0144,0.12032 0.0432,0.17378 0.0289,0.0534 0.0771,0.098 0.14437,0.13366 0.0674,0.0356 0.13714,0.0646 0.20936,0.0868 0.0721,0.0224 0.15153,0.0424 0.23818,0.0602 0.0288,0.009 0.0601,0.0179 0.0938,0.0268 0.0338,0.009 0.0698,0.0133 0.10831,0.0133 0.0385,0.009 0.0746,0.0156 0.10821,0.02 0.0338,0.004 0.065,0.007 0.0939,0.007 0,0 0,0.002 0,0.007 0,0.004 0.005,0.007 0.0144,0.007 0,0 0,0 0,0 0,0 0,0 0,0 0,0 0.002,0 0.007,0 0.005,0 0.012,0 0.0217,0 0.25981,0.0535 0.50041,0.12475 0.72174,0.21382 0.22137,0.0891 0.41865,0.19609 0.59181,0.32084 0.17319,0.12476 0.30317,0.28072 0.38982,0.46784 0.0865,0.18711 0.12987,0.40547 0.12987,0.65495 0,0.0357 0,0.069 0,0.10029 0,0.0311 0,0.0602 0,0.0868 0,0.0268 -0.002,0.0557 -0.007,0.0869 -0.005,0.0312 -0.0121,0.0646 -0.0217,0.1003 -0.0674,0.40991 -0.20451,0.76411 -0.41145,1.06264 -0.20693,0.2985 -0.47878,0.55022 -0.81559,0.75521 -0.32722,0.19602 -0.67129,0.34977 -1.03218,0.46119 -0.36089,0.11138 -0.73859,0.18489 -1.13312,0.22047 -0.0289,0 -0.0554,0 -0.0794,0 -0.0241,0 -0.0458,0.005 -0.065,0.0134 -0.0289,0 -0.0553,0 -0.0794,0 -0.0241,0 -0.0457,0 -0.065,0 -0.0192,0 -0.0409,0 -0.065,0 -0.024,0 -0.0456,0.004 -0.0649,0.0133 -0.0192,0 -0.0409,0 -0.065,0 -0.0241,0 -0.0457,0 -0.065,0 -0.2694,0 -0.52935,-0.0156 -0.7795,-0.0468 -0.25026,-0.0311 -0.49561,-0.0824 -0.73618,-0.15375 -0.2406,-0.0624 -0.47162,-0.14031 -0.69295,-0.23392 -0.22136,-0.0935 -0.43304,-0.20267 -0.63513,-0.32742 l 1.24143,-1.72439 c 0.077,0.0713 0.16119,0.13598 0.25258,0.19391 0.0915,0.0579 0.19496,0.11363 0.3104,0.16698 0.10589,0.0535 0.21652,0.10252 0.33196,0.1471 0.11558,0.0446 0.23587,0.0802 0.36089,0.10695 0.0578,0.0178 0.11558,0.0334 0.1733,0.0468 0.0577,0.0133 0.11548,0.0245 0.1732,0.0334 0.0289,0.009 0.0577,0.0156 0.0866,0.0201 0.0288,0.004 0.0626,0.007 0.10104,0.007 0.0288,0 0.0577,0 0.0866,0 0.0289,0 0.0578,0 0.0867,0 0.0192,0 0.0409,0 0.065,0 0.0241,0 0.0505,0 0.0794,0 0.0288,0 0.0577,-0.004 0.0866,-0.0134 0.0288,-0.009 0.0577,-0.0178 0.0866,-0.0267 0.0674,-0.0178 0.13236,-0.0401 0.19493,-0.0668 0.0625,-0.0268 0.12264,-0.0579 0.18046,-0.0936 0.0577,-0.0446 0.10579,-0.0935 0.14427,-0.147 0.0385,-0.0534 0.0626,-0.11138 0.0722,-0.17374 0,-0.009 0,-0.0157 0,-0.0201 0,-0.004 0,-0.0111 0,-0.02 0,-0.009 0,-0.0156 0,-0.02 0,-0.004 0,-0.0112 0,-0.0201 0,-0.0802 -0.0241,-0.15143 -0.0722,-0.21382 -0.0481,-0.0624 -0.11544,-0.11138 -0.20209,-0.14707 -0.0962,-0.0356 -0.19728,-0.069 -0.30317,-0.10029 -0.10579,-0.0311 -0.22607,-0.0646 -0.36079,-0.10016 -0.0386,0 -0.0771,-0.004 -0.11554,-0.0134 -0.0385,-0.009 -0.077,-0.0178 -0.11548,-0.0267 -0.0385,-0.009 -0.077,-0.0178 -0.11544,-0.0267 -0.0385,-0.009 -0.077,-0.0179 -0.11547,-0.0268 -0.01,0 -0.0193,0 -0.0289,0 -0.01,0 -0.0192,0 -0.0289,0 -0.01,0 -0.0192,-0.002 -0.0288,-0.007 -0.01,-0.004 -0.0192,-0.0111 -0.0289,-0.02 -0.18288,-0.0445 -0.35366,-0.10248 -0.51242,-0.17377 -0.1588,-0.0713 -0.3104,-0.15597 -0.45481,-0.25401 -0.14426,-0.098 -0.25015,-0.23171 -0.31756,-0.40101 -0.0673,-0.16924 -0.0962,-0.36979 -0.0865,-0.6015 0,-0.0267 0,-0.0557 0,-0.0868 0,-0.0312 0,-0.0646 0,-0.10029 0,-0.0268 0.002,-0.0557 0.007,-0.0869 0.005,-0.0311 0.0121,-0.0646 0.0217,-0.10019 0.0674,-0.37433 0.19728,-0.70619 0.38982,-0.99582 0.19243,-0.28962 0.44743,-0.53255 0.76507,-0.72853 0.31756,-0.19602 0.64713,-0.34977 0.98878,-0.46119 0.34162,-0.11138 0.69538,-0.18489 1.06108,-0.22058 0.0192,0 0.0385,0 0.0577,0 0.0193,0 0.0433,-0.004 0.0722,-0.0133 0.0192,0 0.0385,0 0.0577,0 0.0193,0 0.0385,0 0.0577,0 0.0192,0 0.0385,0 0.0577,0 0.0192,0 0.0385,-0.004 0.0577,-0.0133 0.0193,0 0.0386,0 0.0578,0 0.0192,0 0.0385,0 0.0577,0 0.21168,0 0.41861,0.009 0.6207,0.0267 0.20213,0.0179 0.40422,0.0446 0.60631,0.0803 0.20212,0.0356 0.39698,0.0802 0.58467,0.13366 0.18759,0.0535 0.37287,0.12029 0.55572,0.20045 z m 4.20066,-0.21389 -0.12984,0.77534 h 0.0288 c 0.11557,-0.12472 0.24544,-0.24057 0.38981,-0.34752 0.14437,-0.10695 0.30314,-0.20055 0.47633,-0.28072 0.16361,-0.0802 0.33207,-0.14488 0.50526,-0.1938 0.1732,-0.049 0.35131,-0.0869 0.53419,-0.11363 0.0192,0 0.0385,-0.002 0.0577,-0.007 0.0192,-0.004 0.0432,-0.007 0.0722,-0.007 0.0192,-0.009 0.0385,-0.0133 0.0577,-0.0133 0.0192,0 0.0385,0 0.0577,0 0.0192,0 0.0409,0 0.065,0 0.0241,0 0.0458,-0.004 0.065,-0.0133 0.0192,0 0.0409,0 0.065,0 0.024,0 0.0456,0 0.0649,0 0.49086,0 0.92871,0.0735 1.31368,0.22058 0.38494,0.14696 0.71694,0.36754 0.99599,0.6616 0.27908,0.29409 0.49086,0.62162 0.63523,0.98248 0.1443,0.36089 0.21652,0.75081 0.21652,1.16962 0,0.0267 0,0.0535 0,0.0801 0,0.0268 0,0.0535 0,0.0803 -0.01,0.0267 -0.0144,0.0535 -0.0144,0.0802 0,0.0268 0,0.0535 0,0.0803 -0.01,0.0534 -0.0169,0.10684 -0.0217,0.16033 -0.005,0.0535 -0.0121,0.10695 -0.0217,0.16041 -0.0866,0.49008 -0.25268,0.94904 -0.49809,1.37683 -0.24535,0.42772 -0.57018,0.81982 -0.97436,1.17628 -0.40421,0.35642 -0.84449,0.62148 -1.32085,0.79526 -0.47633,0.17377 -0.98886,0.26069 -1.53744,0.26069 -0.21168,0 -0.41861,-0.0178 -0.6207,-0.0535 -0.20212,-0.0357 -0.3994,-0.0891 -0.59181,-0.1604 -0.19253,-0.0535 -0.36573,-0.13588 -0.51968,-0.24726 -0.15403,-0.11141 -0.28874,-0.24282 -0.40422,-0.39435 l -0.70735,4.05019 h -2.62727 l 1.76112,-10.27916 z m 1.28479,1.88479 c -0.26943,0.0178 -0.51242,0.0668 -0.72894,0.14699 -0.21652,0.0803 -0.41145,0.19612 -0.58464,0.34755 -0.1733,0.15154 -0.31282,0.31863 -0.41861,0.50127 -0.10589,0.18268 -0.17804,0.37648 -0.21662,0.58147 -0.01,0.0267 -0.0168,0.0535 -0.0216,0.0802 -0.005,0.0268 -0.007,0.0535 -0.007,0.0803 0,0.0267 0,0.0534 0,0.0802 0,0.0267 0,0.049 0,0.0668 0,0.17821 0.0288,0.34087 0.0866,0.48783 0.0577,0.1471 0.14911,0.2785 0.27424,0.39435 0.12513,0.11585 0.27666,0.20278 0.4547,0.2607 0.17801,0.0579 0.38736,0.0869 0.62797,0.0869 0.2695,0 0.51481,-0.0379 0.73617,-0.11364 0.22133,-0.0757 0.41861,-0.18489 0.59191,-0.32742 0.1732,-0.15153 0.31272,-0.31641 0.41861,-0.49462 0.10589,-0.17824 0.17804,-0.37869 0.21652,-0.60149 0,-0.009 0,-0.0179 0,-0.0268 0,-0.009 0.005,-0.0222 0.0144,-0.0401 0,-0.009 0,-0.0201 0,-0.0334 0,-0.0133 0,-0.0245 0,-0.0335 0,-0.0178 0,-0.0311 0,-0.0401 0,-0.009 0.005,-0.0223 0.0145,-0.0401 0,-0.009 0,-0.02 0,-0.0334 0,-0.0134 0,-0.0246 0,-0.0335 0,-0.17821 -0.0313,-0.34308 -0.0939,-0.49462 -0.0625,-0.15143 -0.15637,-0.28509 -0.2815,-0.4009 -0.12503,-0.12486 -0.27666,-0.21837 -0.45467,-0.28073 -0.17804,-0.0624 -0.3874,-0.0936 -0.62797,-0.0936 z m 9.97494,-2.11202 c 0.53889,0.0179 1.03941,0.0936 1.50134,0.22723 0.46197,0.13376 0.88058,0.33421 1.25587,0.6016 0.37528,0.26728 0.65921,0.58812 0.85175,0.96235 0.19243,0.37433 0.28863,0.80648 0.28863,1.29656 0,0.0268 0,0.0512 0,0.0736 0,0.0222 0,0.0468 0,0.0735 -0.01,0.0178 -0.0144,0.0402 -0.0144,0.0668 0,0.0268 0,0.0535 0,0.0803 0,0.0267 -0.002,0.0534 -0.007,0.0802 -0.005,0.0267 -0.007,0.049 -0.007,0.0668 -0.01,0.0267 -0.0169,0.0535 -0.0217,0.0801 -0.005,0.0268 -0.007,0.0535 -0.007,0.0803 -0.0962,0.57925 -0.2959,1.09389 -0.59907,1.54382 -0.30317,0.45006 -0.70492,0.83104 -1.20537,1.14291 -0.50042,0.32077 -1.02492,0.55691 -1.5735,0.70844 -0.54848,0.15153 -1.12115,0.22723 -1.7178,0.22723 -0.53889,0 -1.03934,-0.0624 -1.50128,-0.18711 -0.46193,-0.12476 -0.88054,-0.31641 -1.25593,-0.57478 -0.37528,-0.25848 -0.65679,-0.57479 -0.84449,-0.94901 -0.18759,-0.37433 -0.2815,-0.80649 -0.2815,-1.29667 0,-0.0445 0,-0.0913 0,-0.14031 0,-0.049 0.005,-0.10029 0.0145,-0.15375 0,-0.0535 0.005,-0.10695 0.0144,-0.16033 0.01,-0.0535 0.0192,-0.10695 0.0289,-0.16044 0.0962,-0.57922 0.29352,-1.09386 0.59184,-1.54392 0.29829,-0.44993 0.69766,-0.83538 1.19811,-1.15625 0.50041,-0.32074 1.02491,-0.56134 1.5735,-0.72175 0.54858,-0.16043 1.12115,-0.2406 1.7178,-0.2406 z m -0.36089,2.11202 c -0.2694,0.0178 -0.51243,0.0668 -0.72895,0.14699 -0.21659,0.0803 -0.41144,0.19612 -0.58464,0.34755 -0.1733,0.15154 -0.31282,0.31863 -0.41861,0.50127 -0.10589,0.18268 -0.17804,0.37648 -0.21662,0.58147 -0.01,0.0267 -0.0168,0.0535 -0.0217,0.0802 -0.005,0.0268 -0.007,0.0535 -0.007,0.0803 0,0.0267 0,0.0534 0,0.0802 0,0.0267 0,0.049 0,0.0668 0,0.17821 0.0288,0.34087 0.0866,0.48783 0.0578,0.1471 0.14911,0.2785 0.27424,0.39435 0.12513,0.11585 0.27666,0.20278 0.4547,0.2607 0.17804,0.0579 0.3874,0.0869 0.62797,0.0869 0.2695,0 0.51485,-0.0379 0.73618,-0.11364 0.22136,-0.0757 0.41861,-0.18489 0.5919,-0.32742 0.1732,-0.15153 0.31272,-0.31641 0.41861,-0.49462 0.10589,-0.17824 0.17804,-0.37869 0.21652,-0.60149 0,-0.009 0,-0.0179 0,-0.0268 0,-0.009 0.005,-0.0222 0.0144,-0.0401 0,-0.009 0,-0.0201 0,-0.0334 0,-0.0133 0,-0.0245 0,-0.0335 0,-0.0178 0,-0.0311 0,-0.0401 0,-0.009 0.005,-0.0223 0.0145,-0.0401 0,-0.009 0,-0.02 0,-0.0334 0,-0.0134 0,-0.0246 0,-0.0335 0,-0.17821 -0.0314,-0.34308 -0.0939,-0.49462 -0.0626,-0.15143 -0.15635,-0.28509 -0.28148,-0.4009 -0.12506,-0.12486 -0.27666,-0.21837 -0.4547,-0.28073 -0.17804,-0.0624 -0.38739,-0.0936 -0.62796,-0.0936 z m 8.58912,-1.88479 -0.18759,1.12289 h 0.0288 c 0.16365,-0.19612 0.34165,-0.36986 0.53419,-0.52129 0.19244,-0.15154 0.39937,-0.27629 0.6207,-0.37433 0.22137,-0.098 0.45228,-0.17156 0.69289,-0.22058 0.24057,-0.049 0.49082,-0.0735 0.75067,-0.0735 l 0.50526,-0.0267 -0.38979,2.33918 c -0.0866,-0.0357 -0.17319,-0.069 -0.25984,-0.10026 -0.0866,-0.0311 -0.1732,-0.0513 -0.25984,-0.0601 -0.0867,-0.0178 -0.17559,-0.0289 -0.26708,-0.0334 -0.0914,-0.004 -0.19002,-0.007 -0.2959,-0.007 -0.36574,0 -0.67846,0.049 -0.9383,0.1471 -0.25981,0.098 -0.46675,0.24947 -0.6207,0.45446 -0.15406,0.19602 -0.28151,0.4166 -0.38255,0.66164 -0.10105,0.24504 -0.17572,0.51464 -0.22376,0.8087 l -0.47636,2.74022 h -2.62724 l 1.16918,-6.85724 z m 7.30437,2.0051 -0.82282,4.85214 h -2.62727 l 0.82282,-4.85214 h -0.85165 l 0.34639,-2.0051 h 0.85176 l 0.36089,-2.05846 h 2.62723 l -0.36089,2.05846 h 1.48689 l -0.3465,2.0051 z"
             style="fill:#000000;fill-opacity:1;fill-rule:nonzero;stroke:none;stroke-width:0.341138"
             id="path870" />
          <g
             id="g1078">
            <g
               id="g892"
               transform="translate(0,-0.20444766)">
              <path
                 d="m 134.07069,106.05696 c 3.04357,-1.87646 5.19069,-1.58093 8.00122,0.004 -1.89062,-2.66285 -6.18074,-2.2864 -8.00122,-0.004"
                 style="fill:#ffffff;fill-opacity:1;fill-rule:evenodd;stroke:none;stroke-width:0.341138"
                 id="path860" />
              <path
                 d="m 87.151483,111.3988 h -3.897634 l -1.053739,1.75106 h -3.002625 l 5.904136,-10.0786 h 3.089172 l 2.381925,10.0786 h -3.017055 z m -0.418644,-2.00497 -0.606304,-3.20805 h -0.02883 l -1.717867,3.20805 z m 5.788695,-3.10121 h 2.627237 l -0.620699,3.66256 c -0.0097,0.0624 -0.01692,0.11806 -0.02166,0.16709 -0.0048,0.049 -0.01208,0.0958 -0.02166,0.14031 -0.0097,0.0446 -0.0145,0.0869 -0.0145,0.12707 0,0.04 0.0048,0.0824 0.0145,0.12697 0,0.14253 0.01924,0.27182 0.05772,0.38757 0.03848,0.11585 0.09623,0.21832 0.173195,0.3075 0.07696,0.0891 0.187694,0.15365 0.332063,0.1938 0.144302,0.0401 0.32241,0.0601 0.534085,0.0601 0.269499,0 0.497993,-0.0334 0.685687,-0.10029 0.187626,-0.0668 0.339227,-0.17153 0.454702,-0.31409 0.105889,-0.13362 0.194858,-0.28959 0.267077,-0.46783 0.07215,-0.17822 0.127449,-0.37877 0.166032,-0.60146 l 0.620734,-3.68934 h 2.627233 l -0.707345,4.13039 c -0.0962,0.57922 -0.269499,1.06497 -0.519655,1.45697 -0.250259,0.39213 -0.587098,0.69063 -1.010518,0.89565 -0.4138,0.19602 -0.863726,0.3453 -1.349745,0.44771 -0.485916,0.10251 -1.008027,0.15375 -1.566163,0.15375 -0.500517,0 -0.957641,-0.0401 -1.371407,-0.12028 -0.413902,-0.0803 -0.789187,-0.20056 -1.125993,-0.36089 -0.327219,-0.16044 -0.574987,-0.39436 -0.743441,-0.70176 -0.168453,-0.3075 -0.252578,-0.68394 -0.252578,-1.12954 0,-0.0446 0,-0.0913 0,-0.14034 0,-0.049 0.0047,-0.10026 0.01443,-0.15375 0,-0.0445 0.0048,-0.0935 0.0144,-0.14696 0.0097,-0.0535 0.01924,-0.11142 0.02893,-0.17378 z m 12.082416,2.0051 -0.82283,4.85214 h -2.62724 l 0.82283,-4.85214 h -0.85165 l 0.34639,-2.0051 h 0.85175 l 0.36086,-2.05846 h 2.62727 l -0.36089,2.05846 h 1.48688 l -0.34649,2.0051 z m 6.62591,-2.23233 c 0.53893,0.0179 1.03934,0.0936 1.50128,0.22723 0.46193,0.13376 0.88065,0.33421 1.25597,0.6016 0.37528,0.26728 0.65918,0.58812 0.85161,0.96235 0.19254,0.37433 0.28877,0.80648 0.28877,1.29656 0,0.0268 0,0.0512 0,0.0736 0,0.0222 0,0.0468 0,0.0735 -0.01,0.0178 -0.0144,0.0401 -0.0144,0.0668 0,0.0268 0,0.0535 0,0.0803 0,0.0267 -0.002,0.0534 -0.007,0.0802 -0.005,0.0267 -0.007,0.049 -0.007,0.0668 -0.01,0.0267 -0.0168,0.0534 -0.0216,0.0802 -0.005,0.0268 -0.007,0.0535 -0.007,0.0802 -0.0962,0.57925 -0.2959,1.09389 -0.59904,1.54385 -0.30317,0.45003 -0.70496,0.83101 -1.20537,1.14288 -0.50042,0.32077 -1.02495,0.55691 -1.57353,0.70844 -0.54849,0.15153 -1.12112,0.22723 -1.71777,0.22723 -0.53893,0 -1.03934,-0.0624 -1.50128,-0.18711 -0.46193,-0.12472 -0.88064,-0.31641 -1.25593,-0.57478 -0.37532,-0.25848 -0.65679,-0.57479 -0.84449,-0.94901 -0.18762,-0.37433 -0.2815,-0.80649 -0.2815,-1.29667 0,-0.0445 0,-0.0913 0,-0.14031 0,-0.049 0.005,-0.10029 0.0145,-0.15375 0,-0.0535 0.005,-0.10695 0.0144,-0.16033 0.01,-0.0535 0.0192,-0.10695 0.0288,-0.16044 0.0963,-0.57922 0.29358,-1.09386 0.59191,-1.54392 0.29832,-0.44993 0.69769,-0.83538 1.19811,-1.15622 0.50044,-0.32077 1.02494,-0.56137 1.57353,-0.72178 0.54848,-0.16043 1.12115,-0.2406 1.71776,-0.2406 z m -0.36089,2.11205 c -0.26939,0.0178 -0.51239,0.0668 -0.72891,0.14696 -0.21662,0.0803 -0.41144,0.19612 -0.58464,0.34755 -0.1733,0.15154 -0.31282,0.31863 -0.41864,0.5013 -0.10586,0.18265 -0.17811,0.37645 -0.21659,0.58144 -0.01,0.0267 -0.0168,0.0535 -0.0217,0.0802 -0.005,0.0268 -0.007,0.0535 -0.007,0.0803 0,0.0267 0,0.0534 0,0.0802 0,0.0267 0,0.049 0,0.0668 0,0.17821 0.0288,0.34087 0.0865,0.48786 0.0578,0.14707 0.14921,0.27847 0.27434,0.39432 0.12513,0.11585 0.27666,0.20278 0.4547,0.2607 0.17801,0.0579 0.38737,0.0869 0.62797,0.0869 0.2694,0 0.51481,-0.0379 0.73618,-0.11364 0.22133,-0.0757 0.41861,-0.18489 0.5919,-0.32742 0.1732,-0.15153 0.31272,-0.31641 0.41861,-0.49462 0.10589,-0.17821 0.17804,-0.37869 0.21652,-0.60149 0,-0.009 0,-0.0179 0,-0.0268 0,-0.009 0.005,-0.0222 0.0144,-0.04 0,-0.009 0,-0.0201 0,-0.0335 0,-0.0133 0,-0.0245 0,-0.0335 0,-0.0178 0,-0.0311 0,-0.04 0,-0.009 0.005,-0.0224 0.0145,-0.0401 0,-0.009 0,-0.02 0,-0.0334 0,-0.0134 0,-0.0246 0,-0.0335 0,-0.17821 -0.0313,-0.34308 -0.0939,-0.49462 -0.0626,-0.15143 -0.15638,-0.28505 -0.28151,-0.4009 -0.12513,-0.12486 -0.27666,-0.21837 -0.45467,-0.28073 -0.17804,-0.0624 -0.38739,-0.0936 -0.628,-0.0936 z m 11.70726,-1.67089 -1.15492,1.55057 c -0.0288,-0.009 -0.0601,-0.0179 -0.0938,-0.0268 -0.0337,-0.009 -0.065,-0.0222 -0.0938,-0.0401 -0.0385,-0.009 -0.0746,-0.02 -0.10831,-0.0334 -0.0336,-0.0134 -0.0697,-0.0246 -0.10821,-0.0335 -0.0674,-0.0267 -0.14195,-0.0512 -0.22375,-0.0735 -0.0818,-0.0222 -0.16119,-0.0424 -0.23818,-0.0602 -0.0386,0 -0.0795,-0.002 -0.12271,-0.007 -0.0433,-0.004 -0.0891,-0.0111 -0.13721,-0.02 -0.0192,0 -0.0385,0 -0.0577,0 -0.0192,0 -0.0385,-0.004 -0.0577,-0.0134 -0.0192,0 -0.0385,0 -0.0577,0 -0.0192,0 -0.0385,0 -0.0577,0 -0.01,0 -0.0217,0 -0.0361,0 -0.0145,0 -0.0313,0 -0.0506,0 -0.01,0.009 -0.0217,0.0134 -0.0361,0.0134 -0.0144,0 -0.0312,0 -0.0505,0 -0.0289,0.009 -0.0578,0.0156 -0.0866,0.02 -0.0289,0.004 -0.0577,0.007 -0.0867,0.007 -0.0673,0.0178 -0.12987,0.0402 -0.18759,0.0668 -0.0578,0.0268 -0.11557,0.0579 -0.1733,0.0936 -0.0577,0.0356 -0.10104,0.0757 -0.12987,0.12029 -0.0289,0.0446 -0.0481,0.0935 -0.0577,0.147 0,0.009 0,0.0156 0,0.0201 0,0.004 0,0.0111 0,0.02 0,0.009 0,0.0156 0,0.02 0,0.004 0,0.007 0,0.007 0,0.0624 0.0144,0.12028 0.0432,0.17374 0.0289,0.0534 0.0771,0.098 0.14436,0.13366 0.0674,0.0356 0.13714,0.0646 0.20936,0.0868 0.0721,0.0223 0.15153,0.0424 0.23818,0.0602 0.0288,0.009 0.0601,0.0179 0.0938,0.0268 0.0337,0.009 0.0698,0.0133 0.10827,0.0133 0.0385,0.009 0.0746,0.0156 0.10821,0.02 0.0338,0.004 0.065,0.007 0.0939,0.007 0,0 0,0.002 0,0.007 0,0.004 0.005,0.007 0.0144,0.007 0,0 0,0 0,0 0,0 0,0 0,0 0,0 0.002,0 0.007,0 0.005,0 0.012,0 0.0217,0 0.25981,0.0535 0.50042,0.12475 0.72175,0.21382 0.22136,0.0891 0.41864,0.19609 0.5918,0.32084 0.1733,0.12476 0.30317,0.28072 0.38982,0.46784 0.0866,0.18711 0.12987,0.40547 0.12987,0.65495 0,0.0357 0,0.069 0,0.10029 0,0.0311 0,0.0602 0,0.0868 0,0.0268 -0.002,0.0557 -0.007,0.087 -0.005,0.0311 -0.0121,0.0646 -0.0217,0.10026 -0.0674,0.40991 -0.20451,0.76411 -0.41144,1.06264 -0.20687,0.29853 -0.47879,0.55022 -0.81559,0.75525 -0.32722,0.19598 -0.67129,0.34977 -1.03218,0.46115 -0.36089,0.11141 -0.7386,0.18489 -1.13313,0.22047 -0.0289,0 -0.0553,0 -0.0794,0 -0.0241,0 -0.0457,0.005 -0.065,0.0134 -0.0289,0 -0.0553,0 -0.0794,0 -0.0241,0 -0.0457,0 -0.065,0 -0.0192,0 -0.0409,0 -0.065,0 -0.024,0 -0.0456,0.004 -0.0649,0.0133 -0.0192,0 -0.0409,0 -0.065,0 -0.0241,0 -0.0457,0 -0.065,0 -0.2694,0 -0.52934,-0.0155 -0.7795,-0.0468 -0.25026,-0.0311 -0.4956,-0.0824 -0.73617,-0.15375 -0.24061,-0.0624 -0.47163,-0.14031 -0.69296,-0.23392 -0.22136,-0.0935 -0.43304,-0.20267 -0.63513,-0.32742 l 1.24144,-1.72435 c 0.077,0.0713 0.16119,0.13594 0.25258,0.19387 0.0915,0.0579 0.19496,0.11363 0.3104,0.16702 0.10589,0.0534 0.21652,0.10248 0.33199,0.14706 0.11555,0.0446 0.23583,0.0802 0.36086,0.10695 0.0577,0.0178 0.11557,0.0334 0.1733,0.0468 0.0577,0.0133 0.11547,0.0245 0.17319,0.0334 0.0289,0.009 0.0577,0.0156 0.0866,0.0201 0.0288,0.004 0.0626,0.007 0.10104,0.007 0.0288,0 0.0577,0 0.0866,0 0.0289,0 0.0578,0 0.0867,0 0.0192,0 0.0409,0 0.065,0 0.0241,0 0.0504,0 0.0794,0 0.0289,0 0.0577,-0.004 0.0867,-0.0135 0.0288,-0.009 0.0577,-0.0178 0.0865,-0.0267 0.0674,-0.0178 0.13236,-0.0401 0.19496,-0.0668 0.0625,-0.0268 0.1226,-0.0579 0.18042,-0.0936 0.0577,-0.0446 0.10579,-0.0935 0.14427,-0.14696 0.0385,-0.0535 0.0626,-0.11142 0.0722,-0.17378 0,-0.009 0,-0.0157 0,-0.0201 0,-0.004 0,-0.0111 0,-0.02 0,-0.009 0,-0.0155 0,-0.02 0,-0.004 0,-0.0112 0,-0.0201 0,-0.0802 -0.0241,-0.15143 -0.0722,-0.21379 -0.0481,-0.0624 -0.11544,-0.11141 -0.20209,-0.1471 -0.0962,-0.0356 -0.19728,-0.069 -0.30307,-0.10026 -0.10589,-0.0311 -0.22617,-0.0646 -0.36089,-0.10019 -0.0386,0 -0.0771,-0.004 -0.11554,-0.0134 -0.0385,-0.009 -0.077,-0.0178 -0.11547,-0.0267 -0.0385,-0.009 -0.077,-0.0178 -0.11545,-0.0267 -0.0385,-0.009 -0.077,-0.0179 -0.11547,-0.0268 -0.01,0 -0.0192,0 -0.0289,0 -0.01,0 -0.0193,0 -0.0289,0 -0.01,0 -0.0192,-0.002 -0.0288,-0.007 -0.01,-0.004 -0.0192,-0.0111 -0.0289,-0.02 -0.18289,-0.0446 -0.35366,-0.10252 -0.51243,-0.17378 -0.1588,-0.0714 -0.3104,-0.156 -0.45477,-0.25404 -0.1443,-0.0979 -0.25019,-0.2317 -0.31756,-0.40101 -0.0673,-0.16924 -0.0962,-0.36979 -0.0865,-0.6015 0,-0.0267 0,-0.0557 0,-0.0868 0,-0.0312 0,-0.0647 0,-0.1003 0,-0.0268 0.002,-0.0557 0.007,-0.0869 0.005,-0.0312 0.0121,-0.0646 0.0217,-0.10019 0.0674,-0.37433 0.19728,-0.70619 0.38982,-0.99582 0.19244,-0.28962 0.44744,-0.53251 0.76507,-0.72853 0.31757,-0.19602 0.64714,-0.34977 0.98879,-0.46119 0.34165,-0.11138 0.69537,-0.18486 1.06107,-0.22054 0.0192,0 0.0385,0 0.0578,0 0.0192,0 0.0432,-0.004 0.0721,-0.0134 0.0192,0 0.0385,0 0.0577,0 0.0193,0 0.0385,0 0.0578,0 0.0192,0 0.0385,0 0.0577,0 0.0193,0 0.0385,-0.004 0.0578,-0.0133 0.0192,0 0.0385,0 0.0577,0 0.0193,0 0.0385,0 0.0578,0 0.21167,0 0.41861,0.009 0.6207,0.0267 0.20212,0.0179 0.40421,0.0446 0.60633,0.0802 0.20209,0.0356 0.39695,0.0802 0.58465,0.13366 0.18759,0.0535 0.37286,0.12029 0.55574,0.20045 z m 4.20067,-0.21393 -0.12987,0.77537 h 0.0289 c 0.11548,-0.12475 0.24535,-0.2406 0.38972,-0.34755 0.14437,-0.10695 0.30313,-0.20055 0.47633,-0.28072 0.16361,-0.0803 0.33206,-0.14485 0.50526,-0.1938 0.1733,-0.049 0.35134,-0.0869 0.53419,-0.1136 0.0192,0 0.0385,-0.002 0.0577,-0.007 0.0192,-0.004 0.0433,-0.007 0.0721,-0.007 0.0192,-0.009 0.0385,-0.0134 0.0577,-0.0134 0.0192,0 0.0385,0 0.0577,0 0.0192,0 0.0409,0 0.065,0 0.0241,0 0.0457,-0.004 0.065,-0.0133 0.0192,0 0.0409,0 0.065,0 0.024,0 0.0456,0 0.0649,0 0.49086,0 0.92871,0.0735 1.31369,0.22058 0.38494,0.14699 0.71693,0.36757 0.99602,0.66163 0.27905,0.29406 0.49083,0.62159 0.6352,0.98248 0.1443,0.36089 0.21652,0.75078 0.21652,1.16959 0,0.0267 0,0.0535 0,0.0802 0,0.0268 0,0.0534 0,0.0802 -0.01,0.0267 -0.0144,0.0535 -0.0144,0.0802 0,0.0268 0,0.0535 0,0.0803 -0.01,0.0534 -0.0169,0.10684 -0.0217,0.16034 -0.005,0.0534 -0.0121,0.10694 -0.0217,0.16043 -0.0866,0.49008 -0.25269,0.94901 -0.4981,1.3768 -0.24535,0.42772 -0.57014,0.81982 -0.97436,1.17628 -0.40421,0.35642 -0.84448,0.62148 -1.32085,0.79526 -0.47633,0.17377 -0.98885,0.26069 -1.53733,0.26069 -0.21178,0 -0.41872,-0.0178 -0.62081,-0.0534 -0.20202,-0.0357 -0.39937,-0.0892 -0.5918,-0.16044 -0.19244,-0.0535 -0.36574,-0.13588 -0.51969,-0.24726 -0.15396,-0.11141 -0.28874,-0.24282 -0.40421,-0.39435 l -0.70735,4.05019 h -2.62727 l 1.76112,-10.27916 z m 1.28476,1.88482 c -0.26943,0.0178 -0.51242,0.0668 -0.72894,0.14696 -0.21652,0.0803 -0.41145,0.19612 -0.58465,0.34755 -0.17319,0.15154 -0.31282,0.31863 -0.41861,0.5013 -0.10589,0.18265 -0.17804,0.37645 -0.21652,0.58144 -0.01,0.0267 -0.0169,0.0535 -0.0217,0.0802 -0.005,0.0268 -0.007,0.0535 -0.007,0.0803 0,0.0267 0,0.0534 0,0.0802 0,0.0267 0,0.049 0,0.0668 0,0.17821 0.0289,0.34087 0.0866,0.48786 0.0577,0.14707 0.14912,0.27847 0.27424,0.39432 0.12513,0.11585 0.27667,0.20278 0.45471,0.2607 0.178,0.0579 0.38736,0.0869 0.62796,0.0869 0.2695,0 0.51485,-0.0379 0.73618,-0.11364 0.22136,-0.0757 0.41871,-0.18489 0.59191,-0.32742 0.17319,-0.15153 0.31272,-0.31641 0.41861,-0.49462 0.10588,-0.17821 0.17804,-0.37869 0.21652,-0.60149 0,-0.009 0,-0.0179 0,-0.0268 0,-0.009 0.005,-0.0222 0.0145,-0.04 0,-0.009 0,-0.0201 0,-0.0335 0,-0.0133 0,-0.0245 0,-0.0335 0,-0.0178 0,-0.0311 0,-0.04 0,-0.009 0.005,-0.0224 0.0144,-0.0401 0,-0.009 0,-0.02 0,-0.0334 0,-0.0134 0,-0.0246 0,-0.0335 0,-0.17821 -0.0313,-0.34308 -0.0939,-0.49462 -0.0625,-0.15143 -0.15638,-0.28505 -0.28141,-0.4009 -0.12512,-0.12486 -0.27676,-0.21837 -0.45477,-0.28073 -0.17804,-0.0624 -0.38739,-0.0936 -0.62796,-0.0936 z m 9.97493,-2.11205 c 0.539,0.0179 1.03941,0.0936 1.50138,0.22723 0.46193,0.13376 0.88054,0.33421 1.25583,0.6016 0.37529,0.26728 0.65921,0.58812 0.85175,0.96235 0.19244,0.37433 0.28864,0.80648 0.28864,1.29656 0,0.0268 0,0.0512 0,0.0736 0,0.0222 0,0.0468 0,0.0735 -0.01,0.0178 -0.0144,0.0401 -0.0144,0.0668 0,0.0268 0,0.0535 0,0.0803 0,0.0267 -0.002,0.0534 -0.007,0.0802 -0.005,0.0267 -0.007,0.049 -0.007,0.0668 -0.01,0.0267 -0.0169,0.0534 -0.0217,0.0802 -0.005,0.0268 -0.007,0.0535 -0.007,0.0802 -0.0962,0.57925 -0.2959,1.09389 -0.59907,1.54385 -0.30314,0.45003 -0.70493,0.83101 -1.20538,1.14288 -0.50041,0.32077 -1.02491,0.55691 -1.5735,0.70844 -0.54848,0.15153 -1.12115,0.22723 -1.71779,0.22723 -0.5389,0 -1.03931,-0.0624 -1.50128,-0.18711 -0.46194,-0.12472 -0.88055,-0.31641 -1.25594,-0.57478 -0.37528,-0.25848 -0.65679,-0.57479 -0.84448,-0.94901 -0.18759,-0.37433 -0.28151,-0.80649 -0.28151,-1.29667 0,-0.0445 0,-0.0913 0,-0.14031 0,-0.049 0.005,-0.10029 0.0145,-0.15375 0,-0.0535 0.005,-0.10695 0.0144,-0.16033 0.01,-0.0535 0.0192,-0.10695 0.0289,-0.16044 0.0962,-0.57922 0.29348,-1.09386 0.5918,-1.54392 0.2983,-0.44993 0.6977,-0.83538 1.19811,-1.15622 0.50042,-0.32077 1.02492,-0.56137 1.5735,-0.72178 0.54858,-0.16043 1.12115,-0.2406 1.7178,-0.2406 z m -0.36089,2.11205 c -0.2694,0.0178 -0.51242,0.0668 -0.72894,0.14696 -0.21659,0.0803 -0.41145,0.19612 -0.58464,0.34755 -0.1733,0.15154 -0.31283,0.31863 -0.41861,0.5013 -0.10589,0.18265 -0.17804,0.37645 -0.21663,0.58144 -0.01,0.0267 -0.0168,0.0535 -0.0216,0.0802 -0.005,0.0268 -0.007,0.0535 -0.007,0.0803 0,0.0267 0,0.0534 0,0.0802 0,0.0267 0,0.049 0,0.0668 0,0.17821 0.0288,0.34087 0.0866,0.48786 0.0577,0.14707 0.14911,0.27847 0.27427,0.39432 0.12513,0.11585 0.27663,0.20278 0.45467,0.2607 0.17804,0.0579 0.38739,0.0869 0.62796,0.0869 0.2695,0 0.51485,-0.0379 0.73618,-0.11364 0.22136,-0.0757 0.41864,-0.18489 0.59191,-0.32742 0.17319,-0.15153 0.31272,-0.31641 0.41861,-0.49462 0.10589,-0.17821 0.17804,-0.37869 0.21652,-0.60149 0,-0.009 0,-0.0179 0,-0.0268 0,-0.009 0.005,-0.0222 0.0144,-0.04 0,-0.009 0,-0.0201 0,-0.0335 0,-0.0133 0,-0.0245 0,-0.0335 0,-0.0178 0,-0.0311 0,-0.04 0,-0.009 0.005,-0.0224 0.0145,-0.0401 0,-0.009 0,-0.02 0,-0.0334 0,-0.0134 0,-0.0246 0,-0.0335 0,-0.17821 -0.0314,-0.34308 -0.0939,-0.49462 -0.0625,-0.15143 -0.15634,-0.28505 -0.28147,-0.4009 -0.12506,-0.12486 -0.27666,-0.21837 -0.4547,-0.28073 -0.17801,-0.0624 -0.38737,-0.0936 -0.62797,-0.0936 z m 8.58913,-1.88482 -0.18759,1.12289 h 0.0288 c 0.16364,-0.19609 0.34165,-0.36986 0.53419,-0.52129 0.19243,-0.15154 0.39937,-0.27629 0.62073,-0.37433 0.22133,-0.098 0.45225,-0.17156 0.69285,-0.22058 0.24057,-0.0489 0.49083,-0.0735 0.75067,-0.0735 l 0.50526,-0.0267 -0.38978,2.33919 c -0.0866,-0.0357 -0.1732,-0.0691 -0.25985,-0.10027 -0.0866,-0.0311 -0.17319,-0.0512 -0.25984,-0.0601 -0.0867,-0.0178 -0.17558,-0.0289 -0.26708,-0.0334 -0.0914,-0.005 -0.19001,-0.007 -0.2959,-0.007 -0.36573,0 -0.67845,0.0491 -0.9383,0.1471 -0.25981,0.098 -0.46674,0.24947 -0.6207,0.4545 -0.15406,0.19601 -0.28151,0.41656 -0.38255,0.6616 -0.10105,0.24504 -0.17572,0.51464 -0.22375,0.8087 l -0.47637,2.74022 h -2.62723 l 1.16918,-6.85724 z m 7.30437,2.0051 -0.82283,4.85214 h -2.62727 l 0.82283,-4.85214 h -0.85165 l 0.34639,-2.0051 h 0.85175 l 0.36089,-2.05846 h 2.62724 l -0.36089,2.05846 h 1.48688 l -0.34649,2.0051 z"
                 style="fill:#ff0000;fill-opacity:1;fill-rule:nonzero;stroke:none;stroke-width:0.341138"
                 id="path876" />
            </g>
          </g>
        </g>
      </g>
    </g>
  </g>
</svg>
